<?xml version="1.0" standalone="no"?>
<!DOCTYPE svg PUBLIC "-//W3C//DTD SVG 1.1//EN" "http://www.w3.org/Graphics/SVG/1.1/DTD/svg11.dtd" >
<svg xmlns="http://www.w3.org/2000/svg" xmlns:xlink="http://www.w3.org/1999/xlink" version="1.1">
<metadata>
Created by FontForge 20161003 at Wed Sep  6 10:02:49 2017
 By www-data
2006 Lukasz Dziedzic published by FSI FontShop International GmbH
</metadata>
<defs>
<font id="ffpronarrow" horiz-adv-x="378" >
  <font-face 
    font-family="ffpronarrow"
    font-weight="500"
    font-stretch="semi-condensed"
    units-per-em="1000"
    panose-1="2 1 6 6 3 1 1 2 1 4"
    ascent="787"
    descent="-213"
    x-height="603"
    cap-height="750"
    bbox="-122 -230 963 950"
    underline-thickness="39"
    underline-position="-119"
    unicode-range="U+000D-FB02"
  />
<missing-glyph horiz-adv-x="571" 
d="M66 0v750h439v-750h-439zM142 76h287v598h-287v-598z" />
    <glyph glyph-name="fi" unicode="fi" horiz-adv-x="644" 
d="M217 509v-509h-119v509h-74v94h74v30q0 74 46.5 119t138.5 45q46 0 78 -9l-4 -85q-26 6 -48 6q-92 0 -92 -80v-26h341v-603h-122v509h-219zM569 742q0 -59 -71 -59q-36 0 -53.5 13.5t-17.5 45.5q0 59 71 59t71 -59z" />
    <glyph glyph-name="fl" unicode="fl" horiz-adv-x="616" 
d="M537 0h-120v708q-49 7 -81 7q-64 0 -91.5 -22.5t-27.5 -67.5v-22h100v-94h-100v-509h-119v509h-74v94h73v28q0 170 241 170q42 0 107 -7t92 -9v-785z" />
    <glyph glyph-name=".notdef" horiz-adv-x="571" 
d="M66 0v750h439v-750h-439zM142 76h287v598h-287v-598z" />
    <glyph glyph-name=".null" horiz-adv-x="0" 
 />
    <glyph glyph-name=".null" horiz-adv-x="0" 
 />
    <glyph glyph-name="nonmarkingreturn" horiz-adv-x="333" 
 />
    <glyph glyph-name="CR" unicode="&#xd;" horiz-adv-x="258" 
 />
    <glyph glyph-name="space" unicode=" " horiz-adv-x="258" 
 />
    <glyph glyph-name="exclam" unicode="!" horiz-adv-x="278" 
d="M184 207h-92l-19 543h130zM212 55q0 -66 -71 -66q-36 0 -53.5 15.5t-17.5 50.5q0 67 71 67t71 -67z" />
    <glyph glyph-name="quotedbl" unicode="&#x22;" horiz-adv-x="379" 
d="M226 770h116l-22 -254h-77zM47 770h116l-22 -254h-77z" />
    <glyph glyph-name="numbersign" unicode="#" horiz-adv-x="589" 
d="M53 299h96l19 151h-114v95h124l24 205h94l-23 -205h89l24 205h92l-24 -205h84v-95h-94l-19 -151h112v-97h-122l-23 -202h-92l23 202h-91l-23 -202h-94l24 202h-86v97zM262 450l-20 -151h91l19 151h-90z" />
    <glyph glyph-name="dollar" unicode="$" horiz-adv-x="589" 
d="M281 -82l-66 6l7 66q-98 12 -152 46l15 116q70 -41 150 -54l26 232q-43 18 -71 33.5t-59 41t-46.5 62t-15.5 84.5q0 100 62 154t180 56l8 64l72 -6l-8 -62q72 -10 110 -28l-8 -112q-50 17 -116 25l-25 -204q40 -16 68 -32t57 -42t44 -64.5t15 -87.5q0 -114 -58 -168.5
t-181 -56.5zM431 195q0 37 -26.5 61.5t-76.5 45.5l-26 -208q129 3 129 101zM177 557q0 -33 25.5 -54t74.5 -40l21 183q-121 -4 -121 -89z" />
    <glyph glyph-name="percent" unicode="%" horiz-adv-x="671" 
d="M314 588q0 -173 -140 -173q-71 0 -105 42t-34 131q0 91 33 132t107 41q70 0 104.5 -40t34.5 -133zM233 589q0 54 -13.5 74t-44.5 20t-45 -20t-14 -74t14 -74t45 -20t44.5 19.5t13.5 74.5zM484 719l70 -56l-380 -636l-70 56zM636 164q0 -173 -140 -173q-72 0 -105.5 42
t-33.5 131q0 92 33 133.5t106 41.5q70 0 105 -41t35 -134zM555 164q0 53 -14 72.5t-45 19.5t-44.5 -19t-13.5 -73t13.5 -73t44.5 -19q32 0 45.5 19t13.5 73z" />
    <glyph glyph-name="ampersand" unicode="&#x26;" horiz-adv-x="656" 
d="M647 105l-44 -114q-74 40 -146 98q-96 -101 -221 -101q-102 0 -152 57.5t-50 145.5q0 120 127 226q-61 101 -61 170q0 79 46 127t142 48q81 0 129.5 -39t48.5 -105q0 -33 -12.5 -62.5t-40.5 -59.5t-48 -47.5t-61 -49.5q60 -78 142 -150q37 69 51 139h102
q-11 -100 -73 -206q60 -45 121 -77zM255 105q65 0 123 53q-92 87 -156 171q-65 -65 -65 -127q0 -46 26 -71.5t72 -25.5zM211 587q0 -42 36 -105q50 38 75.5 66.5t26.5 59.5q0 28 -17.5 42.5t-46.5 14.5q-33 0 -53.5 -20t-20.5 -58z" />
    <glyph glyph-name="quotesingle" unicode="'" horiz-adv-x="201" 
d="M42 770h116l-22 -254h-77z" />
    <glyph glyph-name="parenleft" unicode="(" horiz-adv-x="324" 
d="M226 794l94 -7q-125 -198 -125 -456q0 -255 124 -456l-93 -8q-70 87 -108 208.5t-38 255.5q0 274 146 463z" />
    <glyph glyph-name="parenright" unicode=")" horiz-adv-x="323" 
d="M4 787l94 7q146 -191 146 -463q0 -134 -38 -255.5t-108 -208.5l-93 8q123 201 123 456q0 257 -124 456z" />
    <glyph glyph-name="asterisk" unicode="*" horiz-adv-x="352" 
d="M149 787h58l7 -104l100 26l20 -61l-98 -38l60 -89l-45 -36l-72 82l-75 -83l-47 35l60 91l-98 38l21 61l100 -26z" />
    <glyph glyph-name="plus" unicode="+" horiz-adv-x="550" 
d="M490 281h-164v-163h-106v163h-160v112h160v165h106v-165h164v-112z" />
    <glyph glyph-name="comma" unicode="," horiz-adv-x="240" 
d="M119 131q36 0 54 -20.5t18 -56.5q0 -33 -25 -93t-54 -102l-42 11l24 120q-18 8 -31.5 26.5t-13.5 40.5q0 74 70 74z" />
    <glyph glyph-name="hyphen" unicode="-" horiz-adv-x="364" 
d="M55 389h254v-92h-254v92z" />
    <glyph glyph-name="period" unicode="." horiz-adv-x="242" 
d="M194 61q0 -72 -73 -72q-38 0 -55 17t-17 55q0 72 72 72q73 0 73 -72z" />
    <glyph glyph-name="slash" unicode="/" horiz-adv-x="412" 
d="M312 790h102l-313 -912h-100z" />
    <glyph glyph-name="zero" unicode="0" horiz-adv-x="589" 
d="M544 373q0 -206 -59 -294.5t-191 -88.5q-133 0 -190.5 88t-57.5 295q0 214 57 299.5t192 85.5q133 0 191 -86t58 -299zM421 375q0 112 -14.5 171t-39.5 77.5t-72 18.5t-72.5 -19.5t-40 -78.5t-14.5 -169q0 -114 14.5 -174t40 -79t72.5 -19q46 0 71.5 19.5t40 79.5
t14.5 173z" />
    <glyph glyph-name="one" unicode="1" horiz-adv-x="589" 
d="M156 0v95h109v413l2 80l-2 2l-67 -44l-67 -41l-14 108l203 138h74v-656h108v-95h-346z" />
    <glyph glyph-name="two" unicode="2" horiz-adv-x="589" 
d="M524 550q0 -96 -71 -193.5t-217 -235.5l1 -3h288l-3 -118h-449v86q18 20 68 73t69 74t57 64.5t54 67.5t37 58t28.5 61t7.5 53q0 48 -30.5 75.5t-93.5 27.5q-86 0 -168 -67l-31 107q94 78 222 78q112 0 171.5 -55.5t59.5 -152.5z" />
    <glyph glyph-name="three" unicode="3" horiz-adv-x="589" 
d="M533 225q0 -110 -65.5 -172t-196.5 -62q-116 0 -204 53l24 105q81 -47 175 -47q72 0 108 33.5t36 93.5t-44.5 88t-153.5 28v95q102 0 144.5 27.5t42.5 84.5q0 91 -126 91q-95 0 -175 -65l-30 103q88 77 214 77q110 0 172 -51.5t62 -145.5q0 -116 -105 -164v-2
q122 -40 122 -170z" />
    <glyph glyph-name="four" unicode="4" horiz-adv-x="589" 
d="M553 153h-75v-153h-116v153h-308l-10 85l283 512h151v-486h78zM366 264l5 286l4 81l-2 1l-38 -73l-158 -295h189z" />
    <glyph glyph-name="five" unicode="5" horiz-adv-x="589" 
d="M529 258q0 -267 -250 -267q-118 0 -203 53l22 106q82 -48 168 -48q73 0 105.5 35t32.5 110q0 64 -32.5 91.5t-102.5 27.5q-81 0 -144 -29l-43 50l27 363h382l5 -117h-287l-13 -173q58 15 112 15q221 0 221 -217z" />
    <glyph glyph-name="six" unicode="6" horiz-adv-x="589" 
d="M539 262q0 -271 -238 -271q-127 0 -189 82.5t-62 281.5q0 404 296 404q85 0 153 -27l-10 -113q-60 23 -129 23q-91 0 -136 -49.5t-53 -157.5l2 -2q65 51 151 51q215 0 215 -222zM416 264q0 62 -28 90.5t-88 28.5q-32 0 -68.5 -16.5t-55.5 -41.5q1 -127 29.5 -175
t94.5 -48q116 0 116 162z" />
    <glyph glyph-name="seven" unicode="7" horiz-adv-x="589" 
d="M540 749v-108l-269 -641h-140l286 625h-363l6 124h480z" />
    <glyph glyph-name="eight" unicode="8" horiz-adv-x="589" 
d="M49 213q0 56 28.5 103.5t79.5 78.5q-83 57 -83 169q0 195 222 195t222 -195q0 -107 -89 -169q112 -56 112 -183q0 -221 -245 -221q-247 0 -247 222zM421 202q0 29 -10.5 50t-37.5 38.5t-48 26.5t-67 27q-89 -54 -89 -132q0 -63 30.5 -90.5t99.5 -27.5q122 0 122 108z
M189 559q0 -27 10 -47.5t33 -35t42 -22.5t54 -20q79 48 79 120q0 51 -27 75t-85 24q-106 0 -106 -94z" />
    <glyph glyph-name="nine" unicode="9" horiz-adv-x="589" 
d="M537 408q0 -222 -69.5 -319.5t-214.5 -97.5q-95 0 -165 33l17 108q65 -28 136 -28q88 0 129 54t46 178l-2 1q-58 -45 -147 -45q-108 0 -163.5 59t-55.5 165q0 117 59.5 180t177.5 63q252 0 252 -351zM413 453q-1 105 -33.5 149.5t-96.5 44.5q-58 0 -86.5 -30t-28.5 -95
q0 -63 29.5 -94.5t92.5 -31.5q85 0 123 57z" />
    <glyph glyph-name="colon" unicode=":" horiz-adv-x="242" 
d="M194 493q0 -72 -73 -72q-38 0 -55 17t-17 55q0 72 72 72q73 0 73 -72zM194 61q0 -72 -73 -72q-38 0 -55 17t-17 55q0 72 72 72q73 0 73 -72z" />
    <glyph glyph-name="semicolon" unicode=";" horiz-adv-x="245" 
d="M196 493q0 -72 -73 -72q-38 0 -55 17t-17 55q0 72 72 72q73 0 73 -72zM122 131q36 0 54 -20.5t18 -56.5q0 -33 -25 -93t-54 -102l-42 11l24 120q-18 8 -31.5 26.5t-13.5 40.5q0 74 70 74z" />
    <glyph glyph-name="less" unicode="&#x3c;" horiz-adv-x="550" 
d="M470 459l-176 -89l-72 -34v-3l72 -35l177 -89v-121l-391 214v63l390 220v-126z" />
    <glyph glyph-name="equal" unicode="=" horiz-adv-x="550" 
d="M480 375h-410v97h410v-97zM480 189h-410v97h410v-97z" />
    <glyph glyph-name="greater" unicode="&#x3e;" horiz-adv-x="550" 
d="M80 88v121l176 88l73 35v3l-73 34l-176 90v126l391 -220v-63z" />
    <glyph glyph-name="question" unicode="?" horiz-adv-x="463" 
d="M430 581q0 -147 -158 -245l-6 -129h-92l-7 173q72 49 106.5 89t34.5 92q0 84 -99 84q-83 0 -143 -57l-42 99q75 73 203 73q100 0 151.5 -47t51.5 -132zM291 55q0 -66 -71 -66q-36 0 -53.5 15.5t-17.5 50.5q0 67 71 67t71 -67z" />
    <glyph glyph-name="at" unicode="@" horiz-adv-x="821" 
d="M422 577q57 0 82 -40h3l14 34l65 -4l-42 -265q-3 -18 -3 -35q0 -72 58 -72q50 0 80.5 53t30.5 160q0 140 -71 225t-204 85q-157 0 -240 -106.5t-83 -270.5q0 -169 81 -273t243 -104q172 0 274 95l28 -64q-115 -102 -302 -102q-189 0 -292.5 119t-103.5 329q0 91 26 172
t74.5 143t124.5 98t171 36q158 0 251.5 -106t93.5 -276q0 -148 -55 -222.5t-137 -74.5q-87 0 -112 72l-3 1q-48 -73 -131 -73q-59 0 -94.5 45t-35.5 131q0 117 61 203.5t148 86.5zM454 310l23 150q-13 29 -50 29q-48 0 -82 -61t-34 -139q0 -86 59 -86q31 0 54.5 29.5
t29.5 77.5z" />
    <glyph glyph-name="A" unicode="A" horiz-adv-x="654" 
d="M499 0l-44 163h-264l-44 -163h-136l236 750h157l239 -750h-144zM324 651l-20 -79l-82 -295h203l-79 295l-19 79h-3z" />
    <glyph glyph-name="B" unicode="B" horiz-adv-x="626" 
d="M580 216q0 -216 -239 -216h-266v750h261q219 0 219 -189q0 -122 -96 -162v-2q121 -36 121 -181zM451 225q0 58 -26.5 83.5t-85.5 25.5h-140v-221h145q55 0 81 25t26 87zM431 537q0 54 -23 76t-76 22h-132v-198h135q50 0 73 24t23 76z" />
    <glyph glyph-name="C" unicode="C" horiz-adv-x="544" 
d="M510 732l-13 -117q-61 26 -135 26q-99 0 -139.5 -56t-40.5 -204q0 -157 41 -216t142 -59q71 0 134 30l14 -111q-73 -38 -166 -38q-155 0 -227.5 94.5t-72.5 299.5q0 196 74.5 289t232.5 93q89 0 156 -31z" />
    <glyph glyph-name="D" unicode="D" horiz-adv-x="666" 
d="M620 379q0 -203 -73 -291t-228 -88h-244v750h241q162 0 233 -85.5t71 -285.5zM485 380q0 148 -37 198t-132 50h-112v-508h113q63 0 97 19t52.5 76.5t18.5 164.5z" />
    <glyph glyph-name="E" unicode="E" horiz-adv-x="560" 
d="M203 119h322l-3 -119h-447v750h433l2 -120h-307v-187h261v-110h-261v-214z" />
    <glyph glyph-name="F" unicode="F" horiz-adv-x="534" 
d="M510 627h-306v-197h255l-1 -117h-254v-313h-129v750h432z" />
    <glyph glyph-name="G" unicode="G" horiz-adv-x="616" 
d="M565 403v-376q-83 -40 -203 -40q-167 0 -241 92.5t-74 294.5q0 203 76.5 295.5t243.5 92.5q105 0 184 -34l-13 -117q-75 32 -164 32q-108 0 -150 -56.5t-42 -211.5q0 -154 39 -210.5t138 -56.5q52 0 91 13v282h115z" />
    <glyph glyph-name="H" unicode="H" horiz-adv-x="677" 
d="M602 0h-129v326h-269v-326h-129v750h129v-303h269v303h129v-750z" />
    <glyph glyph-name="I" unicode="I" horiz-adv-x="303" 
d="M86 0v750h131v-750h-131z" />
    <glyph glyph-name="J" unicode="J" horiz-adv-x="495" 
d="M420 750v-499q0 -138 -65 -201t-189 -63q-82 0 -136 32l8 115q43 -28 108 -28q71 0 106.5 35.5t35.5 112.5v496h132z" />
    <glyph glyph-name="K" unicode="K" horiz-adv-x="645" 
d="M628 0h-155l-189 332h-80v-332h-129v750h128v-308h84l182 308h147l-213 -356z" />
    <glyph glyph-name="L" unicode="L" horiz-adv-x="515" 
d="M205 122h292l-4 -122h-418v750h130v-628z" />
    <glyph glyph-name="M" unicode="M" horiz-adv-x="834" 
d="M75 750h144l170 -476l26 -76h3l25 76l172 476h144v-750h-117v431l2 81l-3 1l-26 -77l-157 -436h-87l-156 432l-26 77l-2 -1l1 -81v-427h-113v750z" />
    <glyph glyph-name="N" unicode="N" horiz-adv-x="682" 
d="M607 0h-93l-283 455l-41 70l-2 -1l1 -81v-443h-114v750h113l264 -436l41 -69l2 1l-2 80v424h114v-750z" />
    <glyph glyph-name="O" unicode="O" horiz-adv-x="676" 
d="M629 375q0 -212 -67 -300t-224 -88q-154 0 -222.5 90t-68.5 298q0 209 67.5 298t223.5 89t223.5 -89t67.5 -298zM494 375q0 158 -33.5 211.5t-122.5 53.5q-60 0 -92 -21t-48 -78.5t-16 -165.5t16 -165.5t48 -79t92 -21.5q89 0 122.5 54t33.5 212z" />
    <glyph glyph-name="P" unicode="P" horiz-adv-x="600" 
d="M566 506q0 -122 -60.5 -180.5t-196.5 -58.5h-105v-267h-129v750h234q136 0 196.5 -57.5t60.5 -186.5zM434 507q0 73 -28 101t-97 28h-106v-260h106q68 0 96.5 27.5t28.5 103.5z" />
    <glyph glyph-name="Q" unicode="Q" horiz-adv-x="676" 
d="M629 375q0 -174 -44.5 -262.5t-144.5 -111.5l137 -110l-146 -41l-111 137q-144 5 -208.5 95.5t-64.5 292.5q0 209 67.5 298t223.5 89t223.5 -89t67.5 -298zM494 375q0 158 -33.5 211.5t-122.5 53.5q-60 0 -92 -21t-48 -78.5t-16 -165.5t16 -165.5t48 -79t92 -21.5
q89 0 122.5 54t33.5 212z" />
    <glyph glyph-name="R" unicode="R" horiz-adv-x="611" 
d="M554 527q0 -169 -123 -200l167 -327h-149l-135 302h-110v-302h-129v750h236q124 0 183.5 -54t59.5 -169zM421 522q0 64 -25 89t-83 25h-109v-231h106q60 0 85.5 25t25.5 92z" />
    <glyph glyph-name="S" unicode="S" horiz-adv-x="520" 
d="M490 217q0 -109 -64.5 -169.5t-181.5 -60.5q-116 0 -204 53l18 117q88 -52 183 -52q125 0 125 104q0 29 -18 51t-46 36.5t-62.5 28t-69 31.5t-62.5 40.5t-46 60.5t-18 88q0 97 60 157t178 60q104 0 184 -37l-16 -114q-88 31 -160 31q-122 0 -122 -91q0 -32 24 -56
t59.5 -37t77.5 -32.5t77.5 -42t59.5 -65.5t24 -101z" />
    <glyph glyph-name="T" unicode="T" horiz-adv-x="537" 
d="M524 627h-191v-627h-130v627h-190l3 123h505z" />
    <glyph glyph-name="U" unicode="U" horiz-adv-x="662" 
d="M598 750v-496q0 -267 -266 -267q-268 0 -268 267v496h129v-494q0 -76 33.5 -111t105.5 -35t105 34.5t33 111.5v494h128z" />
    <glyph glyph-name="V" unicode="V" horiz-adv-x="636" 
d="M490 750h133l-231 -750h-149l-231 750h142l146 -544l20 -78h3l19 78z" />
    <glyph glyph-name="W" unicode="W" horiz-adv-x="929" 
d="M397 750h139l107 -541l15 -79h3l12 80l95 540h128l-160 -750h-155l-102 537l-13 81h-3l-14 -81l-101 -537h-155l-160 750h133l94 -543l13 -80h3l14 79z" />
    <glyph glyph-name="X" unicode="X" horiz-adv-x="638" 
d="M603 750l-192 -359l202 -391h-146l-114 238l-32 74h-3l-33 -74l-111 -238h-149l199 388l-193 362h151l102 -210l34 -73h3l33 73l103 210h146z" />
    <glyph glyph-name="Y" unicode="Y" horiz-adv-x="620" 
d="M12 750h145l127 -310l29 -75h3l28 75l123 310h140l-229 -507v-243h-132v243z" />
    <glyph glyph-name="Z" unicode="Z" horiz-adv-x="558" 
d="M514 0h-478v89l286 471l44 66l-2 2h-320l5 122h467v-99l-280 -461l-43 -65l1 -3h323z" />
    <glyph glyph-name="bracketleft" unicode="[" horiz-adv-x="316" 
d="M80 -129v920h232v-90h-124v-742h124v-88h-232z" />
    <glyph glyph-name="backslash" unicode="\" horiz-adv-x="348" 
d="M-3 790h97l270 -912h-96z" />
    <glyph glyph-name="bracketright" unicode="]" horiz-adv-x="316" 
d="M237 791v-920h-233v88h124v742h-124v90h233z" />
    <glyph glyph-name="asciicircum" unicode="^" horiz-adv-x="589" 
d="M440 474l-145 234l-144 -234h-99l203 331h81l200 -331h-96z" />
    <glyph glyph-name="underscore" unicode="_" horiz-adv-x="393" 
d="M18 -41h360v-76h-360v76z" />
    <glyph glyph-name="grave" unicode="`" 
d="M283 661h-91l-106 142h138z" />
    <glyph glyph-name="a" unicode="a" horiz-adv-x="529" 
d="M380 0l-10 63l-3 1q-52 -73 -153 -73q-81 0 -126.5 48.5t-45.5 147.5q0 86 52 135.5t147 49.5q61 0 112 -18v49q0 57 -27 81t-88 24q-78 0 -152 -34l-10 101q79 38 183 38q115 0 163.5 -53t48.5 -175v-385h-91zM353 174v94q-30 17 -90 17q-108 0 -108 -97t91 -97
q42 0 74.5 25t32.5 58z" />
    <glyph glyph-name="b" unicode="b" horiz-adv-x="577" 
d="M539 303q0 -165 -56.5 -240t-164.5 -75q-98 0 -149 66l-3 -1l-17 -53h-79v786l119 7v-155l-2 -80l3 -2q58 56 142 56q100 0 153.5 -72t53.5 -237zM416 301q0 121 -28 162t-90 41q-74 0 -109 -58v-296q34 -60 110 -60q60 0 88.5 44t28.5 167z" />
    <glyph glyph-name="c" unicode="c" horiz-adv-x="451" 
d="M415 586l-7 -107q-48 20 -99 20q-82 0 -115 -43.5t-33 -152.5q0 -111 36 -159.5t109 -48.5q59 0 105 26l9 -98q-51 -35 -138 -35q-123 0 -183.5 76t-60.5 239q0 156 59.5 232.5t186.5 76.5q72 0 131 -26z" />
    <glyph glyph-name="d" unicode="d" horiz-adv-x="575" 
d="M507 0h-92l-13 54l-3 1q-51 -67 -151 -67q-108 0 -159 75.5t-51 240.5q0 309 208 309q86 0 142 -57l2 1l-2 80v149l119 7v-793zM388 150v298q-31 53 -107 53q-67 0 -93.5 -44t-26.5 -158q0 -120 25.5 -164t93.5 -44q78 0 108 59z" />
    <glyph glyph-name="e" unicode="e" horiz-adv-x="533" 
d="M305 -11q-139 0 -203 78.5t-64 245.5q0 299 236 299q223 0 223 -277q0 -25 -4 -61h-332q4 -98 40.5 -137t118.5 -39q75 0 146 31l13 -101q-73 -39 -174 -39zM159 358h227q-1 150 -111 150q-59 0 -85.5 -34.5t-30.5 -115.5z" />
    <glyph glyph-name="f" unicode="f" horiz-adv-x="368" 
d="M217 0h-119v509h-74v94h73v30q0 74 47 119t139 45q48 0 86 -12l-7 -83q-30 7 -55 7q-90 0 -90 -80v-26h126v-94h-126v-509z" />
    <glyph glyph-name="g" unicode="g" horiz-adv-x="532" 
d="M261 251q-40 0 -72 7q-28 -12 -28 -36q0 -29 43 -33l129 -12q95 -9 136.5 -44.5t41.5 -104.5q0 -185 -245 -185q-111 0 -165.5 42t-54.5 114q0 63 50 105q-47 30 -47 85q0 65 70 99q-64 44 -64 142q0 182 205 182q85 0 135 -33l95 36l27 -60l-64 -51q11 -33 11 -74
q0 -90 -48.5 -134.5t-154.5 -44.5zM311 71l-127 12q-35 -28 -35 -67q0 -78 115 -78q78 0 108 18.5t30 54.5q0 28 -19 41.5t-72 18.5zM261 518q-48 0 -68 -21.5t-20 -68.5q0 -51 22 -70.5t64 -19.5q51 0 70.5 20.5t19.5 69.5q0 50 -20.5 70t-67.5 20z" />
    <glyph glyph-name="h" unicode="h" horiz-adv-x="575" 
d="M516 0h-119v403q0 100 -101 100q-35 0 -64 -15t-43 -39v-449h-119v786l119 7v-152l-2 -80l3 -2q56 55 143 55t135 -55t48 -156v-403z" />
    <glyph glyph-name="i" unicode="i" horiz-adv-x="291" 
d="M206 0h-122v599l122 6v-605zM216 740q0 -57 -70 -57q-37 0 -54.5 13t-17.5 44q0 59 72 59q70 0 70 -59z" />
    <glyph glyph-name="j" unicode="j" horiz-adv-x="290" 
d="M206 605v-606q0 -156 -150 -156q-40 0 -72 13l6 87q21 -7 37 -7q60 0 60 66v597zM215 742q0 -59 -71 -59q-37 0 -54 13.5t-17 45.5q0 59 71 59t71 -59z" />
    <glyph glyph-name="k" unicode="k" horiz-adv-x="551" 
d="M189 793v-418h76l133 228h133l-162 -275l168 -328h-134l-137 272h-77v-272h-119v786z" />
    <glyph glyph-name="l" unicode="l" horiz-adv-x="278" 
d="M199 0h-120v786l120 7v-793z" />
    <glyph glyph-name="m" unicode="m" horiz-adv-x="852" 
d="M794 0h-119v404q0 98 -95 98q-40 0 -65.5 -23.5t-25.5 -68.5v-410h-119v410q0 92 -90 92q-29 0 -55.5 -14t-39.5 -38v-450h-119v600l86 6l19 -57q58 64 142 64q105 0 145 -82h2q48 82 153 82q83 0 132 -53t49 -155v-405z" />
    <glyph glyph-name="n" unicode="n" horiz-adv-x="571" 
d="M512 0h-119v402q0 101 -102 101q-31 0 -61 -14.5t-45 -38.5v-450h-119v600l86 6l18 -54q63 61 155 61q88 0 137.5 -54t49.5 -156v-403z" />
    <glyph glyph-name="o" unicode="o" horiz-adv-x="566" 
d="M528 299q0 -170 -57.5 -241t-186.5 -71t-187.5 71.5t-58.5 240.5t58.5 241.5t187.5 72.5t186.5 -72t57.5 -242zM161 299q0 -121 27.5 -165.5t95.5 -44.5q67 0 93.5 44t26.5 166t-26.5 166t-93.5 44q-68 0 -95.5 -44t-27.5 -166z" />
    <glyph glyph-name="p" unicode="p" horiz-adv-x="572" 
d="M534 302q0 -158 -55.5 -235t-157.5 -77q-86 0 -134 52l-2 -1l1 -81v-107h-120v747l84 5l22 -54q61 61 154 61q105 0 156.5 -69.5t51.5 -240.5zM411 305q0 114 -27 155.5t-89 41.5q-73 0 -109 -57v-291q33 -60 105 -60q60 0 90 44.5t30 166.5z" />
    <glyph glyph-name="q" unicode="q" horiz-adv-x="573" 
d="M506 -147l-119 -1v105l2 81l-2 1q-53 -48 -135 -48q-214 0 -214 309q0 159 54 235.5t165 76.5q103 0 155 -66h3l14 56h77v-749zM387 158v289q-13 23 -41.5 38t-64.5 15q-68 0 -94 -41t-26 -159q0 -114 28 -158.5t93 -44.5q43 0 71 18t34 43z" />
    <glyph glyph-name="r" unicode="r" horiz-adv-x="414" 
d="M185 0h-119v599l95 5l10 -108h3q52 116 158 116q33 0 57 -8l-8 -124q-27 8 -56 8q-61 0 -100.5 -47.5t-39.5 -128.5v-312z" />
    <glyph glyph-name="s" unicode="s" horiz-adv-x="451" 
d="M417 181q0 -193 -204 -193q-102 0 -168 42l12 105q66 -43 154 -43q96 0 96 79q0 31 -27.5 51.5t-66.5 34t-77.5 31t-66 54.5t-27.5 94q0 80 52 128t151 48q82 0 150 -31l-9 -103q-69 29 -141 29q-42 0 -65.5 -17.5t-23.5 -47.5t27 -49t65 -31.5t76.5 -30t65.5 -55.5
t27 -95z" />
    <glyph glyph-name="t" unicode="t" horiz-adv-x="363" 
d="M339 508h-129v-345q0 -72 72 -72q26 0 44 7l7 -92q-28 -15 -86 -15q-156 0 -156 169v348h-67v95h72l21 140l93 10v-150h129v-95z" />
    <glyph glyph-name="u" unicode="u" horiz-adv-x="564" 
d="M505 603v-405q0 -209 -223 -209t-223 209v405h119v-403q0 -100 104 -100t104 100v403h119z" />
    <glyph glyph-name="v" unicode="v" horiz-adv-x="587" 
d="M434 603h130l-200 -603h-142l-200 603h131l118 -415l21 -78h3l20 78z" />
    <glyph glyph-name="w" unicode="w" horiz-adv-x="807" 
d="M343 603h126l84 -420l15 -79h3l11 80l72 419h117l-126 -603h-147l-75 396l-13 81h-3l-14 -81l-76 -396h-146l-134 603h119l76 -419l13 -80h3l13 80z" />
    <glyph glyph-name="x" unicode="x" horiz-adv-x="559" 
d="M394 0l-84 176l-33 74h-3l-33 -74l-82 -176h-131l168 305l-165 298h138l80 -167l33 -73h3l32 74l77 166h133l-160 -295l165 -308h-138z" />
    <glyph glyph-name="y" unicode="y" horiz-adv-x="588" 
d="M166 -67q63 0 89 64l3 9l-236 597h137l132 -401l24 -77h3l18 78l103 400h127l-191 -601q-28 -86 -74 -123.5t-115 -37.5q-50 0 -90 17l11 89q28 -14 59 -14z" />
    <glyph glyph-name="z" unicode="z" horiz-adv-x="489" 
d="M441 515l-219 -344l-44 -64l1 -3h269l-4 -104h-399v88l217 341l44 66l-1 2h-252l4 106h384v-88z" />
    <glyph glyph-name="braceleft" unicode="{" horiz-adv-x="356" 
d="M250 437q0 -71 -53 -104q53 -33 53 -103q0 -36 -6 -94t-6 -90q0 -37 21 -59t65 -22h28v-94h-22q-108 0 -154.5 41t-46.5 119q0 34 7.5 100t7.5 100q0 30 -17.5 51t-46.5 27v49q29 7 46.5 28t17.5 51q0 33 -7.5 99t-7.5 100q0 78 46.5 119t154.5 41h22v-94h-28
q-44 0 -65 -21.5t-21 -58.5q0 -32 6 -90.5t6 -94.5z" />
    <glyph glyph-name="bar" unicode="|" horiz-adv-x="270" 
d="M89 -174v986h92v-986h-92z" />
    <glyph glyph-name="braceright" unicode="}" horiz-adv-x="356" 
d="M106 230q0 71 54 103q-54 33 -54 104q0 36 6.5 94.5t6.5 90.5q0 36 -21.5 58t-65.5 22h-28v94h22q108 0 154.5 -41t46.5 -119q0 -34 -7.5 -100t-7.5 -99q0 -30 17.5 -51t47.5 -28v-49q-29 -6 -47 -27t-18 -51q0 -34 7.5 -100t7.5 -100q0 -78 -46.5 -119t-154.5 -41h-22
v94h28q44 0 65.5 22t21.5 59q0 32 -6.5 90t-6.5 94z" />
    <glyph glyph-name="asciitilde" unicode="~" horiz-adv-x="589" 
d="M141 615l-69 -1q10 165 128 165q38 0 100 -32.5t88 -32.5q48 0 60 52l69 1q-11 -165 -128 -165q-38 0 -99 32.5t-86 32.5q-50 0 -63 -52z" />
    <glyph glyph-name="uni00A0" unicode="&#xa0;" horiz-adv-x="258" 
 />
    <glyph glyph-name="exclamdown" unicode="&#xa1;" horiz-adv-x="276" 
d="M92 456h94l15 -588h-125zM66 601q0 65 71 65t71 -65q0 -67 -71 -67t-71 67z" />
    <glyph glyph-name="cent" unicode="&#xa2;" horiz-adv-x="589" 
d="M466 586l-7 -107q-48 20 -99 20q-82 0 -115 -43.5t-33 -152.5q0 -111 36 -159.5t109 -48.5q59 0 105 26l9 -98q-42 -28 -109 -34l-7 -122h-92l7 127q-91 17 -136 92.5t-45 216.5q0 142 49.5 218t153.5 88l8 119h92l-9 -120q46 -6 83 -22z" />
    <glyph glyph-name="sterling" unicode="&#xa3;" horiz-adv-x="589" 
d="M72 323l-5 98h49q-27 81 -27 131q0 93 62.5 151.5t194.5 58.5q90 0 165 -32l-15 -114q-61 27 -135 27t-109 -29.5t-35 -80.5q0 -39 21 -112h224v-98h-202q5 -33 5 -64q0 -101 -71 -148l2 -3q68 18 178 18q83 0 173 -11l-7 -122q-120 14 -221 14q-126 0 -258 -12l-7 117
q42 12 67.5 51.5t25.5 89.5q0 39 -6 70h-69z" />
    <glyph glyph-name="currency" unicode="&#xa4;" horiz-adv-x="589" 
d="M122 355q0 48 23 88l-63 65l62 68l66 -68q38 22 84 22q45 0 84 -22l67 68l62 -68l-64 -66q23 -43 23 -87t-20 -82l61 -62l-63 -68l-61 62q-41 -25 -89 -25q-49 0 -90 25l-61 -62l-62 68l60 62q-19 40 -19 82zM199 357q0 -38 27.5 -64.5t66.5 -26.5q40 0 67.5 26.5
t27.5 64.5q0 37 -27.5 63.5t-67.5 26.5q-39 0 -66.5 -26.5t-27.5 -63.5z" />
    <glyph glyph-name="yen" unicode="&#xa5;" horiz-adv-x="589" 
d="M110 346h88l-173 404h141l106 -335l23 -77h3l22 77l105 335h138l-168 -404h91v-79h-121v-45h121v-78h-121v-144h-135v144h-120v78h120v45h-120v79z" />
    <glyph glyph-name="brokenbar" unicode="&#xa6;" horiz-adv-x="270" 
d="M89 378v434h92v-434h-92zM89 -160v433h92v-433h-92z" />
    <glyph glyph-name="section" unicode="&#xa7;" horiz-adv-x="515" 
d="M47 342q0 97 84 149q-70 56 -70 124q0 82 55 126t158 44q108 0 176 -41l-10 -95q-78 37 -158 37q-47 0 -72.5 -17.5t-25.5 -48.5q0 -23 22 -44t55.5 -36.5t72 -38.5t72 -47t55.5 -64t22 -88q0 -98 -85 -150q70 -58 70 -124q0 -81 -55 -125t-158 -44q-107 0 -175 41l10 95
q74 -37 158 -37q47 0 72.5 17t25.5 49q0 23 -22 44t-55.5 36.5t-72 38.5t-72 47t-55.5 64t-22 88zM368 290q0 21 -9.5 39.5t-33 37t-40.5 29t-53 31.5l-11 6q-59 -25 -59 -79q0 -22 10.5 -41t36.5 -39t43 -30.5t56 -32.5q60 25 60 79z" />
    <glyph glyph-name="dieresis" unicode="&#xa8;" 
d="M163 742q0 -56 -54 -56t-54 56q0 57 54 57t54 -57zM325 742q0 -56 -54 -56t-54 56q0 57 54 57t54 -57z" />
    <glyph glyph-name="copyright" unicode="&#xa9;" horiz-adv-x="879" 
d="M47 379q0 162 115 276.5t278 114.5q162 0 276.5 -114.5t114.5 -276.5q0 -163 -114.5 -277.5t-276.5 -114.5q-163 0 -278 114.5t-115 277.5zM111 378q0 -133 95.5 -229.5t232.5 -96.5t233.5 95.5t96.5 230.5q0 132 -96.5 227t-233.5 95t-232.5 -94.5t-95.5 -227.5z
M602 584q-2 -15 -5 -45.5t-5 -45.5q-49 28 -116 28q-77 0 -120 -39.5t-43 -103.5q0 -67 44 -106.5t122 -39.5q64 0 122 33l12 -88q-74 -60 -167 -60q-112 0 -184 74.5t-72 186.5q0 106 70 180.5t186 74.5q94 0 156 -49z" />
    <glyph glyph-name="ordfeminine" unicode="&#xaa;" horiz-adv-x="399" 
d="M276 354l-9 43l-3 1q-35 -50 -103 -50q-59 0 -92.5 37.5t-33.5 112.5q0 66 38.5 104.5t105.5 38.5q40 0 74 -13v31q0 37 -18 52t-61 15q-56 0 -105 -23l-8 89q66 28 133 28q87 0 123.5 -41t36.5 -136v-289h-78zM253 490v64q-18 10 -54 10q-67 0 -67 -64t57 -64
q26 0 45 16t19 38z" />
    <glyph glyph-name="guillemotleft" unicode="&#xab;" horiz-adv-x="595" 
d="M527 426l-166 -106l166 -105v-97l-285 198v9l285 198v-97zM308 426l-166 -106l166 -105v-97l-285 198v9l285 198v-97z" />
    <glyph glyph-name="logicalnot" unicode="&#xac;" horiz-adv-x="589" 
d="M399 286h-306v106h404v-249h-98v143z" />
    <glyph glyph-name="uni00AD" unicode="&#xad;" horiz-adv-x="364" 
d="M55 389h254v-92h-254v92z" />
    <glyph glyph-name="registered" unicode="&#xae;" horiz-adv-x="424" 
d="M34 651q0 75 52.5 128t126.5 53t126 -53t52 -128q0 -74 -52.5 -127.5t-125.5 -53.5q-74 0 -126.5 53.5t-52.5 127.5zM69 651q0 -59 42.5 -101.5t101.5 -42.5t101 42.5t42 101.5q0 60 -42 102t-101 42t-101.5 -42t-42.5 -102zM300 690q0 -41 -34 -54l39 -81h-54l-32 74
h-33v-74h-51v199h85q80 0 80 -64zM251 687q0 25 -30 25h-35v-49h38q27 0 27 24z" />
    <glyph glyph-name="macron" unicode="&#xaf;" 
d="M332 774v-77h-282v77h282z" />
    <glyph glyph-name="degree" unicode="&#xb0;" horiz-adv-x="334" 
d="M36 684q0 56 38 94.5t93 38.5t92.5 -38.5t37.5 -94.5q0 -55 -38 -94t-92 -39q-55 0 -93 39t-38 94zM92 684q0 -31 21.5 -52t53.5 -21t53.5 21t21.5 52q0 32 -21.5 53t-53.5 21q-33 0 -54 -21.5t-21 -52.5z" />
    <glyph glyph-name="plusminus" unicode="&#xb1;" horiz-adv-x="589" 
d="M505 332h-159v-147h-106v147h-156v106h156v153h106v-153h159v-106zM503 56h-419v93h419v-93z" />
    <glyph glyph-name="twosuperior" unicode="&#xb2;" horiz-adv-x="335" 
d="M304 774q0 -50 -38 -95.5t-119 -109.5v-3h157l-1 -75h-266v57q13 13 39.5 38t38.5 37l31.5 31.5t28.5 31.5t19.5 27.5t14.5 28t4 24.5q0 48 -61 48q-47 0 -97 -35l-21 71q57 40 134 40q67 0 101.5 -31t34.5 -85z" />
    <glyph glyph-name="threesuperior" unicode="&#xb3;" horiz-adv-x="335" 
d="M307 609q0 -123 -154 -123q-72 0 -122 30l18 68q49 -27 103 -27q71 0 71 56q0 27 -22.5 39.5t-83.5 12.5v61q57 0 79 12t22 38q0 41 -64 41q-59 0 -103 -34l-20 66q53 41 128 41q66 0 103 -28t37 -80q0 -60 -57 -84v-2q65 -22 65 -87z" />
    <glyph glyph-name="acute" unicode="&#xb4;" 
d="M201 803h138l-108 -142h-90z" />
    <glyph glyph-name="mu" unicode="&#xb5;" horiz-adv-x="570" 
d="M296 -10q-87 0 -126 69l-2 -1q5 -119 13 -203l-115 -9v757h119v-405q0 -45 29.5 -71.5t77.5 -26.5q46 0 73.5 22.5t27.5 66.5v414h119v-600l-84 -8l-15 46h-3q-38 -51 -114 -51z" />
    <glyph glyph-name="paragraph" unicode="&#xb6;" horiz-adv-x="630" 
d="M273 -152h-104v642q-65 2 -103.5 37t-38.5 98q0 55 39 90t108 35h418l-4 -99h-70v-803h-105v803h-140v-803z" />
    <glyph glyph-name="periodcentered" unicode="&#xb7;" horiz-adv-x="268" 
d="M207 345q0 -72 -73 -72q-38 0 -55 17t-17 55q0 72 72 72q73 0 73 -72z" />
    <glyph glyph-name="cedilla" unicode="&#xb8;" 
d="M109 -187l64 197l79 1l-33 -198h-110z" />
    <glyph glyph-name="onesuperior" unicode="&#xb9;" horiz-adv-x="256" 
d="M203 886v-395h-88v209l3 79l-3 1l-73 -44l-8 72l115 78h54z" />
    <glyph glyph-name="ordmasculine" unicode="&#xba;" horiz-adv-x="432" 
d="M395 584q0 -129 -41.5 -182t-136.5 -53t-137.5 53t-42.5 182q0 128 43 182t137 54t136 -53.5t42 -182.5zM142 584q0 -87 16.5 -117t58.5 -30t58 30t16 117t-16 116t-58 29q-43 0 -59 -29t-16 -116z" />
    <glyph glyph-name="guillemotright" unicode="&#xbb;" horiz-adv-x="595" 
d="M278 118v97l165 105l-165 106v97l285 -198v-9zM58 118v97l165 105l-165 106v97l285 -198v-9z" />
    <glyph glyph-name="onequarter" unicode="&#xbc;" horiz-adv-x="812" 
d="M267 751v-395h-88v209l3 79l-3 1l-73 -44l-8 72l115 78h54zM758 76h-38v-76h-81v76h-184l-7 52l167 266h105v-247h40zM642 147l2 87l5 80h-3l-61 -99l-43 -65l1 -3h99zM600 750h87l-466 -750h-86z" />
    <glyph glyph-name="onehalf" unicode="&#xbd;" horiz-adv-x="812" 
d="M585 750h87l-466 -750h-86zM757 283q0 -50 -38 -95.5t-119 -109.5v-3h157l-1 -75h-266v57q13 13 39.5 38t38.5 37l31.5 31.5t28.5 31.5t19.5 27.5t14.5 28t4 24.5q0 48 -61 48q-47 0 -97 -35l-21 71q57 40 134 40q67 0 101.5 -31t34.5 -85zM265 751v-395h-88v209l3 79
l-3 1l-73 -44l-8 72l115 78h54z" />
    <glyph glyph-name="threequarters" unicode="&#xbe;" horiz-adv-x="812" 
d="M733 76h-38v-76h-81v76h-184l-7 52l167 266h105v-247h40zM617 147l2 87l5 80h-3l-61 -99l-43 -65l1 -3h99zM596 750h87l-466 -750h-86zM331 474q0 -123 -154 -123q-72 0 -122 30l18 68q49 -27 103 -27q71 0 71 56q0 27 -22.5 39.5t-83.5 12.5v61q57 0 79 12t22 38
q0 41 -64 41q-59 0 -103 -34l-20 66q53 41 128 41q66 0 103 -28t37 -80q0 -60 -57 -84v-2q65 -22 65 -87z" />
    <glyph glyph-name="questiondown" unicode="&#xbf;" horiz-adv-x="443" 
d="M32 79q0 147 158 245l6 129h92l7 -172q-73 -49 -107.5 -89.5t-34.5 -91.5q0 -84 99 -84q82 0 144 57l42 -99q-34 -33 -88 -53.5t-115 -20.5q-100 0 -151.5 47t-51.5 132zM171 606q0 65 71 65t71 -65q0 -67 -71 -67t-71 67z" />
    <glyph glyph-name="Agrave" unicode="&#xc0;" horiz-adv-x="654" 
d="M499 0l-44 163h-264l-44 -163h-136l236 750h157l239 -750h-144zM324 651l-20 -79l-82 -295h203l-79 295l-19 79h-3zM389 795h-97l-117 115h144z" />
    <glyph glyph-name="Aacute" unicode="&#xc1;" horiz-adv-x="654" 
d="M499 0l-44 163h-264l-44 -163h-136l236 750h157l239 -750h-144zM324 651l-20 -79l-82 -295h203l-79 295l-19 79h-3zM326 909h155l-124 -115h-97z" />
    <glyph glyph-name="Acircumflex" unicode="&#xc2;" horiz-adv-x="654" 
d="M499 0l-44 163h-264l-44 -163h-136l236 750h157l239 -750h-144zM324 651l-20 -79l-82 -295h203l-79 295l-19 79h-3zM261 909h126l103 -115h-108l-57 63l-57 -63h-106z" />
    <glyph glyph-name="Atilde" unicode="&#xc3;" horiz-adv-x="654" 
d="M499 0l-44 163h-264l-44 -163h-136l236 750h157l239 -750h-144zM324 651l-20 -79l-82 -295h203l-79 295l-19 79h-3zM232 799h-57q3 50 26.5 80.5t63.5 30.5q33 0 73.5 -24.5t53.5 -24.5q26 0 33 37l54 -1q-3 -50 -27.5 -80t-63.5 -30q-32 0 -71 24.5t-52 24.5
q-26 0 -33 -37z" />
    <glyph glyph-name="Adieresis" unicode="&#xc4;" horiz-adv-x="654" 
d="M499 0l-44 163h-264l-44 -163h-136l236 750h157l239 -750h-144zM324 651l-20 -79l-82 -295h203l-79 295l-19 79h-3zM288 849q0 -53 -53 -53t-53 53q0 54 53 54t53 -54zM469 849q0 -53 -54 -53q-53 0 -53 53q0 54 53 54q54 0 54 -54z" />
    <glyph glyph-name="Aring" unicode="&#xc5;" horiz-adv-x="654" 
d="M213 801q0 89 110 89q112 0 112 -89q0 -45 -26 -67l234 -734h-144l-44 163h-264l-44 -163h-136l230 732q-28 21 -28 69zM324 651l-20 -79l-82 -295h203l-79 295l-19 79h-3zM278 797q0 -34 48 -34q46 0 46 34q0 36 -46 36q-48 0 -48 -36z" />
    <glyph glyph-name="AE" unicode="&#xc6;" horiz-adv-x="954" 
d="M908 630h-315l13 -187h250v-110h-243l15 -214h290l-3 -119h-408l-11 163h-248l-71 -163h-150l363 750h515zM463 661l-31 -75l-135 -310h192l-20 303l-3 81z" />
    <glyph glyph-name="Ccedilla" unicode="&#xc7;" horiz-adv-x="544" 
d="M242 -187l57 177q-129 13 -190.5 107.5t-61.5 283.5q0 196 74.5 289t232.5 93q89 0 156 -31l-13 -117q-61 26 -135 26q-99 0 -139.5 -56t-40.5 -204q0 -157 41 -216t142 -59q71 0 134 30l14 -111q-53 -28 -132 -36l-29 -176h-110z" />
    <glyph glyph-name="Egrave" unicode="&#xc8;" horiz-adv-x="560" 
d="M203 119h322l-3 -119h-447v750h433l2 -120h-307v-187h261v-110h-261v-214zM363 795h-97l-117 115h144z" />
    <glyph glyph-name="Eacute" unicode="&#xc9;" horiz-adv-x="560" 
d="M203 119h322l-3 -119h-447v750h433l2 -120h-307v-187h261v-110h-261v-214zM300 909h155l-124 -115h-97z" />
    <glyph glyph-name="Ecircumflex" unicode="&#xca;" horiz-adv-x="560" 
d="M203 119h322l-3 -119h-447v750h433l2 -120h-307v-187h261v-110h-261v-214zM235 909h126l103 -115h-108l-57 63l-57 -63h-106z" />
    <glyph glyph-name="Edieresis" unicode="&#xcb;" horiz-adv-x="560" 
d="M203 119h322l-3 -119h-447v750h433l2 -120h-307v-187h261v-110h-261v-214zM262 849q0 -53 -53 -53t-53 53q0 54 53 54t53 -54zM443 849q0 -53 -54 -53q-53 0 -53 53q0 54 53 54q54 0 54 -54z" />
    <glyph glyph-name="Igrave" unicode="&#xcc;" horiz-adv-x="303" 
d="M86 0v750h131v-750h-131zM215 795h-97l-117 115h144z" />
    <glyph glyph-name="Iacute" unicode="&#xcd;" horiz-adv-x="303" 
d="M86 0v750h131v-750h-131zM152 909h155l-124 -115h-97z" />
    <glyph glyph-name="Icircumflex" unicode="&#xce;" horiz-adv-x="303" 
d="M86 0v750h131v-750h-131zM87 909h126l103 -115h-108l-57 63l-57 -63h-106z" />
    <glyph glyph-name="Idieresis" unicode="&#xcf;" horiz-adv-x="303" 
d="M86 0v750h131v-750h-131zM114 849q0 -53 -53 -53t-53 53q0 54 53 54t53 -54zM295 849q0 -53 -54 -53q-53 0 -53 53q0 54 53 54q54 0 54 -54z" />
    <glyph glyph-name="Eth" unicode="&#xd0;" horiz-adv-x="676" 
d="M629 379q0 -203 -73 -291t-228 -88h-244v350h-59v82h59v318h241q162 0 233 -85.5t71 -285.5zM494 380q0 148 -37 198t-132 50h-112v-196h86v-82h-86v-230h113q63 0 97 19t52.5 76.5t18.5 164.5z" />
    <glyph glyph-name="Ntilde" unicode="&#xd1;" horiz-adv-x="682" 
d="M607 0h-93l-283 455l-41 70l-2 -1l1 -81v-443h-114v750h113l264 -436l41 -69l2 1l-2 80v424h114v-750zM252 799h-57q3 50 26.5 80.5t63.5 30.5q33 0 73.5 -24.5t53.5 -24.5q26 0 33 37l54 -1q-3 -50 -27.5 -80t-63.5 -30q-32 0 -71 24.5t-52 24.5q-26 0 -33 -37z" />
    <glyph glyph-name="Ograve" unicode="&#xd2;" horiz-adv-x="676" 
d="M629 375q0 -212 -67 -300t-224 -88q-154 0 -222.5 90t-68.5 298q0 209 67.5 298t223.5 89t223.5 -89t67.5 -298zM494 375q0 158 -33.5 211.5t-122.5 53.5q-60 0 -92 -21t-48 -78.5t-16 -165.5t16 -165.5t48 -79t92 -21.5q89 0 122.5 54t33.5 212zM416 795h-97l-117 115
h144z" />
    <glyph glyph-name="Oacute" unicode="&#xd3;" horiz-adv-x="676" 
d="M629 375q0 -212 -67 -300t-224 -88q-154 0 -222.5 90t-68.5 298q0 209 67.5 298t223.5 89t223.5 -89t67.5 -298zM494 375q0 158 -33.5 211.5t-122.5 53.5q-60 0 -92 -21t-48 -78.5t-16 -165.5t16 -165.5t48 -79t92 -21.5q89 0 122.5 54t33.5 212zM339 909h155l-124 -115
h-97z" />
    <glyph glyph-name="Ocircumflex" unicode="&#xd4;" horiz-adv-x="676" 
d="M629 375q0 -212 -67 -300t-224 -88q-154 0 -222.5 90t-68.5 298q0 209 67.5 298t223.5 89t223.5 -89t67.5 -298zM494 375q0 158 -33.5 211.5t-122.5 53.5q-60 0 -92 -21t-48 -78.5t-16 -165.5t16 -165.5t48 -79t92 -21.5q89 0 122.5 54t33.5 212zM275 909h126l103 -115
h-108l-57 63l-57 -63h-106z" />
    <glyph glyph-name="Otilde" unicode="&#xd5;" horiz-adv-x="676" 
d="M629 375q0 -212 -67 -300t-224 -88q-154 0 -222.5 90t-68.5 298q0 209 67.5 298t223.5 89t223.5 -89t67.5 -298zM494 375q0 158 -33.5 211.5t-122.5 53.5q-60 0 -92 -21t-48 -78.5t-16 -165.5t16 -165.5t48 -79t92 -21.5q89 0 122.5 54t33.5 212zM246 799h-57
q3 50 26.5 80.5t63.5 30.5q33 0 73.5 -24.5t53.5 -24.5q26 0 33 37l54 -1q-3 -50 -27.5 -80t-63.5 -30q-32 0 -71 24.5t-52 24.5q-26 0 -33 -37z" />
    <glyph glyph-name="Odieresis" unicode="&#xd6;" horiz-adv-x="676" 
d="M629 375q0 -212 -67 -300t-224 -88q-154 0 -222.5 90t-68.5 298q0 209 67.5 298t223.5 89t223.5 -89t67.5 -298zM494 375q0 158 -33.5 211.5t-122.5 53.5q-60 0 -92 -21t-48 -78.5t-16 -165.5t16 -165.5t48 -79t92 -21.5q89 0 122.5 54t33.5 212zM302 849q0 -53 -53 -53
t-53 53q0 54 53 54t53 -54zM483 849q0 -53 -54 -53q-53 0 -53 53q0 54 53 54q54 0 54 -54z" />
    <glyph glyph-name="multiply" unicode="&#xd7;" horiz-adv-x="550" 
d="M474 204l-69 -76l-130 128l-129 -128l-69 76l129 128l-131 128l70 76l131 -128l130 129l70 -77l-131 -128z" />
    <glyph glyph-name="Oslash" unicode="&#xd8;" horiz-adv-x="676" 
d="M98 -14l-63 55l55 79q-42 88 -42 255q0 209 67.5 298t223.5 89q135 0 201 -65l50 65l62 -57l-61 -83q39 -87 39 -247q0 -212 -67 -300t-224 -88q-130 0 -197 61zM183 375q0 -79 8 -137l271 347q-33 55 -123 55q-60 0 -92 -21t-48 -78.5t-16 -165.5zM495 375q0 79 -6 131
l-271 -346q33 -51 122 -51q60 0 92 22t47.5 79t15.5 165z" />
    <glyph glyph-name="Ugrave" unicode="&#xd9;" horiz-adv-x="662" 
d="M598 750v-496q0 -267 -266 -267q-268 0 -268 267v496h129v-494q0 -76 33.5 -111t105.5 -35t105 34.5t33 111.5v494h128zM396 795h-97l-117 115h144z" />
    <glyph glyph-name="Uacute" unicode="&#xda;" horiz-adv-x="662" 
d="M598 750v-496q0 -267 -266 -267q-268 0 -268 267v496h129v-494q0 -76 33.5 -111t105.5 -35t105 34.5t33 111.5v494h128zM333 909h155l-124 -115h-97z" />
    <glyph glyph-name="Ucircumflex" unicode="&#xdb;" horiz-adv-x="662" 
d="M598 750v-496q0 -267 -266 -267q-268 0 -268 267v496h129v-494q0 -76 33.5 -111t105.5 -35t105 34.5t33 111.5v494h128zM268 909h126l103 -115h-108l-57 63l-57 -63h-106z" />
    <glyph glyph-name="Udieresis" unicode="&#xdc;" horiz-adv-x="662" 
d="M598 750v-496q0 -267 -266 -267q-268 0 -268 267v496h129v-494q0 -76 33.5 -111t105.5 -35t105 34.5t33 111.5v494h128zM295 849q0 -53 -53 -53t-53 53q0 54 53 54t53 -54zM476 849q0 -53 -54 -53q-53 0 -53 53q0 54 53 54q54 0 54 -54z" />
    <glyph glyph-name="Yacute" unicode="&#xdd;" horiz-adv-x="620" 
d="M12 750h145l127 -310l29 -75h3l28 75l123 310h140l-229 -507v-243h-132v243zM314 909h155l-124 -115h-97z" />
    <glyph glyph-name="Thorn" unicode="&#xde;" horiz-adv-x="600" 
d="M566 381q0 -122 -62.5 -180.5t-206.5 -58.5h-94v-142h-128v750h128v-125h94q144 0 206.5 -57.5t62.5 -186.5zM434 382q0 73 -30.5 100.5t-106.5 27.5h-94v-259h94q76 0 106.5 27t30.5 104z" />
    <glyph glyph-name="germandbls" unicode="&#xdf;" horiz-adv-x="595" 
d="M70 0v503q0 128 57.5 194t169.5 66q82 0 133.5 -44t51.5 -110q0 -30 -16 -59.5t-35 -48t-35 -38.5t-16 -33t19 -28t45.5 -32.5t53.5 -40t46 -59t19 -80.5q0 -93 -58 -146t-153 -53q-87 0 -135 34l8 107q40 -29 106 -29q50 0 80.5 20.5t30.5 62.5q0 29 -19.5 55t-47 45
t-55.5 37t-47.5 41.5t-19.5 49.5q0 30 28.5 64t57 67.5t28.5 60.5q0 24 -19.5 38.5t-53.5 14.5q-54 0 -79.5 -35t-25.5 -111v-513h-119z" />
    <glyph glyph-name="agrave" unicode="&#xe0;" horiz-adv-x="529" 
d="M380 0l-10 63l-3 1q-52 -73 -153 -73q-81 0 -126.5 48.5t-45.5 147.5q0 86 52 135.5t147 49.5q61 0 112 -18v49q0 57 -27 81t-88 24q-78 0 -152 -34l-10 101q79 38 183 38q115 0 163.5 -53t48.5 -175v-385h-91zM353 174v94q-30 17 -90 17q-108 0 -108 -97t91 -97
q42 0 74.5 25t32.5 58zM324 661h-91l-106 142h138z" />
    <glyph glyph-name="aacute" unicode="&#xe1;" horiz-adv-x="529" 
d="M380 0l-10 63l-3 1q-52 -73 -153 -73q-81 0 -126.5 48.5t-45.5 147.5q0 86 52 135.5t147 49.5q61 0 112 -18v49q0 57 -27 81t-88 24q-78 0 -152 -34l-10 101q79 38 183 38q115 0 163.5 -53t48.5 -175v-385h-91zM353 174v94q-30 17 -90 17q-108 0 -108 -97t91 -97
q42 0 74.5 25t32.5 58zM256 803h138l-108 -142h-90z" />
    <glyph glyph-name="acircumflex" unicode="&#xe2;" horiz-adv-x="529" 
d="M380 0l-10 63l-3 1q-52 -73 -153 -73q-81 0 -126.5 48.5t-45.5 147.5q0 86 52 135.5t147 49.5q61 0 112 -18v49q0 57 -27 81t-88 24q-78 0 -152 -34l-10 101q79 38 183 38q115 0 163.5 -53t48.5 -175v-385h-91zM353 174v94q-30 17 -90 17q-108 0 -108 -97t91 -97
q42 0 74.5 25t32.5 58zM210 803h102l96 -142h-91l-55 89l-56 -89h-90z" />
    <glyph glyph-name="atilde" unicode="&#xe3;" horiz-adv-x="529" 
d="M380 0l-10 63l-3 1q-52 -73 -153 -73q-81 0 -126.5 48.5t-45.5 147.5q0 86 52 135.5t147 49.5q61 0 112 -18v49q0 57 -27 81t-88 24q-78 0 -152 -34l-10 101q79 38 183 38q115 0 163.5 -53t48.5 -175v-385h-91zM353 174v94q-30 17 -90 17q-108 0 -108 -97t91 -97
q42 0 74.5 25t32.5 58zM170 677l-55 1q3 55 27 89t62 34q32 0 69 -28.5t54 -28.5q25 0 35 46l56 -1q-4 -56 -28.5 -89t-62.5 -33q-31 0 -68 28.5t-53 28.5q-28 0 -36 -47z" />
    <glyph glyph-name="adieresis" unicode="&#xe4;" horiz-adv-x="529" 
d="M380 0l-10 63l-3 1q-52 -73 -153 -73q-81 0 -126.5 48.5t-45.5 147.5q0 86 52 135.5t147 49.5q61 0 112 -18v49q0 57 -27 81t-88 24q-78 0 -152 -34l-10 101q79 38 183 38q115 0 163.5 -53t48.5 -175v-385h-91zM353 174v94q-30 17 -90 17q-108 0 -108 -97t91 -97
q42 0 74.5 25t32.5 58zM239 742q0 -56 -54 -56t-54 56q0 57 54 57t54 -57zM401 742q0 -56 -54 -56t-54 56q0 57 54 57t54 -57z" />
    <glyph glyph-name="aring" unicode="&#xe5;" horiz-adv-x="529" 
d="M380 0l-10 63l-3 1q-52 -73 -153 -73q-81 0 -126.5 48.5t-45.5 147.5q0 86 52 135.5t147 49.5q61 0 112 -18v49q0 57 -27 81t-88 24q-78 0 -152 -34l-10 101q79 38 183 38q115 0 163.5 -53t48.5 -175v-385h-91zM353 174v94q-30 17 -90 17q-108 0 -108 -97t91 -97
q42 0 74.5 25t32.5 58zM157 743q0 83 107 83q53 0 80.5 -22.5t27.5 -60.5q0 -82 -108 -82q-107 0 -107 82zM217 743q0 -34 49 -34q48 0 48 34t-48 34q-49 0 -49 -34z" />
    <glyph glyph-name="ae" unicode="&#xe6;" horiz-adv-x="837" 
d="M259 612q122 0 164 -70q58 70 163 70q100 0 157 -68t57 -209q0 -34 -3 -61h-332q4 -98 41 -137t118 -39q76 0 146 34l13 -104q-73 -39 -174 -39q-145 0 -205 91q-57 -90 -178 -90q-184 0 -184 196q0 86 52 135.5t147 49.5q60 0 112 -19v50q0 57 -27 81t-88 24
q-78 0 -152 -34l-10 101q84 38 183 38zM353 184v83q-30 17 -90 17q-109 0 -109 -97t92 -97q46 0 76.5 26t30.5 68zM464 358h226q-1 150 -111 150q-58 0 -84.5 -34.5t-30.5 -115.5z" />
    <glyph glyph-name="ccedilla" unicode="&#xe7;" horiz-adv-x="451" 
d="M175 -187l58 179q-98 14 -146.5 89.5t-48.5 221.5q0 156 59.5 232.5t186.5 76.5q72 0 131 -26l-7 -107q-48 20 -99 20q-82 0 -115 -43.5t-33 -152.5q0 -111 36 -159.5t109 -48.5q59 0 105 26l9 -98q-39 -27 -106 -33l-29 -177h-110z" />
    <glyph glyph-name="egrave" unicode="&#xe8;" horiz-adv-x="533" 
d="M305 -11q-139 0 -203 78.5t-64 245.5q0 299 236 299q223 0 223 -277q0 -25 -4 -61h-332q4 -98 40.5 -137t118.5 -39q75 0 146 31l13 -101q-73 -39 -174 -39zM159 358h227q-1 150 -111 150q-59 0 -85.5 -34.5t-30.5 -115.5zM336 661h-91l-106 142h138z" />
    <glyph glyph-name="eacute" unicode="&#xe9;" horiz-adv-x="533" 
d="M305 -11q-139 0 -203 78.5t-64 245.5q0 299 236 299q223 0 223 -277q0 -25 -4 -61h-332q4 -98 40.5 -137t118.5 -39q75 0 146 31l13 -101q-73 -39 -174 -39zM159 358h227q-1 150 -111 150q-59 0 -85.5 -34.5t-30.5 -115.5zM268 803h138l-108 -142h-90z" />
    <glyph glyph-name="ecircumflex" unicode="&#xea;" horiz-adv-x="533" 
d="M305 -11q-139 0 -203 78.5t-64 245.5q0 299 236 299q223 0 223 -277q0 -25 -4 -61h-332q4 -98 40.5 -137t118.5 -39q75 0 146 31l13 -101q-73 -39 -174 -39zM159 358h227q-1 150 -111 150q-59 0 -85.5 -34.5t-30.5 -115.5zM222 803h102l96 -142h-91l-55 89l-56 -89h-90z
" />
    <glyph glyph-name="edieresis" unicode="&#xeb;" horiz-adv-x="533" 
d="M305 -11q-139 0 -203 78.5t-64 245.5q0 299 236 299q223 0 223 -277q0 -25 -4 -61h-332q4 -98 40.5 -137t118.5 -39q75 0 146 31l13 -101q-73 -39 -174 -39zM159 358h227q-1 150 -111 150q-59 0 -85.5 -34.5t-30.5 -115.5zM239 742q0 -56 -54 -56t-54 56q0 57 54 57
t54 -57zM401 742q0 -56 -54 -56t-54 56q0 57 54 57t54 -57z" />
    <glyph glyph-name="igrave" unicode="&#xec;" horiz-adv-x="291" 
d="M206 0h-122v599l122 6v-605zM208 661h-91l-106 142h138z" />
    <glyph glyph-name="iacute" unicode="&#xed;" horiz-adv-x="291" 
d="M206 0h-122v599l122 6v-605zM140 803h138l-108 -142h-90z" />
    <glyph glyph-name="icircumflex" unicode="&#xee;" horiz-adv-x="291" 
d="M206 0h-122v599l122 6v-605zM95 803h102l96 -142h-91l-55 89l-56 -89h-90z" />
    <glyph glyph-name="idieresis" unicode="&#xef;" horiz-adv-x="291" 
d="M206 0h-122v599l122 6v-605zM122 742q0 -56 -54 -56t-54 56q0 57 54 57t54 -57zM284 742q0 -56 -54 -56t-54 56q0 57 54 57t54 -57z" />
    <glyph glyph-name="eth" unicode="&#xf0;" horiz-adv-x="567" 
d="M438 745l-69 -48q71 -77 115.5 -172.5t44.5 -188.5q0 -185 -59 -266t-184 -81q-123 0 -185.5 66.5t-62.5 233.5q0 140 54 205.5t162 65.5q72 0 119 -31l2 2q-35 60 -84 111l-80 -56l-44 50l72 52q-31 25 -81 57l85 56q39 -23 76 -56l76 55zM161 283q0 -111 28.5 -150
t91.5 -39q65 0 94.5 50t29.5 165q0 77 -30 111.5t-93 34.5q-66 0 -93.5 -37.5t-27.5 -134.5z" />
    <glyph glyph-name="ntilde" unicode="&#xf1;" horiz-adv-x="571" 
d="M512 0h-119v402q0 101 -102 101q-31 0 -61 -14.5t-45 -38.5v-450h-119v600l86 6l18 -54q63 61 155 61q88 0 137.5 -54t49.5 -156v-403zM197 677l-55 1q3 55 27 89t62 34q33 0 69 -28.5t54 -28.5q25 0 35 46l56 -1q-4 -56 -28.5 -89t-62.5 -33q-32 0 -68.5 28.5
t-52.5 28.5q-28 0 -36 -47z" />
    <glyph glyph-name="ograve" unicode="&#xf2;" horiz-adv-x="566" 
d="M528 299q0 -170 -57.5 -241t-186.5 -71t-187.5 71.5t-58.5 240.5t58.5 241.5t187.5 72.5t186.5 -72t57.5 -242zM161 299q0 -121 27.5 -165.5t95.5 -44.5q67 0 93.5 44t26.5 166t-26.5 166t-93.5 44q-68 0 -95.5 -44t-27.5 -166zM346 661h-91l-106 142h138z" />
    <glyph glyph-name="oacute" unicode="&#xf3;" horiz-adv-x="566" 
d="M528 299q0 -170 -57.5 -241t-186.5 -71t-187.5 71.5t-58.5 240.5t58.5 241.5t187.5 72.5t186.5 -72t57.5 -242zM161 299q0 -121 27.5 -165.5t95.5 -44.5q67 0 93.5 44t26.5 166t-26.5 166t-93.5 44q-68 0 -95.5 -44t-27.5 -166zM278 803h138l-108 -142h-90z" />
    <glyph glyph-name="ocircumflex" unicode="&#xf4;" horiz-adv-x="566" 
d="M528 299q0 -170 -57.5 -241t-186.5 -71t-187.5 71.5t-58.5 240.5t58.5 241.5t187.5 72.5t186.5 -72t57.5 -242zM161 299q0 -121 27.5 -165.5t95.5 -44.5q67 0 93.5 44t26.5 166t-26.5 166t-93.5 44q-68 0 -95.5 -44t-27.5 -166zM232 803h102l96 -142h-91l-55 89l-56 -89
h-90z" />
    <glyph glyph-name="otilde" unicode="&#xf5;" horiz-adv-x="566" 
d="M528 299q0 -170 -57.5 -241t-186.5 -71t-187.5 71.5t-58.5 240.5t58.5 241.5t187.5 72.5t186.5 -72t57.5 -242zM161 299q0 -121 27.5 -165.5t95.5 -44.5q67 0 93.5 44t26.5 166t-26.5 166t-93.5 44q-68 0 -95.5 -44t-27.5 -166zM192 677l-55 1q3 55 27 89t62 34
q32 0 69 -28.5t54 -28.5q25 0 35 46l56 -1q-4 -56 -28.5 -89t-62.5 -33q-31 0 -67.5 28.5t-53.5 28.5q-28 0 -36 -47z" />
    <glyph glyph-name="odieresis" unicode="&#xf6;" horiz-adv-x="566" 
d="M528 299q0 -170 -57.5 -241t-186.5 -71t-187.5 71.5t-58.5 240.5t58.5 241.5t187.5 72.5t186.5 -72t57.5 -242zM161 299q0 -121 27.5 -165.5t95.5 -44.5q67 0 93.5 44t26.5 166t-26.5 166t-93.5 44q-68 0 -95.5 -44t-27.5 -166zM256 742q0 -56 -54 -56t-54 56q0 57 54 57
t54 -57zM418 742q0 -56 -54 -56t-54 56q0 57 54 57t54 -57z" />
    <glyph glyph-name="divide" unicode="&#xf7;" horiz-adv-x="550" 
d="M352 511q0 -66 -76 -66q-77 0 -77 66q0 32 20.5 49t56.5 17q76 0 76 -66zM352 163q0 -65 -76 -65q-38 0 -57.5 14.5t-19.5 50.5q0 66 77 66q76 0 76 -66zM495 280h-440v114h440v-114z" />
    <glyph glyph-name="oslash" unicode="&#xf8;" horiz-adv-x="566" 
d="M81 -9l-51 46l43 59q-35 70 -35 203q0 169 59 241.5t187 72.5q101 0 157 -43l33 45l51 -45l-39 -54q42 -75 42 -217q0 -170 -57.5 -241t-186.5 -71q-111 0 -168 51zM405 299q0 33 -5 105l-216 -262q26 -53 100 -53q67 0 94 44.5t27 165.5zM161 299q0 -49 3 -87l212 256
q-27 41 -92 41q-68 0 -95.5 -44t-27.5 -166z" />
    <glyph glyph-name="ugrave" unicode="&#xf9;" horiz-adv-x="564" 
d="M505 603v-405q0 -209 -223 -209t-223 209v405h119v-403q0 -100 104 -100t104 100v403h119zM344 661h-91l-106 142h138z" />
    <glyph glyph-name="uacute" unicode="&#xfa;" horiz-adv-x="564" 
d="M505 603v-405q0 -209 -223 -209t-223 209v405h119v-403q0 -100 104 -100t104 100v403h119zM276 803h138l-108 -142h-90z" />
    <glyph glyph-name="ucircumflex" unicode="&#xfb;" horiz-adv-x="564" 
d="M505 603v-405q0 -209 -223 -209t-223 209v405h119v-403q0 -100 104 -100t104 100v403h119zM231 803h102l96 -142h-91l-55 89l-56 -89h-90z" />
    <glyph glyph-name="udieresis" unicode="&#xfc;" horiz-adv-x="564" 
d="M506 603v-405q0 -209 -223 -209t-223 209v405h119v-403q0 -100 104 -100t104 100v403h119zM255 742q0 -56 -54 -56t-54 56q0 57 54 57t54 -57zM417 742q0 -56 -54 -56t-54 56q0 57 54 57t54 -57z" />
    <glyph glyph-name="yacute" unicode="&#xfd;" horiz-adv-x="588" 
d="M166 -67q63 0 89 64l3 9l-236 597h137l132 -401l24 -77h3l18 78l103 400h127l-191 -601q-28 -86 -74 -123.5t-115 -37.5q-50 0 -90 17l11 89q28 -14 59 -14zM290 803h138l-108 -142h-90z" />
    <glyph glyph-name="thorn" unicode="&#xfe;" horiz-adv-x="577" 
d="M539 302q0 -158 -55.5 -235t-156.5 -77q-86 0 -136 50l-3 -1l2 -81v-105h-120v933l120 7v-159l-2 -80l3 -2q60 60 147 60q100 0 150.5 -70t50.5 -240zM414 305q0 114 -26.5 155.5t-88.5 41.5q-73 0 -109 -57v-291q33 -60 105 -60q60 0 89.5 44.5t29.5 166.5z" />
    <glyph glyph-name="ydieresis" unicode="&#xff;" horiz-adv-x="588" 
d="M166 -67q63 0 89 64l3 9l-236 597h137l132 -401l24 -77h3l18 78l103 400h127l-191 -601q-28 -86 -74 -123.5t-115 -37.5q-50 0 -90 17l11 89q28 -14 59 -14zM268 742q0 -56 -54 -56t-54 56q0 57 54 57t54 -57zM430 742q0 -56 -54 -56t-54 56q0 57 54 57t54 -57z" />
    <glyph glyph-name="Amacron" unicode="&#x100;" horiz-adv-x="654" 
d="M499 0l-44 163h-264l-44 -163h-136l236 750h157l239 -750h-144zM324 651l-20 -79l-82 -295h203l-79 295l-19 79h-3zM469 872v-64h-282v64h282z" />
    <glyph glyph-name="amacron" unicode="&#x101;" horiz-adv-x="529" 
d="M380 0l-10 63l-3 1q-52 -73 -153 -73q-81 0 -126.5 48.5t-45.5 147.5q0 86 52 135.5t147 49.5q61 0 112 -18v49q0 57 -27 81t-88 24q-78 0 -152 -34l-10 101q79 38 183 38q115 0 163.5 -53t48.5 -175v-385h-91zM353 174v94q-30 17 -90 17q-108 0 -108 -97t91 -97
q42 0 74.5 25t32.5 58zM403 774v-77h-282v77h282z" />
    <glyph glyph-name="Abreve" unicode="&#x102;" horiz-adv-x="654" 
d="M499 0l-44 163h-264l-44 -163h-136l236 750h157l239 -750h-144zM324 651l-20 -79l-82 -295h203l-79 295l-19 79h-3zM388 909h89q0 -121 -152 -121t-152 121h89q0 -55 63 -55t63 55z" />
    <glyph glyph-name="abreve" unicode="&#x103;" horiz-adv-x="529" 
d="M380 0l-10 63l-3 1q-52 -73 -153 -73q-81 0 -126.5 48.5t-45.5 147.5q0 86 52 135.5t147 49.5q61 0 112 -18v49q0 57 -27 81t-88 24q-78 0 -152 -34l-10 101q79 38 183 38q115 0 163.5 -53t48.5 -175v-385h-91zM353 174v94q-30 17 -90 17q-108 0 -108 -97t91 -97
q42 0 74.5 25t32.5 58zM319 803h81q0 -150 -139 -150t-139 150h80q0 -84 59 -84q58 0 58 84z" />
    <glyph glyph-name="Aogonek" unicode="&#x104;" horiz-adv-x="654" 
d="M499 0l-44 163h-264l-44 -163h-136l236 750h157l239 -750h-22q-24 -2 -39.5 -20t-15.5 -41q0 -41 51 -42q27 0 49 12l10 -67q-39 -22 -92 -22t-81 23.5t-28 63.5q0 61 49 93h-25zM324 651l-20 -79l-82 -295h203l-79 295l-19 79h-3z" />
    <glyph glyph-name="aogonek" unicode="&#x105;" horiz-adv-x="529" 
d="M380 -1l-10 63l-3 1q-52 -73 -153 -73q-81 0 -126.5 48.5t-45.5 147.5q0 86 52 135.5t147 49.5q61 0 112 -18v49q0 57 -27 81t-88 24q-78 0 -152 -34l-10 101q79 38 183 38q115 0 163.5 -53t48.5 -175v-385h-1q-53 -19 -53 -65q0 -37 50 -38q27 0 49 12l10 -66
q-39 -22 -91 -22q-55 0 -81.5 23t-26.5 61q0 57 56 95h-3zM353 173v94q-30 17 -90 17q-108 0 -108 -97t91 -97q42 0 74.5 25t32.5 58z" />
    <glyph glyph-name="Cacute" unicode="&#x106;" horiz-adv-x="544" 
d="M510 732l-13 -117q-61 26 -135 26q-99 0 -139.5 -56t-40.5 -204q0 -157 41 -216t142 -59q71 0 134 30l14 -111q-73 -38 -166 -38q-155 0 -227.5 94.5t-72.5 299.5q0 196 74.5 289t232.5 93q89 0 156 -31zM331 909h155l-124 -115h-97z" />
    <glyph glyph-name="cacute" unicode="&#x107;" horiz-adv-x="451" 
d="M415 586l-7 -107q-48 20 -99 20q-82 0 -115 -43.5t-33 -152.5q0 -111 36 -159.5t109 -48.5q59 0 105 26l9 -98q-51 -35 -138 -35q-123 0 -183.5 76t-60.5 239q0 156 59.5 232.5t186.5 76.5q72 0 131 -26zM264 803h138l-108 -142h-90z" />
    <glyph glyph-name="Ccircumflex" unicode="&#x108;" horiz-adv-x="544" 
d="M510 732l-13 -117q-61 26 -135 26q-99 0 -139.5 -56t-40.5 -204q0 -157 41 -216t142 -59q71 0 134 30l14 -111q-73 -38 -166 -38q-155 0 -227.5 94.5t-72.5 299.5q0 196 74.5 289t232.5 93q89 0 156 -31zM267 909h126l103 -115h-108l-57 63l-57 -63h-106z" />
    <glyph glyph-name="ccircumflex" unicode="&#x109;" horiz-adv-x="451" 
d="M415 586l-7 -107q-48 20 -99 20q-82 0 -115 -43.5t-33 -152.5q0 -111 36 -159.5t109 -48.5q59 0 105 26l9 -98q-51 -35 -138 -35q-123 0 -183.5 76t-60.5 239q0 156 59.5 232.5t186.5 76.5q72 0 131 -26zM215 803h102l96 -142h-91l-55 89l-56 -89h-90z" />
    <glyph glyph-name="Cdotaccent" unicode="&#x10a;" horiz-adv-x="544" 
d="M510 732l-13 -117q-61 26 -135 26q-99 0 -139.5 -56t-40.5 -204q0 -157 41 -216t142 -59q71 0 134 30l14 -111q-73 -38 -166 -38q-155 0 -227.5 94.5t-72.5 299.5q0 196 74.5 289t232.5 93q89 0 156 -31zM404 846q0 -53 -74 -53q-40 0 -57 12.5t-17 40.5q0 53 74 53
t74 -53z" />
    <glyph glyph-name="cdotaccent" unicode="&#x10b;" horiz-adv-x="451" 
d="M415 586l-7 -107q-48 20 -99 20q-82 0 -115 -43.5t-33 -152.5q0 -111 36 -159.5t109 -48.5q59 0 105 26l9 -98q-51 -35 -138 -35q-123 0 -183.5 76t-60.5 239q0 156 59.5 232.5t186.5 76.5q72 0 131 -26zM341 742q0 -59 -71 -59q-36 0 -53.5 13.5t-17.5 45.5q0 59 71 59
t71 -59z" />
    <glyph glyph-name="Ccaron" unicode="&#x10c;" horiz-adv-x="544" 
d="M510 732l-13 -117q-61 26 -135 26q-99 0 -139.5 -56t-40.5 -204q0 -157 41 -216t142 -59q71 0 134 30l14 -111q-73 -38 -166 -38q-155 0 -227.5 94.5t-72.5 299.5q0 196 74.5 289t232.5 93q89 0 156 -31zM392 794h-126l-101 115h108l57 -65l57 65h107z" />
    <glyph glyph-name="ccaron" unicode="&#x10d;" horiz-adv-x="451" 
d="M415 586l-7 -107q-48 20 -99 20q-82 0 -115 -43.5t-33 -152.5q0 -111 36 -159.5t109 -48.5q59 0 105 26l9 -98q-51 -35 -138 -35q-123 0 -183.5 76t-60.5 239q0 156 59.5 232.5t186.5 76.5q72 0 131 -26zM319 661h-103l-93 142h90l55 -94l55 94h91z" />
    <glyph glyph-name="Dcaron" unicode="&#x10e;" horiz-adv-x="666" 
d="M620 379q0 -203 -73 -291t-228 -88h-244v750h241q162 0 233 -85.5t71 -285.5zM485 380q0 148 -37 198t-132 50h-112v-508h113q63 0 97 19t52.5 76.5t18.5 164.5zM360 794h-126l-101 115h108l57 -65l57 65h107z" />
    <glyph glyph-name="dcaron" unicode="&#x10f;" horiz-adv-x="681" 
d="M507 0h-92l-13 54l-3 1q-51 -67 -151 -67q-108 0 -159 75.5t-51 240.5q0 309 208 309q86 0 142 -57l2 1l-2 80v149l119 7v-793zM388 150v298q-31 53 -107 53q-67 0 -93.5 -44t-26.5 -158q0 -120 25.5 -164t93.5 -44q78 0 108 59zM599 758q57 0 57 -53q0 -44 -72 -114
l-29 13l22 65q-34 9 -34 44q0 45 56 45z" />
    <glyph glyph-name="Dcroat" unicode="&#x110;" horiz-adv-x="677" 
d="M630 379q0 -203 -73 -291t-228 -88h-244v346h-60v85h60v319h241q162 0 233 -85.5t71 -285.5zM495 380q0 148 -37 198t-132 50h-112v-197h85v-85h-85v-226h113q63 0 97 19t52.5 76.5t18.5 164.5z" />
    <glyph glyph-name="dcroat" unicode="&#x111;" horiz-adv-x="583" 
d="M507 0h-92l-13 54l-3 1q-51 -67 -151 -67q-108 0 -159 75.5t-51 240.5q0 309 208 309q88 0 140 -57l2 1v92h-83v69h83v68l119 7v-75h56v-69h-56v-649zM388 150v298q-31 53 -107 53q-67 0 -93.5 -44t-26.5 -158q0 -120 25.5 -164t93.5 -44q78 0 108 59z" />
    <glyph glyph-name="Emacron" unicode="&#x112;" horiz-adv-x="560" 
d="M203 119h322l-3 -119h-447v750h433l2 -120h-307v-187h261v-110h-261v-214zM443 872v-64h-282v64h282z" />
    <glyph glyph-name="emacron" unicode="&#x113;" horiz-adv-x="533" 
d="M305 -11q-139 0 -203 78.5t-64 245.5q0 299 236 299q223 0 223 -277q0 -25 -4 -61h-332q4 -98 40.5 -137t118.5 -39q75 0 146 31l13 -101q-73 -39 -174 -39zM159 358h227q-1 150 -111 150q-59 0 -85.5 -34.5t-30.5 -115.5zM415 774v-77h-282v77h282z" />
    <glyph glyph-name="Ebreve" unicode="&#x114;" horiz-adv-x="560" 
d="M203 119h322l-3 -119h-447v750h433l2 -120h-307v-187h261v-110h-261v-214zM362 909h89q0 -121 -152 -121t-152 121h89q0 -55 63 -55t63 55z" />
    <glyph glyph-name="ebreve" unicode="&#x115;" horiz-adv-x="533" 
d="M305 -11q-139 0 -203 78.5t-64 245.5q0 299 236 299q223 0 223 -277q0 -25 -4 -61h-332q4 -98 40.5 -137t118.5 -39q75 0 146 31l13 -101q-73 -39 -174 -39zM159 358h227q-1 150 -111 150q-59 0 -85.5 -34.5t-30.5 -115.5zM330 803h81q0 -150 -139 -150t-139 150h80
q0 -84 59 -84q58 0 58 84z" />
    <glyph glyph-name="Edotaccent" unicode="&#x116;" horiz-adv-x="560" 
d="M203 119h322l-3 -119h-447v750h433l2 -120h-307v-187h261v-110h-261v-214zM373 846q0 -53 -74 -53q-40 0 -57 12.5t-17 40.5q0 53 74 53t74 -53z" />
    <glyph glyph-name="edotaccent" unicode="&#x117;" horiz-adv-x="533" 
d="M305 -11q-139 0 -203 78.5t-64 245.5q0 299 236 299q223 0 223 -277q0 -25 -4 -61h-332q4 -98 40.5 -137t118.5 -39q75 0 146 31l13 -101q-73 -39 -174 -39zM159 358h227q-1 150 -111 150q-59 0 -85.5 -34.5t-30.5 -115.5zM345 742q0 -59 -71 -59q-36 0 -53.5 13.5
t-17.5 45.5q0 59 71 59t71 -59z" />
    <glyph glyph-name="Eogonek" unicode="&#x118;" horiz-adv-x="560" 
d="M203 119h322l-3 -119h-37q-25 0 -42.5 -19t-17.5 -42q0 -41 51 -42q26 0 49 12l10 -67q-39 -22 -92 -22t-81 23.5t-28 63.5q0 61 49 93h-308v750h433l2 -120h-307v-187h261v-110h-261v-214z" />
    <glyph glyph-name="eogonek" unicode="&#x119;" horiz-adv-x="533" 
d="M316 -186q-54 0 -81 23t-27 61q0 58 54 95q-117 10 -170.5 88t-53.5 232q0 299 236 299q223 0 223 -277q0 -25 -4 -61h-332q4 -98 40.5 -137t118.5 -39q75 0 146 31l13 -101q-56 -31 -135 -37q-46 -21 -46 -63q0 -37 50 -38q26 0 49 12l10 -66q-39 -22 -91 -22zM159 358
h227q-1 150 -111 150q-59 0 -85.5 -34.5t-30.5 -115.5z" />
    <glyph glyph-name="Ecaron" unicode="&#x11a;" horiz-adv-x="560" 
d="M203 119h322l-3 -119h-447v750h433l2 -120h-307v-187h261v-110h-261v-214zM361 794h-126l-101 115h108l57 -65l57 65h107z" />
    <glyph glyph-name="ecaron" unicode="&#x11b;" horiz-adv-x="533" 
d="M305 -11q-139 0 -203 78.5t-64 245.5q0 299 236 299q223 0 223 -277q0 -25 -4 -61h-332q4 -98 40.5 -137t118.5 -39q75 0 146 31l13 -101q-73 -39 -174 -39zM159 358h227q-1 150 -111 150q-59 0 -85.5 -34.5t-30.5 -115.5zM325 661h-103l-93 142h90l55 -94l55 94h91z" />
    <glyph glyph-name="Gcircumflex" unicode="&#x11c;" horiz-adv-x="616" 
d="M565 403v-376q-83 -40 -203 -40q-167 0 -241 92.5t-74 294.5q0 203 76.5 295.5t243.5 92.5q105 0 184 -34l-13 -117q-75 32 -164 32q-108 0 -150 -56.5t-42 -211.5q0 -154 39 -210.5t138 -56.5q52 0 91 13v282h115zM285 909h126l103 -115h-108l-57 63l-57 -63h-106z" />
    <glyph glyph-name="gcircumflex" unicode="&#x11d;" horiz-adv-x="532" 
d="M261 251q-40 0 -72 7q-28 -12 -28 -36q0 -29 43 -33l129 -12q95 -9 136.5 -44.5t41.5 -104.5q0 -185 -245 -185q-111 0 -165.5 42t-54.5 114q0 63 50 105q-47 30 -47 85q0 65 70 99q-64 44 -64 142q0 182 205 182q85 0 135 -33l95 36l27 -60l-64 -51q11 -33 11 -74
q0 -90 -48.5 -134.5t-154.5 -44.5zM311 71l-127 12q-35 -28 -35 -67q0 -78 115 -78q78 0 108 18.5t30 54.5q0 28 -19 41.5t-72 18.5zM261 518q-48 0 -68 -21.5t-20 -68.5q0 -51 22 -70.5t64 -19.5q51 0 70.5 20.5t19.5 69.5q0 50 -20.5 70t-67.5 20zM221 803h102l96 -142
h-91l-55 89l-56 -89h-90z" />
    <glyph glyph-name="Gbreve" unicode="&#x11e;" horiz-adv-x="616" 
d="M565 403v-376q-83 -40 -203 -40q-167 0 -241 92.5t-74 294.5q0 203 76.5 295.5t243.5 92.5q105 0 184 -34l-13 -117q-75 32 -164 32q-108 0 -150 -56.5t-42 -211.5q0 -154 39 -210.5t138 -56.5q52 0 91 13v282h115zM413 909h89q0 -121 -152 -121t-152 121h89
q0 -55 63 -55t63 55z" />
    <glyph glyph-name="gbreve" unicode="&#x11f;" horiz-adv-x="532" 
d="M261 251q-40 0 -72 7q-28 -12 -28 -36q0 -29 43 -33l129 -12q95 -9 136.5 -44.5t41.5 -104.5q0 -185 -245 -185q-111 0 -165.5 42t-54.5 114q0 63 50 105q-47 30 -47 85q0 65 70 99q-64 44 -64 142q0 182 205 182q85 0 135 -33l95 36l27 -60l-64 -51q11 -33 11 -74
q0 -90 -48.5 -134.5t-154.5 -44.5zM311 71l-127 12q-35 -28 -35 -67q0 -78 115 -78q78 0 108 18.5t30 54.5q0 28 -19 41.5t-72 18.5zM261 518q-48 0 -68 -21.5t-20 -68.5q0 -51 22 -70.5t64 -19.5q51 0 70.5 20.5t19.5 69.5q0 50 -20.5 70t-67.5 20zM331 803h81
q0 -150 -139 -150t-139 150h80q0 -84 59 -84q58 0 58 84z" />
    <glyph glyph-name="Gdotaccent" unicode="&#x120;" horiz-adv-x="616" 
d="M565 403v-376q-83 -40 -203 -40q-167 0 -241 92.5t-74 294.5q0 203 76.5 295.5t243.5 92.5q105 0 184 -34l-13 -117q-75 32 -164 32q-108 0 -150 -56.5t-42 -211.5q0 -154 39 -210.5t138 -56.5q52 0 91 13v282h115zM430 846q0 -53 -74 -53q-40 0 -57 12.5t-17 40.5
q0 53 74 53t74 -53z" />
    <glyph glyph-name="gdotaccent" unicode="&#x121;" horiz-adv-x="532" 
d="M261 251q-40 0 -72 7q-28 -12 -28 -36q0 -29 43 -33l129 -12q95 -9 136.5 -44.5t41.5 -104.5q0 -185 -245 -185q-111 0 -165.5 42t-54.5 114q0 63 50 105q-47 30 -47 85q0 65 70 99q-64 44 -64 142q0 182 205 182q85 0 135 -33l95 36l27 -60l-64 -51q11 -33 11 -74
q0 -90 -48.5 -134.5t-154.5 -44.5zM311 71l-127 12q-35 -28 -35 -67q0 -78 115 -78q78 0 108 18.5t30 54.5q0 28 -19 41.5t-72 18.5zM261 518q-48 0 -68 -21.5t-20 -68.5q0 -51 22 -70.5t64 -19.5q51 0 70.5 20.5t19.5 69.5q0 50 -20.5 70t-67.5 20zM343 742q0 -59 -71 -59
q-36 0 -53.5 13.5t-17.5 45.5q0 59 71 59t71 -59z" />
    <glyph glyph-name="Gcommaaccent" unicode="&#x122;" horiz-adv-x="616" 
d="M565 403v-376q-83 -40 -203 -40q-167 0 -241 92.5t-74 294.5q0 203 76.5 295.5t243.5 92.5q105 0 184 -34l-13 -117q-75 32 -164 32q-108 0 -150 -56.5t-42 -211.5q0 -154 39 -210.5t138 -56.5q52 0 91 13v282h115zM363 -36q70 0 70 -52q0 -43 -87 -111l-37 13l25 63
q-41 9 -41 43q0 44 70 44z" />
    <glyph glyph-name="gcommaaccent" unicode="&#x123;" horiz-adv-x="532" 
d="M261 251q-40 0 -72 7q-28 -12 -28 -36q0 -29 43 -33l129 -12q95 -9 136.5 -44.5t41.5 -104.5q0 -185 -245 -185q-111 0 -165.5 42t-54.5 114q0 63 50 105q-47 30 -47 85q0 65 70 99q-64 44 -64 142q0 182 205 182q85 0 135 -33l95 36l27 -60l-64 -51q11 -33 11 -74
q0 -90 -48.5 -134.5t-154.5 -44.5zM311 71l-127 12q-35 -28 -35 -67q0 -78 115 -78q78 0 108 18.5t30 54.5q0 28 -19 41.5t-72 18.5zM261 518q-48 0 -68 -21.5t-20 -68.5q0 -51 22 -70.5t64 -19.5q51 0 70.5 20.5t19.5 69.5q0 50 -20.5 70t-67.5 20zM272 667q-57 0 -57 54
q0 41 72 113l30 -13l-23 -64q34 -9 34 -44q0 -46 -56 -46z" />
    <glyph glyph-name="Hcircumflex" unicode="&#x124;" horiz-adv-x="677" 
d="M602 0h-129v326h-269v-326h-129v750h129v-303h269v303h129v-750zM277 909h126l103 -115h-108l-57 63l-57 -63h-106z" />
    <glyph glyph-name="hcircumflex" unicode="&#x125;" horiz-adv-x="575" 
d="M304 752h88l85 -108h-77l-51 62l-50 -62h-75zM516 0h-119v403q0 100 -101 100q-35 0 -64 -15t-43 -39v-449h-119v786l119 7v-152l-2 -80l3 -2q56 55 143 55t135 -55t48 -156v-403z" />
    <glyph glyph-name="Hbar" unicode="&#x126;" horiz-adv-x="689" 
d="M608 0h-129v326h-269v-326h-129v553h-45v74h45v123h129v-123h269v123h129v-123h56v-74h-56v-553zM210 447h269v106h-269v-106z" />
    <glyph glyph-name="hbar" unicode="&#x127;" horiz-adv-x="578" 
d="M519 0h-119v403q0 100 -101 100q-35 0 -64 -15t-43 -39v-449h-119v649h-67v69h67v68l119 7v-75h72v-69h-72v-88l3 -1q54 54 141 54t135 -55t48 -156v-403z" />
    <glyph glyph-name="Itilde" unicode="&#x128;" horiz-adv-x="303" 
d="M86 0v750h131v-750h-131zM58 799h-57q3 50 26.5 80.5t63.5 30.5q33 0 73.5 -24.5t53.5 -24.5q26 0 33 37l54 -1q-3 -50 -27.5 -80t-63.5 -30q-32 0 -71 24.5t-52 24.5q-26 0 -33 -37z" />
    <glyph glyph-name="itilde" unicode="&#x129;" horiz-adv-x="291" 
d="M206 0h-122v599l122 6v-605zM52 677l-55 1q3 55 27 89t62 34q32 0 69 -28.5t54 -28.5q25 0 35 46l56 -1q-4 -56 -28.5 -89t-62.5 -33q-31 0 -68 28.5t-53 28.5q-28 0 -36 -47z" />
    <glyph glyph-name="Imacron" unicode="&#x12a;" horiz-adv-x="303" 
d="M86 0v750h131v-750h-131zM293 872v-64h-282v64h282z" />
    <glyph glyph-name="imacron" unicode="&#x12b;" horiz-adv-x="291" 
d="M206 0h-122v599l122 6v-605zM288 774v-77h-282v77h282z" />
    <glyph glyph-name="Ibreve" unicode="&#x12c;" horiz-adv-x="303" 
d="M86 0v750h131v-750h-131zM214 909h89q0 -121 -152 -121t-152 121h89q0 -55 63 -55t63 55z" />
    <glyph glyph-name="ibreve" unicode="&#x12d;" horiz-adv-x="291" 
d="M206 0h-122v599l122 6v-605zM203 803h81q0 -150 -139 -150t-139 150h80q0 -84 59 -84q58 0 58 84z" />
    <glyph glyph-name="Iogonek" unicode="&#x12e;" horiz-adv-x="303" 
d="M86 0v750h131v-750h-10q-25 0 -42.5 -19t-17.5 -42q0 -41 51 -42q26 0 49 12l10 -67q-39 -22 -92 -22t-81 23.5t-28 63.5q0 61 49 93h-19z" />
    <glyph glyph-name="iogonek" unicode="&#x12f;" horiz-adv-x="291" 
d="M158 -179q-54 0 -81 23t-27 61q0 60 56 95h-22v599l122 6v-605h-13q-53 -19 -53 -65q0 -37 50 -38q26 0 49 12l10 -66q-39 -22 -91 -22zM216 740q0 -57 -70 -57q-37 0 -54.5 13t-17.5 44q0 59 72 59q70 0 70 -59z" />
    <glyph glyph-name="Idotaccent" unicode="&#x130;" horiz-adv-x="303" 
d="M86 0v750h131v-750h-131zM225 846q0 -53 -74 -53q-40 0 -57 12.5t-17 40.5q0 53 74 53t74 -53z" />
    <glyph glyph-name="dotlessi" unicode="&#x131;" horiz-adv-x="291" 
d="M206 0h-122v599l122 6v-605z" />
    <glyph glyph-name="IJ" unicode="&#x132;" horiz-adv-x="786" 
d="M87 0v750h131v-750h-131zM711 750v-499q0 -138 -65 -201t-189 -63q-82 0 -136 32l8 115q43 -28 108 -28q71 0 106.5 35.5t35.5 112.5v496h132z" />
    <glyph glyph-name="ij" unicode="&#x133;" horiz-adv-x="563" 
d="M208 0h-122v599l122 6v-605zM218 740q0 -57 -70 -57q-37 0 -54.5 13t-17.5 44q0 59 72 59q70 0 70 -59zM489 605v-606q0 -156 -150 -156q-39 0 -72 13l6 87q21 -7 37 -7q60 0 60 66v597zM498 742q0 -59 -71 -59q-37 0 -54 13.5t-17 45.5q0 59 71 59t71 -59z" />
    <glyph glyph-name="Jcircumflex" unicode="&#x134;" horiz-adv-x="495" 
d="M420 750v-499q0 -138 -65 -201t-189 -63q-82 0 -136 32l8 115q43 -28 108 -28q71 0 106.5 35.5t35.5 112.5v496h132zM286 909h126l103 -115h-108l-57 63l-57 -63h-106z" />
    <glyph glyph-name="jcircumflex" unicode="&#x135;" horiz-adv-x="290" 
d="M206 605v-606q0 -156 -150 -156q-40 0 -72 13l6 87q21 -7 37 -7q60 0 60 66v597zM85 803h102l96 -142h-91l-55 89l-56 -89h-90z" />
    <glyph glyph-name="Kcommaaccent" unicode="&#x136;" horiz-adv-x="645" 
d="M628 0h-155l-189 332h-80v-332h-129v750h128v-308h84l182 308h147l-213 -356zM326 -36q70 0 70 -52q0 -43 -87 -111l-37 13l25 63q-41 9 -41 43q0 44 70 44z" />
    <glyph glyph-name="kcommaaccent" unicode="&#x137;" horiz-adv-x="551" 
d="M189 793v-418h76l133 228h133l-162 -275l168 -328h-134l-137 272h-77v-272h-119v786zM281 -36q70 0 70 -52q0 -43 -87 -111l-37 13l25 63q-41 9 -41 43q0 44 70 44z" />
    <glyph glyph-name="kgreenlandic" unicode="&#x138;" horiz-adv-x="551" 
d="M189 608v-233h76l133 228h133l-162 -275l168 -328h-134l-137 272h-77v-272h-119v601z" />
    <glyph glyph-name="Lacute" unicode="&#x139;" horiz-adv-x="515" 
d="M205 122h292l-4 -122h-418v750h130v-628zM205 909h155l-124 -115h-97z" />
    <glyph glyph-name="lacute" unicode="&#x13a;" horiz-adv-x="278" 
d="M199 0h-120v786l120 7v-793zM143 927h155l-124 -115h-97z" />
    <glyph glyph-name="Lcommaaccent" unicode="&#x13b;" horiz-adv-x="515" 
d="M205 122h292l-4 -122h-418v750h130v-628zM281 -36q70 0 70 -52q0 -43 -87 -111l-37 13l25 63q-41 9 -41 43q0 44 70 44z" />
    <glyph glyph-name="lcommaaccent" unicode="&#x13c;" horiz-adv-x="278" 
d="M199 0h-120v786l120 7v-793zM139 -36q70 0 70 -52q0 -43 -87 -111l-37 13l25 63q-41 9 -41 43q0 44 70 44z" />
    <glyph glyph-name="Lcaron" unicode="&#x13d;" horiz-adv-x="515" 
d="M205 122h292l-4 -122h-418v750h130v-628zM373 758q57 0 57 -53q0 -44 -72 -114l-29 13l22 65q-34 9 -34 44q0 45 56 45z" />
    <glyph glyph-name="lcaron" unicode="&#x13e;" horiz-adv-x="384" 
d="M201 0h-120v786l120 7v-793zM301 758q57 0 57 -53q0 -44 -72 -114l-29 13l22 65q-34 9 -34 44q0 45 56 45z" />
    <glyph glyph-name="Ldot" unicode="&#x13f;" horiz-adv-x="515" 
d="M408 481q0 -65 -66 -65q-35 0 -50.5 15.5t-15.5 49.5q0 65 66 65t66 -65zM205 122h292l-4 -122h-418v750h130v-628z" />
    <glyph glyph-name="ldot" unicode="&#x140;" horiz-adv-x="405" 
d="M366 401q0 -62 -64 -62q-33 0 -48 14.5t-15 47.5q0 61 63 61q64 0 64 -61zM199 0h-120v786l120 7v-793z" />
    <glyph glyph-name="Lslash" unicode="&#x141;" horiz-adv-x="543" 
d="M233 122h292l-4 -122h-418v291l-66 -31l-10 109l76 36v345h130v-289l173 82l11 -114l-184 -84v-223z" />
    <glyph glyph-name="lslash" unicode="&#x142;" horiz-adv-x="337" 
d="M33 346l-2 108l75 39v293l120 7v-248l80 43l1 -104l-81 -45v-439h-120v386z" />
    <glyph glyph-name="Nacute" unicode="&#x143;" horiz-adv-x="682" 
d="M607 0h-93l-283 455l-41 70l-2 -1l1 -81v-443h-114v750h113l264 -436l41 -69l2 1l-2 80v424h114v-750zM346 909h155l-124 -115h-97z" />
    <glyph glyph-name="nacute" unicode="&#x144;" horiz-adv-x="571" 
d="M512 0h-119v402q0 101 -102 101q-31 0 -61 -14.5t-45 -38.5v-450h-119v600l86 6l18 -54q63 61 155 61q88 0 137.5 -54t49.5 -156v-403zM280 803h138l-108 -142h-90z" />
    <glyph glyph-name="Ncommaaccent" unicode="&#x145;" horiz-adv-x="682" 
d="M607 0h-93l-283 455l-41 70l-2 -1l1 -81v-443h-114v750h113l264 -436l41 -69l2 1l-2 80v424h114v-750zM341 -36q70 0 70 -52q0 -43 -87 -111l-37 13l25 63q-41 9 -41 43q0 44 70 44z" />
    <glyph glyph-name="ncommaaccent" unicode="&#x146;" horiz-adv-x="571" 
d="M512 0h-119v402q0 101 -102 101q-31 0 -61 -14.5t-45 -38.5v-450h-119v600l86 6l18 -54q63 61 155 61q88 0 137.5 -54t49.5 -156v-403zM286 -36q70 0 70 -52q0 -43 -87 -111l-37 13l25 63q-41 9 -41 43q0 44 70 44z" />
    <glyph glyph-name="Ncaron" unicode="&#x147;" horiz-adv-x="682" 
d="M607 0h-93l-283 455l-41 70l-2 -1l1 -81v-443h-114v750h113l264 -436l41 -69l2 1l-2 80v424h114v-750zM411 794h-126l-101 115h108l57 -65l57 65h107z" />
    <glyph glyph-name="ncaron" unicode="&#x148;" horiz-adv-x="571" 
d="M512 0h-119v402q0 101 -102 101q-31 0 -61 -14.5t-45 -38.5v-450h-119v600l86 6l18 -54q63 61 155 61q88 0 137.5 -54t49.5 -156v-403zM334 661h-103l-93 142h90l55 -94l55 94h91z" />
    <glyph glyph-name="napostrophe" unicode="&#x149;" horiz-adv-x="592" 
d="M533 0h-119v402q0 101 -102 101q-31 0 -61 -14.5t-45 -38.5v-450h-119v600l86 6l18 -54q63 61 155 61q88 0 137.5 -54t49.5 -156v-403zM62 792q57 0 57 -53q0 -44 -72 -114l-29 13l22 65q-34 9 -34 44q0 45 56 45z" />
    <glyph glyph-name="Eng" unicode="&#x14a;" horiz-adv-x="682" 
d="M607 67q0 -202 -160 -202q-59 0 -96 26l8 84q27 -22 63 -22q31 0 47.5 16t22.5 55l-262 447l-40 71l-2 -1l1 -81v-460h-114v750h113l266 -464l40 -70l2 1l-2 80l-1 453h114v-683z" />
    <glyph glyph-name="eng" unicode="&#x14b;" horiz-adv-x="571" 
d="M512 41q0 -82 -38 -122.5t-108 -40.5q-56 0 -89 22l7 88q20 -17 51 -17q55 0 58 54v377q0 101 -102 101q-31 0 -61.5 -14.5t-45.5 -38.5v-450h-118v600l85 6l18 -55q62 62 156 62q88 0 137.5 -54t49.5 -156v-362z" />
    <glyph glyph-name="Omacron" unicode="&#x14c;" horiz-adv-x="676" 
d="M629 375q0 -212 -67 -300t-224 -88q-154 0 -222.5 90t-68.5 298q0 209 67.5 298t223.5 89t223.5 -89t67.5 -298zM494 375q0 158 -33.5 211.5t-122.5 53.5q-60 0 -92 -21t-48 -78.5t-16 -165.5t16 -165.5t48 -79t92 -21.5q89 0 122.5 54t33.5 212zM482 872v-64h-282v64
h282z" />
    <glyph glyph-name="omacron" unicode="&#x14d;" horiz-adv-x="566" 
d="M528 299q0 -170 -57.5 -241t-186.5 -71t-187.5 71.5t-58.5 240.5t58.5 241.5t187.5 72.5t186.5 -72t57.5 -242zM161 299q0 -121 27.5 -165.5t95.5 -44.5q67 0 93.5 44t26.5 166t-26.5 166t-93.5 44q-68 0 -95.5 -44t-27.5 -166zM425 774v-77h-282v77h282z" />
    <glyph glyph-name="Obreve" unicode="&#x14e;" horiz-adv-x="676" 
d="M629 375q0 -212 -67 -300t-224 -88q-154 0 -222.5 90t-68.5 298q0 209 67.5 298t223.5 89t223.5 -89t67.5 -298zM494 375q0 158 -33.5 211.5t-122.5 53.5q-60 0 -92 -21t-48 -78.5t-16 -165.5t16 -165.5t48 -79t92 -21.5q89 0 122.5 54t33.5 212zM402 909h89
q0 -121 -152 -121t-152 121h89q0 -55 63 -55t63 55z" />
    <glyph glyph-name="obreve" unicode="&#x14f;" horiz-adv-x="566" 
d="M528 299q0 -170 -57.5 -241t-186.5 -71t-187.5 71.5t-58.5 240.5t58.5 241.5t187.5 72.5t186.5 -72t57.5 -242zM161 299q0 -121 27.5 -165.5t95.5 -44.5q67 0 93.5 44t26.5 166t-26.5 166t-93.5 44q-68 0 -95.5 -44t-27.5 -166zM341 803h81q0 -150 -139 -150t-139 150h80
q0 -84 59 -84q58 0 58 84z" />
    <glyph glyph-name="Ohungarumlaut" unicode="&#x150;" horiz-adv-x="676" 
d="M629 375q0 -212 -67 -300t-224 -88q-154 0 -222.5 90t-68.5 298q0 209 67.5 298t223.5 89t223.5 -89t67.5 -298zM494 375q0 158 -33.5 211.5t-122.5 53.5q-60 0 -92 -21t-48 -78.5t-16 -165.5t16 -165.5t48 -79t92 -21.5q89 0 122.5 54t33.5 212zM266 909h123l-87 -116
h-77zM434 909h126l-109 -116h-87z" />
    <glyph glyph-name="ohungarumlaut" unicode="&#x151;" horiz-adv-x="566" 
d="M528 299q0 -170 -57.5 -241t-186.5 -71t-187.5 71.5t-58.5 240.5t58.5 241.5t187.5 72.5t186.5 -72t57.5 -242zM161 299q0 -121 27.5 -165.5t95.5 -44.5q67 0 93.5 44t26.5 166t-26.5 166t-93.5 44q-68 0 -95.5 -44t-27.5 -166zM222 803h123l-100 -142h-78zM390 803h125
l-111 -142h-87z" />
    <glyph glyph-name="OE" unicode="&#x152;" horiz-adv-x="975" 
d="M937 0h-435v70l-3 1q-56 -84 -186 -84q-137 0 -201.5 91t-64.5 297q0 207 64 297t204 90q127 0 185 -74h2v62h421l2 -120h-306v-187h259v-110h-259v-214h321zM493 375q0 158 -33 211.5t-122 53.5q-60 0 -92 -21t-48 -78.5t-16 -165.5t16 -166t48 -79.5t92 -21.5t92 22
t47.5 79.5t15.5 165.5z" />
    <glyph glyph-name="oe" unicode="&#x153;" horiz-adv-x="903" 
d="M678 -11q-152 0 -203 97h-3q-26 -52 -72.5 -75.5t-120.5 -23.5q-123 0 -179.5 72t-56.5 240q0 169 57 241.5t180 72.5q138 0 190 -89q54 88 177 88q104 0 161.5 -67.5t57.5 -209.5q0 -34 -3 -61h-331q4 -98 40.5 -137t117.5 -39q76 0 146 34l13 -104q-73 -39 -171 -39z
M166 299q0 -121 27.5 -165.5t95.5 -44.5q67 0 93.5 44t26.5 166t-26.5 166t-94.5 44t-95 -44t-27 -166zM529 358h227q-1 150 -112 150q-58 0 -84.5 -34.5t-30.5 -115.5z" />
    <glyph glyph-name="Racute" unicode="&#x154;" horiz-adv-x="611" 
d="M554 527q0 -169 -123 -200l167 -327h-149l-135 302h-110v-302h-129v750h236q124 0 183.5 -54t59.5 -169zM421 522q0 64 -25 89t-83 25h-109v-231h106q60 0 85.5 25t25.5 92zM283 909h155l-124 -115h-97z" />
    <glyph glyph-name="racute" unicode="&#x155;" horiz-adv-x="414" 
d="M185 0h-119v599l95 5l10 -108h3q52 116 158 116q33 0 57 -8l-8 -124q-27 8 -56 8q-61 0 -100.5 -47.5t-39.5 -128.5v-312zM199 803h138l-108 -142h-90z" />
    <glyph glyph-name="Rcommaaccent" unicode="&#x156;" horiz-adv-x="611" 
d="M554 527q0 -169 -123 -200l167 -327h-149l-135 302h-110v-302h-129v750h236q124 0 183.5 -54t59.5 -169zM421 522q0 64 -25 89t-83 25h-109v-231h106q60 0 85.5 25t25.5 92zM306 -36q70 0 70 -52q0 -43 -87 -111l-37 13l25 63q-41 9 -41 43q0 44 70 44z" />
    <glyph glyph-name="rcommaaccent" unicode="&#x157;" horiz-adv-x="414" 
d="M185 0h-119v599l95 5l10 -108h3q52 116 158 116q33 0 57 -8l-8 -124q-27 8 -56 8q-61 0 -100.5 -47.5t-39.5 -128.5v-312zM126 -36q70 0 70 -52q0 -43 -87 -111l-37 13l25 63q-41 9 -41 43q0 44 70 44z" />
    <glyph glyph-name="Rcaron" unicode="&#x158;" horiz-adv-x="611" 
d="M554 527q0 -169 -123 -200l167 -327h-149l-135 302h-110v-302h-129v750h236q124 0 183.5 -54t59.5 -169zM421 522q0 64 -25 89t-83 25h-109v-231h106q60 0 85.5 25t25.5 92zM345 794h-126l-101 115h108l57 -65l57 65h107z" />
    <glyph glyph-name="rcaron" unicode="&#x159;" horiz-adv-x="414" 
d="M185 0h-119v599l95 5l10 -108h3q52 116 158 116q33 0 57 -8l-8 -124q-27 8 -56 8q-61 0 -100.5 -47.5t-39.5 -128.5v-312zM270 661h-103l-93 142h90l55 -94l55 94h91z" />
    <glyph glyph-name="Sacute" unicode="&#x15a;" horiz-adv-x="520" 
d="M490 217q0 -109 -64.5 -169.5t-181.5 -60.5q-116 0 -204 53l18 117q88 -52 183 -52q125 0 125 104q0 29 -18 51t-46 36.5t-62.5 28t-69 31.5t-62.5 40.5t-46 60.5t-18 88q0 97 60 157t178 60q104 0 184 -37l-16 -114q-88 31 -160 31q-122 0 -122 -91q0 -32 24 -56
t59.5 -37t77.5 -32.5t77.5 -42t59.5 -65.5t24 -101zM274 909h155l-124 -115h-97z" />
    <glyph glyph-name="sacute" unicode="&#x15b;" horiz-adv-x="451" 
d="M417 181q0 -193 -204 -193q-102 0 -168 42l12 105q66 -43 154 -43q96 0 96 79q0 31 -27.5 51.5t-66.5 34t-77.5 31t-66 54.5t-27.5 94q0 80 52 128t151 48q82 0 150 -31l-9 -103q-69 29 -141 29q-42 0 -65.5 -17.5t-23.5 -47.5t27 -49t65 -31.5t76.5 -30t65.5 -55.5
t27 -95zM229 803h138l-108 -142h-90z" />
    <glyph glyph-name="Scircumflex" unicode="&#x15c;" horiz-adv-x="520" 
d="M490 217q0 -109 -64.5 -169.5t-181.5 -60.5q-116 0 -204 53l18 117q88 -52 183 -52q125 0 125 104q0 29 -18 51t-46 36.5t-62.5 28t-69 31.5t-62.5 40.5t-46 60.5t-18 88q0 97 60 157t178 60q104 0 184 -37l-16 -114q-88 31 -160 31q-122 0 -122 -91q0 -32 24 -56
t59.5 -37t77.5 -32.5t77.5 -42t59.5 -65.5t24 -101zM214 909h126l103 -115h-108l-57 63l-57 -63h-106z" />
    <glyph glyph-name="scircumflex" unicode="&#x15d;" horiz-adv-x="451" 
d="M417 181q0 -193 -204 -193q-102 0 -168 42l12 105q66 -43 154 -43q96 0 96 79q0 31 -27.5 51.5t-66.5 34t-77.5 31t-66 54.5t-27.5 94q0 80 52 128t151 48q82 0 150 -31l-9 -103q-69 29 -141 29q-42 0 -65.5 -17.5t-23.5 -47.5t27 -49t65 -31.5t76.5 -30t65.5 -55.5
t27 -95zM183 803h102l96 -142h-91l-55 89l-56 -89h-90z" />
    <glyph glyph-name="Scedilla" unicode="&#x15e;" horiz-adv-x="520" 
d="M156 -187l57 175q-101 8 -173 52l18 117q88 -52 183 -52q125 0 125 104q0 29 -18 51t-46 36.5t-62.5 28t-69 31.5t-62.5 40.5t-46 60.5t-18 88q0 97 60 157t178 60q104 0 184 -37l-16 -114q-88 31 -160 31q-122 0 -122 -91q0 -32 24 -56t59.5 -37t77.5 -32.5t77.5 -42
t59.5 -65.5t24 -101q0 -97 -50.5 -155.5t-144.5 -70.5l-29 -178h-110z" />
    <glyph glyph-name="scedilla" unicode="&#x15f;" horiz-adv-x="451" 
d="M123 -187l57 176q-81 6 -135 41l12 105q66 -43 154 -43q96 0 96 79q0 31 -27.5 51.5t-66.5 34t-77.5 31t-66 54.5t-27.5 94q0 80 52 128t151 48q82 0 150 -31l-9 -103q-69 29 -141 29q-42 0 -65.5 -17.5t-23.5 -47.5t27 -49t65 -31.5t76.5 -30t65.5 -55.5t27 -95
q0 -167 -155 -189l-29 -179h-110z" />
    <glyph glyph-name="Scaron" unicode="&#x160;" horiz-adv-x="520" 
d="M490 217q0 -109 -64.5 -169.5t-181.5 -60.5q-116 0 -204 53l18 117q88 -52 183 -52q125 0 125 104q0 29 -18 51t-46 36.5t-62.5 28t-69 31.5t-62.5 40.5t-46 60.5t-18 88q0 97 60 157t178 60q104 0 184 -37l-16 -114q-88 31 -160 31q-122 0 -122 -91q0 -32 24 -56
t59.5 -37t77.5 -32.5t77.5 -42t59.5 -65.5t24 -101zM346 794h-126l-101 115h108l57 -65l57 65h107z" />
    <glyph glyph-name="scaron" unicode="&#x161;" horiz-adv-x="451" 
d="M417 181q0 -193 -204 -193q-102 0 -168 42l12 105q66 -43 154 -43q96 0 96 79q0 31 -27.5 51.5t-66.5 34t-77.5 31t-66 54.5t-27.5 94q0 80 52 128t151 48q82 0 150 -31l-9 -103q-69 29 -141 29q-42 0 -65.5 -17.5t-23.5 -47.5t27 -49t65 -31.5t76.5 -30t65.5 -55.5
t27 -95zM286 661h-103l-93 142h90l55 -94l55 94h91z" />
    <glyph glyph-name="Tcommaaccent" unicode="&#x162;" horiz-adv-x="537" 
d="M165 -187l61 187h-23v627h-190l3 123h505l3 -123h-191v-627h-27l-31 -187h-110z" />
    <glyph glyph-name="tcommaaccent" unicode="&#x163;" horiz-adv-x="363" 
d="M151 -187l59 181q-119 19 -119 166v348h-67v95h72l21 140l93 10v-150h129v-95h-129v-345q0 -72 72 -72q26 0 44 7l7 -92q-14 -7 -42 -12l-30 -181h-110z" />
    <glyph glyph-name="Tcaron" unicode="&#x164;" horiz-adv-x="537" 
d="M524 627h-191v-627h-130v627h-190l3 123h505zM331 794h-126l-101 115h108l57 -65l57 65h107z" />
    <glyph glyph-name="tcaron" unicode="&#x165;" horiz-adv-x="411" 
d="M339 508h-129v-345q0 -72 72 -72q26 0 44 7l7 -92q-28 -15 -86 -15q-156 0 -156 169v348h-67v95h72l21 140l93 10v-150h129v-95zM331 792q57 0 57 -53q0 -44 -72 -114l-29 13l22 65q-34 9 -34 44q0 45 56 45z" />
    <glyph glyph-name="Tbar" unicode="&#x166;" horiz-adv-x="537" 
d="M524 627h-191v-135h122v-88h-122v-404h-130v404h-106v88h106v135h-190l3 123h505z" />
    <glyph glyph-name="tbar" unicode="&#x167;" horiz-adv-x="363" 
d="M339 508h-129v-70h129v-92h-129v-183q0 -72 72 -72q26 0 44 7l7 -92q-28 -15 -86 -15q-156 0 -156 169v186h-66v92h66v70h-67v95h72l21 140l93 10v-150h129v-95z" />
    <glyph glyph-name="Utilde" unicode="&#x168;" horiz-adv-x="662" 
d="M598 750v-496q0 -267 -266 -267q-268 0 -268 267v496h129v-494q0 -76 33.5 -111t105.5 -35t105 34.5t33 111.5v494h128zM239 799h-57q3 50 26.5 80.5t63.5 30.5q33 0 73.5 -24.5t53.5 -24.5q26 0 33 37l54 -1q-3 -50 -27.5 -80t-63.5 -30q-32 0 -71 24.5t-52 24.5
q-26 0 -33 -37z" />
    <glyph glyph-name="utilde" unicode="&#x169;" horiz-adv-x="564" 
d="M505 603v-405q0 -209 -223 -209t-223 209v405h119v-403q0 -100 104 -100t104 100v403h119zM190 677l-55 1q3 55 27 89t62 34q32 0 69 -28.5t54 -28.5q25 0 35 46l56 -1q-4 -56 -28.5 -89t-62.5 -33q-31 0 -68 28.5t-53 28.5q-28 0 -36 -47z" />
    <glyph glyph-name="Umacron" unicode="&#x16a;" horiz-adv-x="662" 
d="M598 750v-496q0 -267 -266 -267q-268 0 -268 267v496h129v-494q0 -76 33.5 -111t105.5 -35t105 34.5t33 111.5v494h128zM476 872v-64h-282v64h282z" />
    <glyph glyph-name="umacron" unicode="&#x16b;" horiz-adv-x="564" 
d="M505 603v-405q0 -209 -223 -209t-223 209v405h119v-403q0 -100 104 -100t104 100v403h119zM423 774v-77h-282v77h282z" />
    <glyph glyph-name="Ubreve" unicode="&#x16c;" horiz-adv-x="662" 
d="M598 750v-496q0 -267 -266 -267q-268 0 -268 267v496h129v-494q0 -76 33.5 -111t105.5 -35t105 34.5t33 111.5v494h128zM395 909h89q0 -121 -152 -121t-152 121h89q0 -55 63 -55t63 55z" />
    <glyph glyph-name="ubreve" unicode="&#x16d;" horiz-adv-x="564" 
d="M505 603v-405q0 -209 -223 -209t-223 209v405h119v-403q0 -100 104 -100t104 100v403h119zM339 803h81q0 -150 -139 -150t-139 150h80q0 -84 59 -84q58 0 58 84z" />
    <glyph glyph-name="Uring" unicode="&#x16e;" horiz-adv-x="662" 
d="M598 750v-496q0 -267 -266 -267q-268 0 -268 267v496h129v-494q0 -76 33.5 -111t105.5 -35t105 34.5t33 111.5v494h128zM220 794q0 89 110 89q112 0 112 -89q0 -46 -26.5 -67.5t-85.5 -21.5q-57 0 -83.5 21t-26.5 68zM285 790q0 -34 48 -34q46 0 46 34q0 36 -46 36
q-48 0 -48 -36z" />
    <glyph glyph-name="uring" unicode="&#x16f;" horiz-adv-x="564" 
d="M505 603v-405q0 -209 -223 -209t-223 209v405h119v-403q0 -100 104 -100t104 100v403h119zM178 743q0 83 107 83q53 0 80.5 -22.5t27.5 -60.5q0 -82 -108 -82q-107 0 -107 82zM238 743q0 -34 49 -34q48 0 48 34t-48 34q-49 0 -49 -34z" />
    <glyph glyph-name="Uhungarumlaut" unicode="&#x170;" horiz-adv-x="662" 
d="M598 750v-496q0 -267 -266 -267q-268 0 -268 267v496h129v-494q0 -76 33.5 -111t105.5 -35t105 34.5t33 111.5v494h128zM256 909h123l-87 -116h-77zM424 909h126l-109 -116h-87z" />
    <glyph glyph-name="uhungarumlaut" unicode="&#x171;" horiz-adv-x="564" 
d="M506 603v-405q0 -209 -223 -209t-223 209v405h119v-403q0 -100 104 -100t104 100v403h119zM213 803h123l-100 -142h-78zM381 803h125l-111 -142h-87z" />
    <glyph glyph-name="Uogonek" unicode="&#x172;" horiz-adv-x="662" 
d="M400 -179q-54 0 -81 23t-27 61q0 49 40 84q-268 -2 -268 265v496h129v-494q0 -76 33.5 -111t105.5 -35t105 34.5t33 111.5v494h128v-496q0 -212 -167 -255q-49 -20 -49 -64q0 -37 50 -38q26 0 49 12l10 -66q-39 -22 -91 -22z" />
    <glyph glyph-name="uogonek" unicode="&#x173;" horiz-adv-x="564" 
d="M333 -179q-55 0 -81.5 23t-26.5 61q0 50 42 86q-207 6 -207 207v405h119v-403q0 -100 104 -100t104 100v403h119v-405q0 -170 -147 -201q-44 -21 -44 -62q0 -37 50 -38q27 0 49 12l10 -66q-39 -22 -91 -22z" />
    <glyph glyph-name="Wcircumflex" unicode="&#x174;" horiz-adv-x="929" 
d="M397 750h139l107 -541l15 -79h3l12 80l95 540h128l-160 -750h-155l-102 537l-13 81h-3l-14 -81l-101 -537h-155l-160 750h133l94 -543l13 -80h3l14 79zM399 909h126l103 -115h-108l-57 63l-57 -63h-106z" />
    <glyph glyph-name="wcircumflex" unicode="&#x175;" horiz-adv-x="807" 
d="M343 603h126l84 -420l15 -79h3l11 80l72 419h117l-126 -603h-147l-75 396l-13 81h-3l-14 -81l-76 -396h-146l-134 603h119l76 -419l13 -80h3l13 80zM350 803h102l96 -142h-91l-55 89l-56 -89h-90z" />
    <glyph glyph-name="Ycircumflex" unicode="&#x176;" horiz-adv-x="620" 
d="M12 750h145l127 -310l29 -75h3l28 75l123 310h140l-229 -507v-243h-132v243zM249 909h126l103 -115h-108l-57 63l-57 -63h-106z" />
    <glyph glyph-name="ycircumflex" unicode="&#x177;" horiz-adv-x="588" 
d="M166 -67q63 0 89 64l3 9l-236 597h137l132 -401l24 -77h3l18 78l103 400h127l-191 -601q-28 -86 -74 -123.5t-115 -37.5q-50 0 -90 17l11 89q28 -14 59 -14zM252 803h102l96 -142h-91l-55 89l-56 -89h-90z" />
    <glyph glyph-name="Ydieresis" unicode="&#x178;" horiz-adv-x="620" 
d="M12 750h145l127 -310l29 -75h3l28 75l123 310h140l-229 -507v-243h-132v243zM276 849q0 -53 -53 -53t-53 53q0 54 53 54t53 -54zM457 849q0 -53 -54 -53q-53 0 -53 53q0 54 53 54q54 0 54 -54z" />
    <glyph glyph-name="Zacute" unicode="&#x179;" horiz-adv-x="558" 
d="M514 0h-478v89l286 471l44 66l-2 2h-320l5 122h467v-99l-280 -461l-43 -65l1 -3h323zM287 909h155l-124 -115h-97z" />
    <glyph glyph-name="zacute" unicode="&#x17a;" horiz-adv-x="489" 
d="M441 515l-219 -344l-44 -64l1 -3h269l-4 -104h-399v88l217 341l44 66l-1 2h-252l4 106h384v-88zM243 803h138l-108 -142h-90z" />
    <glyph glyph-name="Zdotaccent" unicode="&#x17b;" horiz-adv-x="558" 
d="M514 0h-478v89l286 471l44 66l-2 2h-320l5 122h467v-99l-280 -461l-43 -65l1 -3h323zM360 846q0 -53 -74 -53q-40 0 -57 12.5t-17 40.5q0 53 74 53t74 -53z" />
    <glyph glyph-name="zdotaccent" unicode="&#x17c;" horiz-adv-x="489" 
d="M441 515l-219 -344l-44 -64l1 -3h269l-4 -104h-399v88l217 341l44 66l-1 2h-252l4 106h384v-88zM320 742q0 -59 -71 -59q-36 0 -53.5 13.5t-17.5 45.5q0 59 71 59t71 -59z" />
    <glyph glyph-name="Zcaron" unicode="&#x17d;" horiz-adv-x="558" 
d="M514 0h-478v89l286 471l44 66l-2 2h-320l5 122h467v-99l-280 -461l-43 -65l1 -3h323zM347 794h-126l-101 115h108l57 -65l57 65h107z" />
    <glyph glyph-name="zcaron" unicode="&#x17e;" horiz-adv-x="489" 
d="M441 515l-219 -344l-44 -64l1 -3h269l-4 -104h-399v88l217 341l44 66l-1 2h-252l4 106h384v-88zM300 661h-103l-93 142h90l55 -94l55 94h91z" />
    <glyph glyph-name="longs" unicode="&#x17f;" horiz-adv-x="293" 
d="M20 513l4 83h67q2 113 54.5 160.5t184.5 47.5l7 -86q-71 0 -100 -24.5t-29 -98.5v-506q0 -119 -55 -175.5t-163 -67.5l-10 82q61 12 86 45.5t25 115.5v424h-71z" />
    <glyph glyph-name="uni018F" unicode="&#x18f;" horiz-adv-x="674" 
d="M50 424h443q-1 33 -6 62q-14 98 -58.5 134.5t-133.5 36.5q-110 0 -190 -32l-14 97q92 39 222 39q133 0 209.5 -64t96.5 -208q7 -48 7 -114q0 -208 -66.5 -298t-222.5 -90q-128 0 -195 58.5t-85 190.5q-9 63 -9 127q0 13 2 61zM336 90q84 0 119 50.5t39 194.5h-314
q0 -57 6 -99q11 -81 46 -113.5t104 -32.5z" />
    <glyph glyph-name="florin" unicode="&#x192;" horiz-adv-x="385" 
d="M101 -147h-118l133 654h-56l19 95h56l9 47q13 64 61 102t125 38q47 0 81 -12l-24 -84q-22 8 -49 8q-64 0 -75 -56l-9 -43h120l-19 -95h-120z" />
    <glyph glyph-name="uni01B5" unicode="&#x1b5;" horiz-adv-x="558" 
d="M514 0h-478v89l158 260h-124l5 82h168l79 129l44 66l-2 2h-320l5 122h467v-99l-134 -220h120l-5 -82h-165l-96 -159l-43 -65l1 -3h323z" />
    <glyph glyph-name="uni01B6" unicode="&#x1b6;" horiz-adv-x="489" 
d="M441 515l-109 -171h89l-4 -69h-129l-66 -104l-44 -64l1 -3h269l-4 -104h-399v88l119 187h-85l4 69h125l54 85l44 66l-1 2h-252l4 106h384v-88z" />
    <glyph glyph-name="Aringacute" unicode="&#x1fa;" horiz-adv-x="654" 
d="M213 801q0 83 96 88l33 59h155l-89 -83q27 -23 27 -64q0 -45 -26 -67l234 -734h-144l-44 163h-264l-44 -163h-136l230 732q-28 21 -28 69zM324 651l-20 -79l-82 -295h203l-79 295l-19 79h-3zM278 797q0 -34 48 -34q46 0 46 34q0 36 -46 36q-48 0 -48 -36z" />
    <glyph glyph-name="aringacute" unicode="&#x1fb;" horiz-adv-x="529" 
d="M380 0l-10 63l-3 1q-52 -73 -153 -73q-81 0 -126.5 48.5t-45.5 147.5q0 86 52 135.5t147 49.5q61 0 112 -18v49q0 57 -27 81t-88 24q-78 0 -152 -34l-10 101q79 38 183 38q115 0 163.5 -53t48.5 -175v-385h-91zM295 924h138l-91 -119q30 -23 30 -62q0 -82 -108 -82
q-107 0 -107 82q0 79 96 83zM353 174v94q-30 17 -90 17q-108 0 -108 -97t91 -97q42 0 74.5 25t32.5 58zM217 743q0 -34 49 -34q48 0 48 34t-48 34q-49 0 -49 -34z" />
    <glyph glyph-name="AEacute" unicode="&#x1fc;" horiz-adv-x="954" 
d="M908 630h-315l13 -187h250v-110h-243l15 -214h290l-3 -119h-408l-11 163h-248l-71 -163h-150l363 750h515zM463 661l-31 -75l-135 -310h192l-20 303l-3 81zM604 909h155l-124 -115h-97z" />
    <glyph glyph-name="aeacute" unicode="&#x1fd;" horiz-adv-x="837" 
d="M259 612q122 0 164 -70q58 70 163 70q100 0 157 -68t57 -209q0 -34 -3 -61h-332q4 -98 41 -137t118 -39q76 0 146 34l13 -104q-73 -39 -174 -39q-145 0 -205 91q-57 -90 -178 -90q-184 0 -184 196q0 86 52 135.5t147 49.5q60 0 112 -19v50q0 57 -27 81t-88 24
q-78 0 -152 -34l-10 101q84 38 183 38zM353 184v83q-30 17 -90 17q-109 0 -109 -97t92 -97q46 0 76.5 26t30.5 68zM464 358h226q-1 150 -111 150q-58 0 -84.5 -34.5t-30.5 -115.5zM419 803h138l-108 -142h-90z" />
    <glyph glyph-name="Oslashacute" unicode="&#x1fe;" horiz-adv-x="676" 
d="M343 909h155l-124 -115h-97zM98 -14l-63 55l55 79q-42 88 -42 255q0 209 67.5 298t223.5 89q135 0 201 -65l50 65l62 -57l-61 -83q39 -87 39 -247q0 -212 -67 -300t-224 -88q-130 0 -197 61zM183 375q0 -79 8 -137l271 347q-33 55 -123 55q-60 0 -92 -21t-48 -78.5
t-16 -165.5zM495 375q0 79 -6 131l-271 -346q33 -51 122 -51q60 0 92 22t47.5 79t15.5 165z" />
    <glyph glyph-name="oslashacute" unicode="&#x1ff;" horiz-adv-x="566" 
d="M81 -9l-51 46l43 59q-35 70 -35 203q0 169 59 241.5t187 72.5q101 0 157 -43l33 45l51 -45l-39 -54q42 -75 42 -217q0 -170 -57.5 -241t-186.5 -71q-111 0 -168 51zM405 299q0 33 -5 105l-216 -262q26 -53 100 -53q67 0 94 44.5t27 165.5zM161 299q0 -49 3 -87l212 256
q-27 41 -92 41q-68 0 -95.5 -44t-27.5 -166zM288 803h138l-108 -142h-90z" />
    <glyph glyph-name="Scommaaccent" unicode="&#x218;" horiz-adv-x="520" 
d="M490 217q0 -109 -64.5 -169.5t-181.5 -60.5q-116 0 -204 53l18 117q88 -52 183 -52q125 0 125 104q0 29 -18 51t-46 36.5t-62.5 28t-69 31.5t-62.5 40.5t-46 60.5t-18 88q0 97 60 157t178 60q104 0 184 -37l-16 -114q-88 31 -160 31q-122 0 -122 -91q0 -32 24 -56
t59.5 -37t77.5 -32.5t77.5 -42t59.5 -65.5t24 -101zM257 -36q70 0 70 -52q0 -43 -87 -111l-37 13l25 63q-41 9 -41 43q0 44 70 44z" />
    <glyph glyph-name="scommaaccent" unicode="&#x219;" horiz-adv-x="451" 
d="M417 181q0 -193 -204 -193q-102 0 -168 42l12 105q66 -43 154 -43q96 0 96 79q0 31 -27.5 51.5t-66.5 34t-77.5 31t-66 54.5t-27.5 94q0 80 52 128t151 48q82 0 150 -31l-9 -103q-69 29 -141 29q-42 0 -65.5 -17.5t-23.5 -47.5t27 -49t65 -31.5t76.5 -30t65.5 -55.5
t27 -95zM229 -36q70 0 70 -52q0 -43 -87 -111l-37 13l25 63q-41 9 -41 43q0 44 70 44z" />
    <glyph glyph-name="uni021A" unicode="&#x21a;" horiz-adv-x="537" 
d="M524 627h-191v-627h-130v627h-190l3 123h505zM267 -36q70 0 70 -52q0 -43 -87 -111l-37 13l25 63q-41 9 -41 43q0 44 70 44z" />
    <glyph glyph-name="uni021B" unicode="&#x21b;" horiz-adv-x="363" 
d="M339 508h-129v-345q0 -72 72 -72q26 0 44 7l7 -92q-28 -15 -86 -15q-156 0 -156 169v348h-67v95h72l21 140l93 10v-150h129v-95zM217 -36q70 0 70 -52q0 -43 -87 -111l-37 13l25 63q-41 9 -41 43q0 44 70 44z" />
    <glyph glyph-name="dotlessj" unicode="&#x237;" horiz-adv-x="290" 
d="M206 605v-606q0 -156 -150 -156q-40 0 -72 13l6 87q21 -7 37 -7q60 0 60 66v597z" />
    <glyph glyph-name="uni0259" unicode="&#x259;" horiz-adv-x="481" 
d="M214 -10q-78 0 -123 34t-53 96q-2 11 -2 34q0 176 293 221l-2 15q-10 70 -40 97.5t-85 27.5q-81 0 -130 -49l-42 71q67 74 191 74q190 0 220 -218q7 -49 7 -95q0 -308 -234 -308zM214 80q61 0 89.5 50.5t29.5 163.5q-194 -32 -194 -142q0 -72 75 -72z" />
    <glyph glyph-name="circumflex" unicode="&#x2c6;" 
d="M138 803h102l96 -142h-91l-55 89l-56 -89h-90z" />
    <glyph glyph-name="caron" unicode="&#x2c7;" 
d="M241 661h-103l-93 142h90l55 -94l55 94h91z" />
    <glyph glyph-name="breve" unicode="&#x2d8;" 
d="M247 803h81q0 -150 -139 -150t-139 150h80q0 -84 59 -84q58 0 58 84z" />
    <glyph glyph-name="dotaccent" unicode="&#x2d9;" 
d="M260 742q0 -59 -71 -59q-36 0 -53.5 13.5t-17.5 45.5q0 59 71 59t71 -59z" />
    <glyph glyph-name="ring" unicode="&#x2da;" 
d="M83 743q0 83 107 83q53 0 80.5 -22.5t27.5 -60.5q0 -82 -108 -82q-107 0 -107 82zM143 743q0 -34 49 -34q48 0 48 34t-48 34q-49 0 -49 -34z" />
    <glyph glyph-name="ogonek" unicode="&#x2db;" 
d="M243 -179q-55 0 -81.5 23t-26.5 61q0 80 95 113l48 -18q-53 -19 -53 -65q0 -37 50 -38q27 0 49 12l10 -66q-39 -22 -91 -22z" />
    <glyph glyph-name="tilde" unicode="&#x2dc;" 
d="M100 677l-55 1q3 55 27 89t62 34q26 0 48 -14.5t40.5 -28.5t34.5 -14q25 0 35 46l56 -1q-4 -56 -28.5 -89t-62.5 -33q-31 0 -68 28.5t-53 28.5q-28 0 -36 -47z" />
    <glyph glyph-name="hungarumlaut" unicode="&#x2dd;" 
d="M132 803h123l-100 -142h-78zM300 803h125l-111 -142h-87z" />
    <glyph glyph-name="uni0394" unicode="&#x394;" horiz-adv-x="678" 
d="M381 754l262 -754h-610l263 754h85zM337 592l-24 -78l-136 -405h320l-134 405l-23 78h-3z" />
    <glyph glyph-name="uni03A9" unicode="&#x3a9;" horiz-adv-x="675" 
d="M337 761q140 0 213 -77.5t73 -244.5q0 -202 -151 -326v-3h154v-110h-259v162q122 115 122 272q0 113 -36 160t-116 47q-79 0 -115 -47t-36 -160q0 -158 122 -272v-162h-260v110h155l1 3q-152 120 -152 326q0 322 285 322z" />
    <glyph glyph-name="uni03BC" unicode="&#x3bc;" horiz-adv-x="570" 
d="M296 -10q-87 0 -126 69l-2 -1q5 -119 13 -203l-115 -9v757h119v-405q0 -45 29.5 -71.5t77.5 -26.5q46 0 73.5 22.5t27.5 66.5v414h119v-600l-84 -8l-15 46h-3q-38 -51 -114 -51z" />
    <glyph glyph-name="pi" unicode="&#x3c0;" horiz-adv-x="620" 
d="M388 154v341h-153v-495h-119v494q-48 -1 -73 -19l-28 97q42 31 146 31h420v-107h-75v-342q0 -37 12.5 -51t45.5 -14v-93q-103 0 -139.5 34t-36.5 124z" />
    <glyph glyph-name="Wgrave" unicode="&#x1e80;" horiz-adv-x="929" 
d="M397 750h139l107 -541l15 -79h3l12 80l95 540h128l-160 -750h-155l-102 537l-13 81h-3l-14 -81l-101 -537h-155l-160 750h133l94 -543l13 -80h3l14 79zM522 795h-97l-117 115h144z" />
    <glyph glyph-name="wgrave" unicode="&#x1e81;" horiz-adv-x="807" 
d="M343 603h126l84 -420l15 -79h3l11 80l72 419h117l-126 -603h-147l-75 396l-13 81h-3l-14 -81l-76 -396h-146l-134 603h119l76 -419l13 -80h3l13 80zM465 661h-91l-106 142h138z" />
    <glyph glyph-name="Wacute" unicode="&#x1e82;" horiz-adv-x="929" 
d="M397 750h139l107 -541l15 -79h3l12 80l95 540h128l-160 -750h-155l-102 537l-13 81h-3l-14 -81l-101 -537h-155l-160 750h133l94 -543l13 -80h3l14 79zM477 909h155l-124 -115h-97z" />
    <glyph glyph-name="wacute" unicode="&#x1e83;" horiz-adv-x="807" 
d="M343 603h126l84 -420l15 -79h3l11 80l72 419h117l-126 -603h-147l-75 396l-13 81h-3l-14 -81l-76 -396h-146l-134 603h119l76 -419l13 -80h3l13 80zM412 803h138l-108 -142h-90z" />
    <glyph glyph-name="Wdieresis" unicode="&#x1e84;" horiz-adv-x="929" 
d="M397 750h139l107 -541l15 -79h3l12 80l95 540h128l-160 -750h-155l-102 537l-13 81h-3l-14 -81l-101 -537h-155l-160 750h133l94 -543l13 -80h3l14 79zM427 849q0 -53 -53 -53t-53 53q0 54 53 54t53 -54zM608 849q0 -53 -54 -53q-53 0 -53 53q0 54 53 54q54 0 54 -54z
" />
    <glyph glyph-name="wdieresis" unicode="&#x1e85;" horiz-adv-x="807" 
d="M343 603h126l84 -420l15 -79h3l11 80l72 419h117l-126 -603h-147l-75 396l-13 81h-3l-14 -81l-76 -396h-146l-134 603h119l76 -419l13 -80h3l13 80zM374 742q0 -56 -54 -56t-54 56q0 57 54 57t54 -57zM536 742q0 -56 -54 -56t-54 56q0 57 54 57t54 -57z" />
    <glyph glyph-name="uni1E8A" unicode="&#x1e8a;" horiz-adv-x="638" 
d="M603 750l-192 -359l202 -391h-146l-114 238l-32 74h-3l-33 -74l-111 -238h-149l199 388l-193 362h151l102 -210l34 -73h3l33 73l103 210h146zM393 846q0 -53 -74 -53q-40 0 -57 12.5t-17 40.5q0 53 74 53t74 -53z" />
    <glyph glyph-name="uni1E8B" unicode="&#x1e8b;" horiz-adv-x="559" 
d="M394 0l-84 176l-33 74h-3l-33 -74l-82 -176h-131l168 305l-165 298h138l80 -167l33 -73h3l32 74l77 166h133l-160 -295l165 -308h-138zM354 742q0 -59 -71 -59q-36 0 -53.5 13.5t-17.5 45.5q0 59 71 59t71 -59z" />
    <glyph glyph-name="Ygrave" unicode="&#x1ef2;" horiz-adv-x="620" 
d="M12 750h145l127 -310l29 -75h3l28 75l123 310h140l-229 -507v-243h-132v243zM377 795h-97l-117 115h144z" />
    <glyph glyph-name="ygrave" unicode="&#x1ef3;" horiz-adv-x="588" 
d="M166 -67q63 0 89 64l3 9l-236 597h137l132 -401l24 -77h3l18 78l103 400h127l-191 -601q-28 -86 -74 -123.5t-115 -37.5q-50 0 -90 17l11 89q28 -14 59 -14zM362 661h-91l-106 142h138z" />
    <glyph glyph-name="uni2007" unicode="&#x2007;" horiz-adv-x="589" 
 />
    <glyph glyph-name="uni2008" unicode="&#x2008;" horiz-adv-x="242" 
 />
    <glyph glyph-name="uni200B" unicode="&#x200b;" horiz-adv-x="0" 
 />
    <glyph glyph-name="endash" unicode="&#x2013;" horiz-adv-x="483" 
d="M55 389h372v-92h-372v92z" />
    <glyph glyph-name="emdash" unicode="&#x2014;" horiz-adv-x="654" 
d="M55 389h544v-92h-544v92z" />
    <glyph glyph-name="quoteleft" unicode="&#x2018;" horiz-adv-x="227" 
d="M114 549q-36 0 -54 20.5t-18 56.5q0 33 25 93t54 102l42 -11l-24 -120q18 -8 31.5 -26.5t13.5 -40.5q0 -74 -70 -74z" />
    <glyph glyph-name="quoteright" unicode="&#x2019;" horiz-adv-x="227" 
d="M113 786q36 0 54 -20.5t18 -56.5q0 -33 -25 -93t-54 -102l-42 11l24 120q-18 8 -31.5 26.5t-13.5 40.5q0 74 70 74z" />
    <glyph glyph-name="quotesinglbase" unicode="&#x201a;" horiz-adv-x="227" 
d="M113 131q36 0 54 -20.5t18 -56.5q0 -33 -25 -93t-54 -102l-42 11l24 120q-18 8 -31.5 26.5t-13.5 40.5q0 74 70 74z" />
    <glyph glyph-name="quotedblleft" unicode="&#x201c;" horiz-adv-x="414" 
d="M301 549q-36 0 -54 20.5t-18 56.5q0 33 25 93t54 102l42 -11l-24 -120q18 -8 31.5 -26.5t13.5 -40.5q0 -74 -70 -74zM114 549q-36 0 -54 20.5t-18 56.5q0 33 25 93t54 102l42 -11l-24 -120q18 -8 31.5 -26.5t13.5 -40.5q0 -74 -70 -74z" />
    <glyph glyph-name="quotedblright" unicode="&#x201d;" horiz-adv-x="414" 
d="M113 785q36 0 54 -20.5t18 -56.5q0 -33 -25 -93t-54 -102l-42 11l24 120q-18 8 -31.5 26.5t-13.5 40.5q0 74 70 74zM300 785q36 0 54 -20.5t18 -56.5q0 -33 -25 -93t-54 -102l-42 11l24 120q-18 8 -31.5 26.5t-13.5 40.5q0 74 70 74z" />
    <glyph glyph-name="quotedblbase" unicode="&#x201e;" horiz-adv-x="414" 
d="M113 131q36 0 54 -20.5t18 -56.5q0 -33 -25 -93t-54 -102l-42 11l24 120q-18 8 -31.5 26.5t-13.5 40.5q0 74 70 74zM300 131q36 0 54 -20.5t18 -56.5q0 -33 -25 -93t-54 -102l-42 11l24 120q-18 8 -31.5 26.5t-13.5 40.5q0 74 70 74z" />
    <glyph glyph-name="dagger" unicode="&#x2020;" horiz-adv-x="465" 
d="M33 609l148 -9l-11 187h121l-9 -187l150 9v-117l-150 9l9 -641h-121l11 641l-148 -9v117z" />
    <glyph glyph-name="daggerdbl" unicode="&#x2021;" horiz-adv-x="465" 
d="M432 158v-117l-151 10l10 -192h-121l11 192l-148 -10v117l149 -8l-1 351l-148 -9v117l148 -9l-11 187h121l-9 -187l150 9v-117l-150 9v-351z" />
    <glyph glyph-name="bullet" unicode="&#x2022;" horiz-adv-x="388" 
d="M51 324q0 144 141 144t141 -144q0 -146 -141 -146t-141 146z" />
    <glyph glyph-name="ellipsis" unicode="&#x2026;" horiz-adv-x="649" 
d="M601 61q0 -72 -73 -72q-38 0 -55 17t-17 55q0 72 72 72q73 0 73 -72zM401 61q0 -72 -73 -72q-38 0 -55 17t-17 55q0 72 72 72q73 0 73 -72zM194 61q0 -72 -73 -72q-38 0 -55 17t-17 55q0 72 72 72q73 0 73 -72z" />
    <glyph glyph-name="perthousand" unicode="&#x2030;" horiz-adv-x="977" 
d="M314 588q0 -173 -140 -173q-71 0 -105 42t-34 131q0 91 33 132t107 41q70 0 104.5 -40t34.5 -133zM234 589q0 54 -14 74t-45 20t-45 -20t-14 -74t14 -74t45 -20t45 20t14 74zM484 719l71 -56l-380 -636l-71 56zM636 164q0 -173 -140 -173q-72 0 -105.5 42t-33.5 131
q0 92 33 133.5t106 41.5q70 0 105 -41t35 -134zM555 164q0 53 -14 72.5t-45 19.5t-44.5 -19t-13.5 -73t13.5 -73t44.5 -19q32 0 45.5 19t13.5 73zM942 164q0 -173 -141 -173q-71 0 -105 42t-34 131q0 92 33.5 133.5t106.5 41.5q70 0 105 -41t35 -134zM861 164q0 53 -14 72.5
t-45 19.5t-45 -19t-14 -73t14 -73t44 -19q32 0 46 19t14 73z" />
    <glyph glyph-name="guilsinglleft" unicode="&#x2039;" horiz-adv-x="374" 
d="M320 426l-166 -106l166 -105v-97l-285 198v9l285 198v-97z" />
    <glyph glyph-name="guilsinglright" unicode="&#x203a;" horiz-adv-x="374" 
d="M54 118v97l165 105l-165 106v97l285 -198v-9z" />
    <glyph glyph-name="fraction" unicode="&#x2044;" horiz-adv-x="279" 
d="M343 750h87l-466 -750h-86z" />
    <glyph glyph-name="uni2070" unicode="&#x2070;" horiz-adv-x="346" 
d="M322 687q0 -106 -35.5 -153.5t-113.5 -47.5t-113 47.5t-35 153.5q0 110 35 156.5t114 46.5t113.5 -46.5t34.5 -156.5zM236 688q0 76 -14 102t-48 26q-35 0 -49.5 -25.5t-14.5 -102.5t14.5 -103t49.5 -26q34 0 48 26t14 103z" />
    <glyph glyph-name="uni2074" unicode="&#x2074;" horiz-adv-x="346" 
d="M331 566h-38v-75h-81v75h-184l-7 53l167 266h105v-247h40zM215 638l2 87l5 80h-3l-60 -99l-43 -65l1 -3h98z" />
    <glyph glyph-name="uni2075" unicode="&#x2075;" horiz-adv-x="346" 
d="M316 627q0 -141 -147 -141q-73 0 -123 27l13 69q51 -24 102 -24q38 0 53.5 14.5t15.5 48.5q0 50 -67 50q-48 0 -81 -12l-33 31l17 195h228l3 -76h-163l-5 -72q30 5 57 5q130 0 130 -115z" />
    <glyph glyph-name="uni2076" unicode="&#x2076;" horiz-adv-x="346" 
d="M321 629q0 -143 -142 -143q-75 0 -113 45.5t-38 146.5q0 105 45 158.5t131 53.5q55 0 93 -15l-5 -72q-35 12 -77 12q-48 0 -71.5 -21t-30.5 -67l2 -2q36 22 79 22q127 0 127 -118zM235 629q0 52 -57 52q-43 0 -61 -25q1 -55 15 -76.5t47 -21.5q56 0 56 71z" />
    <glyph glyph-name="uni2077" unicode="&#x2077;" horiz-adv-x="346" 
d="M318 885v-74l-148 -320h-100l156 313h-197l4 81h285z" />
    <glyph glyph-name="uni2078" unicode="&#x2078;" horiz-adv-x="346" 
d="M25 606q0 58 56 91q-41 32 -41 88q0 105 134 105q133 0 133 -105q0 -51 -44 -84q58 -30 58 -95q0 -120 -147 -120q-149 0 -149 120zM236 599q0 16 -12 28.5t-24.5 18t-38.5 14.5l-12 4q-40 -24 -40 -59q0 -28 15.5 -40t51.5 -12q60 0 60 46zM121 781q0 -22 18 -33.5
t56 -22.5q33 24 33 52q0 46 -54 46q-53 0 -53 -42z" />
    <glyph glyph-name="uni2079" unicode="&#x2079;" horiz-adv-x="346" 
d="M317 704q0 -114 -41 -166t-126 -52q-54 0 -100 18l12 70q43 -16 82 -16q45 0 68.5 25.5t27.5 82.5l-2 1q-30 -26 -79 -26q-67 0 -99.5 31.5t-32.5 87.5q0 61 35.5 96t105.5 35q76 0 112.5 -46t36.5 -141zM231 731q0 50 -15 69t-50 19q-56 0 -56 -55q0 -29 14 -43.5
t46 -14.5q44 0 61 25z" />
    <glyph glyph-name="uni207A" unicode="&#x207a;" horiz-adv-x="348" 
d="M311 654h-102v-103h-72v103h-100v76h100v104h72v-104h102v-76z" />
    <glyph glyph-name="uni207B" unicode="&#x207b;" horiz-adv-x="348" 
d="M305 659h-263v74h263v-74z" />
    <glyph glyph-name="uni207C" unicode="&#x207c;" horiz-adv-x="348" 
d="M303 721h-258v65h258v-65zM303 600h-258v66h258v-66z" />
    <glyph glyph-name="uni207D" unicode="&#x207d;" horiz-adv-x="200" 
d="M137 916l59 -6q-65 -103 -65 -237q0 -133 65 -238l-59 -5q-85 91 -85 243q0 148 85 243z" />
    <glyph glyph-name="uni207E" unicode="&#x207e;" horiz-adv-x="200" 
d="M4 910l60 6q83 -95 83 -243q0 -152 -83 -243l-60 5q64 104 64 238q0 136 -64 237z" />
    <glyph glyph-name="uni2080" unicode="&#x2080;" horiz-adv-x="346" 
d="M322 49q0 -106 -35.5 -153.5t-113.5 -47.5t-113 47.5t-35 153.5q0 110 35 156.5t114 46.5t113.5 -46.5t34.5 -156.5zM236 50q0 76 -14 102t-48 26q-35 0 -49.5 -25.5t-14.5 -102.5t14.5 -103t49.5 -26q34 0 48 26t14 103z" />
    <glyph glyph-name="uni2081" unicode="&#x2081;" horiz-adv-x="256" 
d="M203 248v-395h-88v209l3 79l-3 1l-73 -44l-8 72l115 78h54z" />
    <glyph glyph-name="uni2082" unicode="&#x2082;" horiz-adv-x="335" 
d="M304 136q0 -50 -38 -95.5t-119 -109.5v-3h157l-1 -75h-266v57q13 13 39.5 38t38.5 37l31.5 31.5t28.5 31.5t19.5 27.5t14.5 28t4 24.5q0 48 -61 48q-47 0 -97 -35l-21 71q57 40 134 40q67 0 101.5 -31t34.5 -85z" />
    <glyph glyph-name="uni2083" unicode="&#x2083;" horiz-adv-x="335" 
d="M307 -29q0 -123 -154 -123q-72 0 -122 30l18 68q49 -27 103 -27q71 0 71 56q0 27 -22.5 39.5t-83.5 12.5v61q57 0 79 12t22 38q0 41 -64 41q-59 0 -103 -34l-20 66q53 41 128 41q66 0 103 -28t37 -80q0 -60 -57 -84v-2q65 -22 65 -87z" />
    <glyph glyph-name="uni2084" unicode="&#x2084;" horiz-adv-x="346" 
d="M331 -72h-38v-75h-81v75h-184l-7 53l167 266h105v-247h40zM215 0l2 87l5 80h-3l-60 -99l-43 -65l1 -3h98z" />
    <glyph glyph-name="uni2085" unicode="&#x2085;" horiz-adv-x="346" 
d="M316 -11q0 -141 -147 -141q-73 0 -123 27l13 69q51 -24 102 -24q38 0 53.5 14.5t15.5 48.5q0 50 -67 50q-48 0 -81 -12l-33 31l17 195h228l3 -76h-163l-5 -72q30 5 57 5q130 0 130 -115z" />
    <glyph glyph-name="uni2086" unicode="&#x2086;" horiz-adv-x="346" 
d="M321 -9q0 -143 -142 -143q-75 0 -113 45.5t-38 146.5q0 105 45 158.5t131 53.5q55 0 93 -15l-5 -72q-35 12 -77 12q-48 0 -71.5 -21t-30.5 -67l2 -2q36 22 79 22q127 0 127 -118zM235 -9q0 52 -57 52q-43 0 -61 -25q1 -55 15 -76.5t47 -21.5q56 0 56 71z" />
    <glyph glyph-name="uni2087" unicode="&#x2087;" horiz-adv-x="346" 
d="M318 247v-74l-148 -320h-100l156 313h-197l4 81h285z" />
    <glyph glyph-name="uni2088" unicode="&#x2088;" horiz-adv-x="346" 
d="M25 -32q0 58 56 91q-41 32 -41 88q0 105 134 105q133 0 133 -105q0 -51 -44 -84q58 -30 58 -95q0 -120 -147 -120q-149 0 -149 120zM236 -39q0 16 -12 28.5t-24.5 18t-38.5 14.5l-12 4q-40 -24 -40 -59q0 -28 15.5 -40t51.5 -12q60 0 60 46zM121 143q0 -22 18 -33.5
t56 -22.5q33 24 33 52q0 46 -54 46q-53 0 -53 -42z" />
    <glyph glyph-name="uni2089" unicode="&#x2089;" horiz-adv-x="346" 
d="M317 66q0 -114 -41 -166t-126 -52q-54 0 -100 18l12 70q43 -16 82 -16q45 0 68.5 25.5t27.5 82.5l-2 1q-30 -26 -79 -26q-67 0 -99.5 31.5t-32.5 87.5q0 61 35.5 96t105.5 35q76 0 112.5 -46t36.5 -141zM231 93q0 50 -15 69t-50 19q-56 0 -56 -55q0 -29 14 -43.5
t46 -14.5q44 0 61 25z" />
    <glyph glyph-name="uni208A" unicode="&#x208a;" horiz-adv-x="348" 
d="M311 16h-102v-103h-72v103h-100v76h100v104h72v-104h102v-76z" />
    <glyph glyph-name="uni208B" unicode="&#x208b;" horiz-adv-x="348" 
d="M305 21h-263v74h263v-74z" />
    <glyph glyph-name="uni208C" unicode="&#x208c;" horiz-adv-x="348" 
d="M303 83h-258v65h258v-65zM303 -38h-258v66h258v-66z" />
    <glyph glyph-name="uni208D" unicode="&#x208d;" horiz-adv-x="200" 
d="M137 280l59 -5q-65 -104 -65 -238q0 -132 65 -237l-59 -6q-85 93 -85 243q0 149 85 243z" />
    <glyph glyph-name="uni208E" unicode="&#x208e;" horiz-adv-x="200" 
d="M4 275l60 5q83 -93 83 -243q0 -151 -83 -243l-60 6q64 104 64 237q0 135 -64 238z" />
    <glyph glyph-name="franc" unicode="&#x20a3;" horiz-adv-x="589" 
d="M25 189h70v561h434l3 -123h-309v-190h240l-1 -117h-239v-131h75v-92h-75v-97h-128v97h-70v92z" />
    <glyph glyph-name="lira" unicode="&#x20a4;" horiz-adv-x="589" 
d="M76 397l-5 73h31q-11 39 -11 82q0 93 62 151.5t195 58.5q88 0 165 -32l-15 -114q-63 27 -136 27t-108.5 -32t-35.5 -84q0 -30 6 -57h248v-73h-227q10 -31 13 -51h214v-71h-206q0 -3 0.5 -8t0.5 -8q0 -101 -71 -148l2 -3q68 18 177 18q83 0 173 -11l-6 -122
q-121 14 -222 14q-126 0 -258 -12l-7 117q43 12 68 51t25 90q0 15 -1 22h-67l-3 71h61q-7 33 -13 51h-49z" />
    <glyph glyph-name="peseta" unicode="&#x20a7;" horiz-adv-x="589" 
d="M572 472h-47q-7 -106 -64 -156t-176 -50h-95v-266h-119v472h-48v66h48v212h214q121 0 177 -49.5t63 -162.5h48zM190 640v-102h212q-5 57 -32 79.5t-85 22.5h-95zM285 371q57 0 84 21.5t32 79.5h-211v-101h95z" />
    <glyph glyph-name="Euro" unicode="&#x20ac;" horiz-adv-x="589" 
d="M462 347l-14 -70h-210q14 -95 59.5 -136t127.5 -41q69 0 134 34l10 -100q-68 -42 -175 -42q-129 0 -198.5 69t-86.5 216h-79l1 70h72v52h-72l-1 73h78q19 136 94.5 209.5t198.5 73.5q96 0 161 -31l-24 -107q-51 21 -110 21q-82 0 -128 -40.5t-61 -125.5h257l-16 -73h-248
v-52h230z" />
    <glyph glyph-name="trademark" unicode="&#x2122;" horiz-adv-x="634" 
d="M597 489h-63l-1 112l2 81l-3 1l-26 -77l-43 -117h-51l-44 116l-27 77l-2 -1l1 -81v-111h-63v277h91l43 -113l27 -76h3l26 76l42 113h88v-277zM245 699h-74v-210h-73v210h-76v67h223v-67z" />
    <glyph glyph-name="Omega" unicode="&#x2126;" horiz-adv-x="675" 
d="M337 761q140 0 213 -77.5t73 -244.5q0 -202 -151 -326v-3h154v-110h-259v162q122 115 122 272q0 113 -36 160t-116 47q-79 0 -115 -47t-36 -160q0 -158 122 -272v-162h-260v110h155l1 3q-152 120 -152 326q0 322 285 322z" />
    <glyph glyph-name="onethird" unicode="&#x2153;" horiz-adv-x="812" 
d="M581 750h87l-466 -750h-86zM757 118q0 -123 -154 -123q-72 0 -122 30l18 68q49 -27 103 -27q71 0 71 56q0 27 -22.5 39.5t-83.5 12.5v61q57 0 78.5 12t21.5 38q0 41 -63 41q-59 0 -103 -34l-20 67q52 40 128 40q66 0 103 -28t37 -80q0 -60 -57 -84v-2q65 -22 65 -87z
M258 751v-395h-88v209l3 79l-3 1l-73 -44l-8 72l115 78h54z" />
    <glyph glyph-name="twothirds" unicode="&#x2154;" horiz-adv-x="812" 
d="M314 639q0 -50 -38 -95.5t-119 -109.5v-3h157l-1 -75h-266v57q13 13 39.5 38t38.5 37l31.5 31.5t28.5 31.5t19.5 27.5t14.5 28t4 24.5q0 48 -61 48q-47 0 -97 -35l-21 71q57 40 134 40q66 0 101 -31.5t35 -84.5zM597 750h87l-466 -750h-86zM765 118q0 -123 -154 -123
q-72 0 -122 30l18 68q49 -27 103 -27q71 0 71 56q0 27 -22.5 39.5t-83.5 12.5v61q57 0 78.5 12t21.5 38q0 41 -63 41q-59 0 -103 -34l-20 67q52 40 128 40q66 0 103 -28t37 -80q0 -60 -57 -84v-2q65 -22 65 -87z" />
    <glyph glyph-name="oneeighth" unicode="&#x215b;" horiz-adv-x="812" 
d="M261 751v-395h-88v209l3 79l-3 1l-73 -44l-8 72l115 78h54zM578 750h87l-466 -750h-86zM455 115q0 58 56 91q-41 32 -41 88q0 106 134 106q133 0 133 -106q0 -51 -44 -84q58 -30 58 -95q0 -120 -147 -120q-149 0 -149 120zM666 108q0 16 -12.5 28.5t-24 17.5t-40.5 15
q-2 1 -3.5 1.5t-3.5 1t-4 1.5q-39 -25 -39 -59q0 -28 15.5 -40t51.5 -12q60 0 60 46zM551 290q0 -15 11.5 -26.5t24 -16t38.5 -12.5q33 22 33 51q0 46 -54 46q-53 0 -53 -42z" />
    <glyph glyph-name="threeeighths" unicode="&#x215c;" horiz-adv-x="812" 
d="M329 474q0 -123 -154 -123q-72 0 -122 30l18 68q49 -27 103 -27q71 0 71 56q0 27 -22.5 39.5t-83.5 12.5v61q57 0 79 12t22 38q0 41 -64 41q-59 0 -103 -34l-20 66q53 41 128 41q66 0 103 -28t37 -80q0 -60 -57 -84v-2q65 -22 65 -87zM593 750h87l-466 -750h-86zM466 115
q0 58 56 91q-41 32 -41 88q0 106 134 106q133 0 133 -106q0 -51 -44 -84q58 -30 58 -95q0 -120 -147 -120q-149 0 -149 120zM677 108q0 16 -12.5 28.5t-24 17.5t-40.5 15q-2 1 -3.5 1.5t-3.5 1t-4 1.5q-39 -25 -39 -59q0 -28 15.5 -40t51.5 -12q60 0 60 46zM562 290
q0 -15 11.5 -26.5t24 -16t38.5 -12.5q33 22 33 51q0 46 -54 46q-53 0 -53 -42z" />
    <glyph glyph-name="fiveeighths" unicode="&#x215d;" horiz-adv-x="812" 
d="M348 492q0 -141 -147 -141q-73 0 -123 27l13 69q51 -24 102 -24q38 0 53.5 14.5t15.5 47.5q0 51 -67 51q-48 0 -81 -12l-33 31l17 195h228l3 -76h-163l-5 -72q30 5 57 5q130 0 130 -115zM588 750h87l-466 -750h-86zM463 115q0 58 56 91q-41 32 -41 88q0 106 134 106
q133 0 133 -106q0 -51 -44 -84q58 -30 58 -95q0 -120 -147 -120q-149 0 -149 120zM674 108q0 16 -12.5 28.5t-24 17.5t-40.5 15q-2 1 -3.5 1.5t-3.5 1t-4 1.5q-39 -25 -39 -59q0 -28 15.5 -40t51.5 -12q60 0 60 46zM559 290q0 -15 11.5 -26.5t24 -16t38.5 -12.5q33 22 33 51
q0 46 -54 46q-53 0 -53 -42z" />
    <glyph glyph-name="seveneighths" unicode="&#x215e;" horiz-adv-x="812" 
d="M381 750v-74l-148 -320h-100l156 313h-197l4 81h285zM579 750h87l-466 -750h-86zM456 115q0 58 56 91q-41 32 -41 88q0 106 134 106q133 0 133 -106q0 -51 -44 -84q58 -30 58 -95q0 -120 -147 -120q-149 0 -149 120zM667 108q0 16 -12.5 28.5t-24 17.5t-40.5 15
q-2 1 -3.5 1.5t-3.5 1t-4 1.5q-39 -25 -39 -59q0 -28 15.5 -40t51.5 -12q60 0 60 46zM552 290q0 -15 11.5 -26.5t24 -16t38.5 -12.5q33 22 33 51q0 46 -54 46q-53 0 -53 -42z" />
    <glyph glyph-name="partialdiff" unicode="&#x2202;" horiz-adv-x="583" 
d="M296 556q75 0 128 -45l2 2q-13 70 -52 103.5t-108 33.5q-96 0 -167 -54l-31 87q94 74 219 74q111 0 184.5 -84.5t73.5 -257.5q0 -191 -77.5 -309.5t-220.5 -118.5q-209 0 -209 237q0 159 69 245.5t189 86.5zM418 367q0 38 -28 65.5t-78 27.5q-71 0 -111 -62t-40 -186
q0 -125 104 -125q72 0 112.5 78.5t40.5 201.5z" />
    <glyph glyph-name="Delta" unicode="&#x2206;" horiz-adv-x="678" 
d="M381 754l262 -754h-610l263 754h85zM337 592l-24 -78l-136 -405h320l-134 405l-23 78h-3z" />
    <glyph glyph-name="product" unicode="&#x220f;" horiz-adv-x="682" 
d="M242 -151h-113v807l-80 8l-3 86h592l-3 -85l-79 -8v-808h-113v799h-201v-799z" />
    <glyph glyph-name="summation" unicode="&#x2211;" horiz-adv-x="626" 
d="M468 296l-202 -278l-49 -64h2h369l-3 -105h-514v70l273 390l-273 363v78h499l3 -107h-347l-1 -2l49 -62l194 -258v-25z" />
    <glyph glyph-name="minus" unicode="&#x2212;" horiz-adv-x="550" 
d="M483 280h-415v114h415v-114z" />
    <glyph glyph-name="uni2219" unicode="&#x2219;" horiz-adv-x="550" 
d="M134 324q0 144 141 144t141 -144q0 -146 -141 -146t-141 146z" />
    <glyph glyph-name="radical" unicode="&#x221a;" horiz-adv-x="553" 
d="M6 386v114h161l81 -285l21 -78h3l17 79l140 575h126l-209 -791h-145l-121 386h-74z" />
    <glyph glyph-name="infinity" unicode="&#x221e;" horiz-adv-x="690" 
d="M490 165q-90 0 -146 73q-50 -73 -143 -73q-72 0 -117.5 48.5t-45.5 132.5q0 82 42 131t120 49q91 0 145 -74q51 74 145 74q71 0 116.5 -48.5t45.5 -132.5q0 -82 -42 -131t-120 -49zM205 268q19 0 33.5 7.5t26.5 25t19 31t19 40.5q-40 58 -95 58q-34 0 -52.5 -23
t-18.5 -59q0 -38 19 -59t49 -21zM485 423q-19 0 -33.5 -7.5t-27 -25.5t-19 -31t-18.5 -41q38 -57 96 -57q33 0 51.5 22.5t18.5 59.5q0 38 -19 59t-49 21z" />
    <glyph glyph-name="integral" unicode="&#x222b;" horiz-adv-x="298" 
d="M210 610v-572q0 -102 -49.5 -149t-154.5 -47l-3 80q43 1 64 27t21 84v577q0 188 204 189l3 -81q-85 0 -85 -108z" />
    <glyph glyph-name="approxequal" unicode="&#x2248;" horiz-adv-x="589" 
d="M395 351q-39 0 -105 23t-96 23q-54 0 -104 -31v98q52 30 104 30q38 0 104.5 -23.5t96.5 -23.5q52 0 104 31v-97q-50 -30 -104 -30zM395 168q-39 0 -105 23t-96 23q-53 0 -104 -30v97q52 30 104 30q38 0 104.5 -23t96.5 -23q54 0 104 31v-97q-49 -31 -104 -31z" />
    <glyph glyph-name="notequal" unicode="&#x2260;" horiz-adv-x="589" 
d="M368 587l77 -38l-36 -77h90v-97h-136l-41 -89h177v-97h-223l-55 -119l-78 38l38 81h-91v97h136l42 89h-178v97h224z" />
    <glyph glyph-name="lessequal" unicode="&#x2264;" horiz-adv-x="589" 
d="M499 505l-253 -79l-77 -22v-3l78 -22l253 -74v-119l-418 159v118l417 164v-122zM500 49h-414v101h414v-101z" />
    <glyph glyph-name="greaterequal" unicode="&#x2265;" horiz-adv-x="589" 
d="M82 186v119l252 74l79 22v3l-78 22l-252 79v122l417 -164v-118zM496 49h-414v101h414v-101z" />
    <glyph glyph-name="dotmath" unicode="&#x22c5;" horiz-adv-x="550" 
d="M347 345q0 -72 -73 -72q-38 0 -55 17t-17 55q0 72 72 72q73 0 73 -72z" />
    <glyph glyph-name="lozenge" unicode="&#x25ca;" horiz-adv-x="564" 
d="M25 336l257 330l257 -330l-257 -331zM147 336l134 -171l134 171l-134 172z" />
    <glyph glyph-name="i.latn_TRK" horiz-adv-x="291" 
d="M206 0h-122v599l122 6v-605zM216 740q0 -57 -70 -57q-37 0 -54.5 13t-17.5 44q0 59 72 59q70 0 70 -59z" />
    <glyph glyph-name="dollar.subs" horiz-adv-x="300" 
d="M148 312h66l-6 -73q33 -4 67 -17l-11 -71q-48 15 -86 15q-60 0 -60 -34q0 -19 26.5 -31t58 -20t58 -34.5t26.5 -69.5q0 -46 -25 -76t-73 -38l-3 -69h-66l4 68q-52 5 -87 25l11 73q49 -28 99 -28q60 0 60 39q0 19 -26.5 32t-57.5 21t-57.5 34.5t-26.5 68.5q0 44 25.5 74.5
t77.5 37.5z" />
    <glyph glyph-name="comma.subs" horiz-adv-x="154" 
d="M75 -64q49 0 49 -52q0 -21 -16 -55.5t-35 -58.5l-30 7l15 67q-31 16 -31 43q0 49 48 49z" />
    <glyph glyph-name="period.subs" horiz-adv-x="154" 
d="M126 -110q0 -45 -49 -45q-26 0 -38 10.5t-12 34.5q0 48 50 48q49 0 49 -48z" />
    <glyph glyph-name="cent.subs" horiz-adv-x="300" 
d="M277 224l-4 -71q-33 12 -65 12q-51 0 -71 -24.5t-20 -85.5q0 -62 22 -89t68 -27q35 0 68 15l6 -64q-29 -19 -69 -23l-4 -73h-67l5 76q-119 21 -119 185q0 169 134 183l6 74h67l-6 -75q32 -5 49 -13z" />
    <glyph glyph-name="dollar.sups" horiz-adv-x="300" 
d="M148 950h66l-6 -73q33 -4 67 -17l-11 -71q-48 15 -86 15q-60 0 -60 -34q0 -19 26.5 -31t58 -20t58 -34.5t26.5 -69.5q0 -97 -98 -114l-3 -69h-66l4 67q-50 5 -87 26l11 73q49 -28 99 -28q60 0 60 39q0 19 -26.5 32t-57.5 21t-57.5 34.5t-26.5 68.5q0 44 25.5 74.5
t77.5 37.5z" />
    <glyph glyph-name="comma.sups" horiz-adv-x="154" 
d="M75 574q49 0 49 -52q0 -21 -16 -55.5t-35 -58.5l-30 7l15 67q-31 16 -31 43q0 49 48 49z" />
    <glyph glyph-name="period.sups" horiz-adv-x="154" 
d="M126 528q0 -45 -49 -45q-26 0 -38 10.5t-12 34.5q0 48 50 48q49 0 49 -48z" />
    <glyph glyph-name="cent.sups" horiz-adv-x="300" 
d="M277 862l-4 -71q-33 12 -65 12q-51 0 -71 -24.5t-20 -85.5q0 -62 22 -89t68 -27q35 0 68 15l6 -64q-26 -19 -69 -23l-4 -73h-67l5 75q-119 23 -119 186q0 169 134 183l6 74h67l-6 -75q32 -5 49 -13z" />
    <glyph glyph-name="dollar.numr" horiz-adv-x="300" 
d="M148 815h66l-6 -72q29 -4 67 -18l-11 -71q-47 16 -86 16q-60 0 -60 -35q0 -15 17.5 -25t42.5 -17.5t49.5 -18.5t42 -34.5t17.5 -59.5q0 -97 -98 -114l-3 -69h-66l4 67q-50 5 -87 26l11 74q48 -29 99 -29q60 0 60 39q0 16 -17.5 26.5t-42 18.5t-49 19t-42 34.5t-17.5 58.5
q0 44 25.5 74.5t77.5 37.5z" />
    <glyph glyph-name="parenleft.numr" horiz-adv-x="200" 
d="M137 781l59 -6q-65 -103 -65 -238q0 -132 65 -237l-59 -6q-85 93 -85 243q0 149 85 244z" />
    <glyph glyph-name="parenright.numr" horiz-adv-x="200" 
d="M4 775l60 6q83 -95 83 -244q0 -151 -83 -243l-60 6q64 104 64 237q0 137 -64 238z" />
    <glyph glyph-name="plus.numr" horiz-adv-x="348" 
d="M311 519h-102v-103h-72v103h-100v76h100v104h72v-104h102v-76z" />
    <glyph glyph-name="comma.numr" horiz-adv-x="154" 
d="M75 438q49 0 49 -51q0 -21 -16 -55.5t-35 -58.5l-30 7l15 67q-12 5 -21.5 17t-9.5 26q0 48 48 48z" />
    <glyph glyph-name="period.numr" horiz-adv-x="154" 
d="M126 393q0 -45 -49 -45q-26 0 -38 10.5t-12 34.5q0 47 50 47q49 0 49 -47z" />
    <glyph glyph-name="zero.numr" horiz-adv-x="346" 
d="M322 552q0 -106 -35.5 -153.5t-113.5 -47.5t-113 47.5t-35 153.5q0 110 35 156.5t114 46.5t113.5 -46.5t34.5 -156.5zM236 553q0 76 -14 102t-48 26q-35 0 -49.5 -26t-14.5 -103t14.5 -102.5t49.5 -25.5q34 0 48 26t14 103z" />
    <glyph glyph-name="one.numr" horiz-adv-x="256" 
d="M203 751v-395h-88v209l3 79l-3 1l-73 -44l-8 72l115 78h54z" />
    <glyph glyph-name="two.numr" horiz-adv-x="335" 
d="M304 639q0 -50 -38 -95.5t-119 -109.5v-3h157l-1 -75h-266v57q13 13 39.5 38t38.5 37l31.5 31.5t28.5 31.5t19.5 27.5t14.5 28t4 24.5q0 48 -61 48q-47 0 -97 -35l-21 71q57 40 134 40q66 0 101 -31.5t35 -84.5z" />
    <glyph glyph-name="three.numr" horiz-adv-x="335" 
d="M307 474q0 -123 -154 -123q-72 0 -122 30l18 68q49 -27 103 -27q71 0 71 56q0 27 -22.5 39.5t-83.5 12.5v61q57 0 79 12t22 38q0 41 -64 41q-59 0 -103 -34l-20 66q53 41 128 41q66 0 103 -28t37 -80q0 -60 -57 -84v-2q65 -22 65 -87z" />
    <glyph glyph-name="four.numr" horiz-adv-x="346" 
d="M331 431h-38v-75h-81v75h-184l-7 53l167 266h105v-247h40zM215 503l2 87l5 80h-3l-60 -99l-43 -65l1 -3h98z" />
    <glyph glyph-name="five.numr" horiz-adv-x="346" 
d="M316 492q0 -141 -147 -141q-73 0 -123 27l13 69q51 -24 102 -24q38 0 53.5 14.5t15.5 47.5q0 51 -67 51q-48 0 -81 -12l-33 31l17 195h228l3 -76h-163l-5 -72q30 5 57 5q130 0 130 -115z" />
    <glyph glyph-name="six.numr" horiz-adv-x="346" 
d="M321 494q0 -143 -142 -143q-75 0 -113 45.5t-38 146.5q0 105 45 158.5t131 53.5q51 0 93 -15l-5 -72q-35 12 -77 12q-48 0 -71.5 -21t-30.5 -67l2 -2q36 22 79 22q127 0 127 -118zM235 494q0 52 -57 52q-43 0 -61 -25q1 -55 15 -76.5t47 -21.5q56 0 56 71z" />
    <glyph glyph-name="seven.numr" horiz-adv-x="346" 
d="M318 750v-74l-148 -320h-100l156 313h-197l4 81h285z" />
    <glyph glyph-name="eight.numr" horiz-adv-x="346" 
d="M25 471q0 58 56 91q-41 32 -41 88q0 105 134 105q133 0 133 -105q0 -51 -44 -84q58 -30 58 -95q0 -121 -147 -121q-149 0 -149 121zM236 464q0 6 -1.5 11t-3 9t-6 8t-7 6.5t-9 6t-10 5.5t-12 5t-12 4.5t-13 5t-13.5 4.5q-40 -24 -40 -60q0 -28 15.5 -39.5t51.5 -11.5
q60 0 60 46zM121 646q0 -22 18 -33.5t56 -22.5q33 22 33 52q0 46 -54 46q-53 0 -53 -42z" />
    <glyph glyph-name="nine.numr" horiz-adv-x="346" 
d="M317 569q0 -114 -41 -166t-126 -52q-54 0 -100 18l12 70q39 -16 82 -16q45 0 68.5 25.5t27.5 82.5l-2 1q-30 -26 -79 -26q-67 0 -99.5 31.5t-32.5 87.5q0 61 35.5 96t105.5 35q76 0 112.5 -46t36.5 -141zM231 596q0 50 -15 69t-50 19q-56 0 -56 -55q0 -29 14 -43.5
t46 -14.5q44 0 61 25z" />
    <glyph glyph-name="equal.numr" horiz-adv-x="348" 
d="M303 586h-258v65h258v-65zM303 465h-258v66h258v-66z" />
    <glyph glyph-name="cent.numr" horiz-adv-x="300" 
d="M278 727l-5 -71q-33 12 -65 12q-51 0 -71 -24.5t-20 -85.5q0 -62 22.5 -89t67.5 -27q35 0 68 15l7 -65q-27 -18 -69 -22l-4 -73h-67l4 75q-119 23 -119 186q0 169 135 183l6 74h67l-7 -75q31 -5 50 -13z" />
    <glyph glyph-name="minus.numr" horiz-adv-x="348" 
d="M305 524h-263v74h263v-74z" />
    <glyph glyph-name="dollar.dnom" horiz-adv-x="300" 
d="M148 459h66l-6 -72q26 -3 67 -17l-11 -72q-47 16 -86 16q-60 0 -60 -35q0 -15 17.5 -25t42.5 -17.5t49.5 -18.5t42 -34.5t17.5 -59.5q0 -97 -98 -114l-3 -69h-66l4 67q-50 5 -87 26l11 74q49 -28 99 -28q60 0 60 39q0 16 -17.5 26t-42 18t-49 19t-42 34.5t-17.5 58.5
q0 44 25.5 74.5t77.5 37.5z" />
    <glyph glyph-name="parenleft.dnom" horiz-adv-x="200" 
d="M137 425l59 -6q-65 -103 -65 -237q0 -133 65 -238l-59 -5q-85 91 -85 243q0 148 85 243z" />
    <glyph glyph-name="parenright.dnom" horiz-adv-x="200" 
d="M4 419l60 6q83 -95 83 -243q0 -152 -83 -243l-60 5q64 104 64 238q0 136 -64 237z" />
    <glyph glyph-name="plus.dnom" horiz-adv-x="348" 
d="M311 163h-102v-103h-72v103h-100v76h100v104h72v-104h102v-76z" />
    <glyph glyph-name="comma.dnom" horiz-adv-x="154" 
d="M75 83q49 0 49 -52q0 -21 -16 -55.5t-35 -58.5l-30 7l15 67q-31 15 -31 43q0 49 48 49z" />
    <glyph glyph-name="period.dnom" horiz-adv-x="154" 
d="M126 37q0 -45 -49 -45q-26 0 -38 10.5t-12 34.5q0 48 50 48q49 0 49 -48z" />
    <glyph glyph-name="zero.dnom" horiz-adv-x="346" 
d="M322 196q0 -106 -35.5 -153.5t-113.5 -47.5t-113 47.5t-35 153.5q0 110 35 156.5t114 46.5t113.5 -46.5t34.5 -156.5zM236 197q0 77 -14 102.5t-48 25.5q-35 0 -49.5 -25.5t-14.5 -102.5t14.5 -103t49.5 -26q34 0 48 26t14 103z" />
    <glyph glyph-name="one.dnom" horiz-adv-x="256" 
d="M203 395v-395h-88v209l3 79l-3 1l-73 -44l-8 72l115 78h54z" />
    <glyph glyph-name="two.dnom" horiz-adv-x="335" 
d="M304 283q0 -50 -38 -95.5t-119 -109.5v-3h157l-1 -75h-266v57q13 13 39.5 38t38.5 37l31.5 31.5t28.5 31.5t19.5 27.5t14.5 28t4 24.5q0 48 -61 48q-47 0 -97 -35l-21 71q57 40 134 40q67 0 101.5 -31t34.5 -85z" />
    <glyph glyph-name="three.dnom" horiz-adv-x="335" 
d="M313 118q0 -123 -154 -123q-72 0 -122 30l18 68q49 -27 103 -27q71 0 71 56q0 27 -22.5 39.5t-83.5 12.5v61q57 0 78.5 12t21.5 38q0 41 -63 41q-59 0 -103 -34l-20 67q52 40 128 40q66 0 103 -28t37 -80q0 -60 -57 -84v-2q65 -22 65 -87z" />
    <glyph glyph-name="four.dnom" horiz-adv-x="346" 
d="M331 76h-38v-76h-81v76h-184l-7 52l167 266h105v-247h40zM215 147l2 87l5 80h-3l-61 -99l-43 -65l1 -3h99z" />
    <glyph glyph-name="five.dnom" horiz-adv-x="346" 
d="M316 136q0 -141 -147 -141q-73 0 -123 27l13 69q51 -24 102 -24q38 0 53.5 15t15.5 48q0 51 -67 51q-45 0 -81 -13l-33 31l17 195h228l3 -76h-163l-5 -72q30 5 57 5q130 0 130 -115z" />
    <glyph glyph-name="six.dnom" horiz-adv-x="346" 
d="M321 138q0 -143 -142 -143q-75 0 -113 45.5t-38 146.5q0 105 45 159t131 54q52 0 93 -16l-5 -72q-35 12 -77 12q-48 0 -71.5 -21t-30.5 -67l2 -2q36 22 79 22q127 0 127 -118zM235 138q0 53 -57 53q-42 0 -61 -25q1 -56 15 -77.5t47 -21.5q56 0 56 71z" />
    <glyph glyph-name="seven.dnom" horiz-adv-x="346" 
d="M318 394v-74l-148 -320h-100l155 313h-196l4 81h285z" />
    <glyph glyph-name="eight.dnom" horiz-adv-x="346" 
d="M25 115q0 58 56 91q-41 32 -41 88q0 106 134 106q133 0 133 -106q0 -51 -44 -84q58 -30 58 -95q0 -120 -147 -120q-149 0 -149 120zM236 108q0 16 -12.5 28.5t-25 18t-39.5 14.5l-11 4q-39 -25 -39 -59q0 -28 15.5 -40t51.5 -12q60 0 60 46zM121 290q0 -15 11.5 -26.5
t24 -16t38.5 -12.5q33 22 33 51q0 46 -54 46q-53 0 -53 -42z" />
    <glyph glyph-name="nine.dnom" horiz-adv-x="346" 
d="M317 213q0 -114 -41 -166t-126 -52q-54 0 -100 18l12 70q43 -16 82 -16q45 0 68.5 25.5t27.5 82.5l-2 1q-30 -26 -79 -26q-67 0 -99.5 31.5t-32.5 87.5q0 61 35.5 96t105.5 35q76 0 112.5 -46t36.5 -141zM231 240q0 50 -15 69t-50 19q-56 0 -56 -55q0 -29 14 -43.5
t46 -14.5q44 0 61 25z" />
    <glyph glyph-name="equal.dnom" horiz-adv-x="348" 
d="M303 230h-258v65h258v-65zM303 109h-258v66h258v-66z" />
    <glyph glyph-name="cent.dnom" horiz-adv-x="300" 
d="M278 371l-5 -71q-33 12 -65 12q-52 0 -71.5 -24t-19.5 -86q0 -61 22.5 -88.5t67.5 -27.5q35 0 68 15l7 -64q-26 -18 -69 -23l-4 -73h-67l4 75q-119 23 -119 186q0 169 135 183l6 74h67l-7 -75q31 -5 50 -13z" />
    <glyph glyph-name="minus.dnom" horiz-adv-x="348" 
d="M305 168h-263v74h263v-74z" />
    <glyph glyph-name="numbersign.osf" horiz-adv-x="550" 
d="M36 263h85l19 125h-103v89h114l22 172h92l-23 -172h105l23 172h90l-23 -172h77v-89h-87l-18 -125h105v-89h-115l-23 -174h-90l23 174h-106l-23 -174h-92l22 174h-74v89zM232 388l-18 -125h105l18 125h-105z" />
    <glyph glyph-name="dollar.osf" horiz-adv-x="450" 
d="M417 181q0 -165 -151 -189l-6 -125h-92l7 123q-79 6 -130 40l12 105q66 -43 154 -43q96 0 96 79q0 31 -27.5 51.5t-66.5 34t-77.5 31t-66 54.5t-27.5 94q0 72 42 118t122 56l8 118h92l-9 -120q48 -6 98 -27l-9 -103q-69 29 -141 29q-42 0 -65.5 -17.5t-23.5 -47.5t27 -49
t65 -31.5t76.5 -30t65.5 -55.5t27 -95z" />
    <glyph glyph-name="zero.osf" horiz-adv-x="568" 
d="M526 317q0 -171 -58 -249t-184 -78q-129 0 -185.5 77.5t-56.5 249.5q0 178 56.5 254t186.5 76q127 0 184 -76t57 -254zM406 318q0 129 -28 173.5t-93 44.5q-67 0 -95.5 -45t-28.5 -173q0 -90 14.5 -138.5t39.5 -64.5t70 -16q65 0 93 45t28 174z" />
    <glyph glyph-name="one.osf" horiz-adv-x="421" 
d="M324 639v-639h-122v406l2 80l-2 2l-62 -40l-62 -38l-13 102l187 127h72z" />
    <glyph glyph-name="two.osf" horiz-adv-x="528" 
d="M480 462q0 -85 -64.5 -163t-202.5 -189v-3h269l-3 -107h-427v81q24 23 66.5 62.5t65 61t55 53.5t49.5 53.5t35 47.5t25.5 48.5t7.5 43.5q0 85 -116 85q-83 0 -161 -58l-31 99q91 69 212 69q107 0 163.5 -49.5t56.5 -134.5z" />
    <glyph glyph-name="three.osf" horiz-adv-x="523" 
d="M478 172q0 -131 -98 -203t-275 -77l-11 101q137 4 202.5 51.5t65.5 124.5q0 100 -125 101q-21 0 -59 -6l-7 87q99 12 136 36t37 70q0 81 -115 81q-93 0 -163 -54l-27 99q34 29 87.5 46.5t111.5 17.5q105 0 160.5 -47t55.5 -126q0 -100 -79 -145v-2q103 -37 103 -155z" />
    <glyph glyph-name="four.osf" horiz-adv-x="559" 
d="M535 63h-70v-164l-111 -6v170h-317l-10 84l301 499l137 -9v-472h73zM358 165l7 293l4 81l-2 1l-40 -71l-137 -235l-41 -66l1 -3h208z" />
    <glyph glyph-name="five.osf" horiz-adv-x="516" 
d="M478 183q0 -135 -97 -211.5t-278 -79.5l-12 106q131 3 199 48.5t68 123.5q0 98 -128 98q-74 0 -138 -31l-40 50l27 351h365l5 -117h-274l-12 -162q53 16 106 16q100 0 154.5 -49.5t54.5 -142.5z" />
    <glyph glyph-name="six.osf" horiz-adv-x="543" 
d="M505 258q0 -267 -227 -267q-118 0 -179 78.5t-61 253.5q0 204 105.5 312.5t264.5 112.5l18 -107q-118 -4 -185.5 -60.5t-81.5 -157.5l2 -2q62 49 140 49q204 0 204 -212zM388 257q0 59 -26.5 86t-83.5 27q-32 0 -65.5 -15t-51.5 -39q1 -122 29 -167.5t89 -45.5
q109 0 109 154z" />
    <glyph glyph-name="seven.osf" horiz-adv-x="525" 
d="M486 637v-103l-258 -631h-133l264 616h-323l8 118h442z" />
    <glyph glyph-name="eight.osf" horiz-adv-x="555" 
d="M135 335v2q-72 49 -72 141q0 168 216 168q214 0 214 -169q0 -89 -78 -140v-2q102 -46 102 -153q0 -192 -238 -192q-241 0 -241 192q0 46 25.5 86.5t71.5 66.5zM397 174q0 19 -8.5 34t-19.5 25t-36 21.5t-42 17.5t-54 18q-81 -43 -81 -107q0 -50 29 -72.5t96 -22.5
q116 0 116 86zM176 472q0 -22 10 -38t34 -28.5t41.5 -18t54.5 -16.5q69 38 69 95q0 42 -25.5 62.5t-82.5 20.5q-101 0 -101 -77z" />
    <glyph glyph-name="nine.osf" horiz-adv-x="537" 
d="M499 337q0 -114 -28 -200.5t-79.5 -138t-117 -77t-146.5 -27.5l-13 104q109 5 178 64t83 170l-2 1q-51 -45 -133 -45q-95 0 -149 56t-54 167q0 114 57.5 175t168.5 61q235 0 235 -310zM378 355q-1 99 -28 139t-88 40q-104 0 -104 -120q0 -61 26 -90t83 -29q83 0 111 60z
" />
    <glyph glyph-name="cent.osf" horiz-adv-x="454" 
d="M415 586l-7 -107q-48 20 -99 20q-82 0 -115 -43.5t-33 -152.5q0 -111 36 -159.5t109 -48.5q59 0 105 26l9 -98q-40 -28 -108 -34l-7 -122h-91l7 127q-183 33 -183 309q0 283 204 306l9 119h91l-9 -120q41 -5 82 -22z" />
    <glyph glyph-name="sterling.osf" horiz-adv-x="518" 
d="M49 277l-4 90h42q-19 63 -19 103q0 83 57 135.5t183 52.5q82 0 154 -27l-15 -103q-61 24 -127 24q-130 0 -130 -95q0 -35 16 -90h208v-90h-188q4 -23 4 -53q0 -88 -59 -125l2 -3q67 16 162 16q79 0 158 -11l-6 -107q-108 12 -208 12q-123 0 -239 -10l-4 105q37 9 58 41.5
t21 74.5q0 28 -5 60h-61z" />
    <glyph glyph-name="currency.osf" horiz-adv-x="550" 
d="M105 326q0 47 23 87l-62 64l62 68l65 -68q38 22 82 22q42 0 81 -21l67 67l62 -68l-63 -65q22 -39 22 -86q0 -42 -19 -80l60 -61l-63 -68l-59 61q-41 -25 -88 -25q-49 0 -88 25l-60 -61l-62 68l59 60q-19 38 -19 81zM184 328q0 -37 26 -62.5t64 -25.5t64.5 25.5t26.5 62.5
q0 36 -26.5 61.5t-64.5 25.5q-37 0 -63.5 -25.5t-26.5 -61.5z" />
    <glyph glyph-name="yen.osf" horiz-adv-x="550" 
d="M99 298h85l-167 351h130l100 -262l27 -76h3l26 76l99 262h128l-163 -351h87v-64h-115v-45h115v-63h-115v-126h-126v126h-114v63h114v45h-114v64z" />
    <glyph glyph-name="franc.osf" horiz-adv-x="550" 
d="M31 166h65v483h411l2 -110h-294v-159h224v-105h-224v-109h71v-82h-71v-84h-119v84h-65v82z" />
    <glyph glyph-name="lira.osf" horiz-adv-x="550" 
d="M58 343l-5 62h28q-8 32 -8 63q0 84 58 137t188 53q86 0 161 -28l-16 -103q-58 24 -133 24q-136 0 -136 -95q0 -27 6 -51h235v-62h-219q7 -26 11 -44h208v-62h-200v-14q0 -84 -59 -123l2 -3q69 16 168 16q83 0 163 -11l-6 -108q-111 12 -214 12q-128 0 -245 -10l-5 105
q38 9 59.5 41.5t21.5 74.5q0 3 -0.5 10t-0.5 10h-58l-4 62h54l-12 44h-42z" />
    <glyph glyph-name="peseta.osf" horiz-adv-x="550" 
d="M248 455q0 -116 -24 -154.5t-93 -38.5h-32v-262h-68v649h99q68 0 93 -39t25 -155zM382 337h-41v-249q0 -28 22 -28q6 0 12 4l2 -63q-12 -8 -32 -8q-64 0 -64 94v250h-19v63h22l10 90l46 8v-98h42v-63zM529 115q0 -123 -82 -123q-29 0 -49 15l1 67q19 -13 41 -13
q33 0 33 53q0 23 -12.5 40.5t-27 29t-27 39t-12.5 67.5q0 47 21.5 81t59.5 34q27 0 46 -14l-3 -70q-19 11 -37 11q-29 0 -29 -42q0 -22 12 -39t26.5 -28t26.5 -38.5t12 -69.5zM180 455q0 71 -10 91t-39 20h-32v-226h32q28 0 38.5 21t10.5 94z" />
    <glyph glyph-name="Euro.osf" horiz-adv-x="550" 
d="M519 625l-30 -99q-50 21 -109 21q-77 0 -117.5 -29t-53.5 -95h252l-20 -67h-240v-56h223l-20 -64h-195q15 -74 56.5 -107t111.5 -33q71 0 127 33l6 -99q-64 -43 -164 -43q-241 0 -275 249h-43v64h37v56h-37v67h44q35 236 278 236q99 0 169 -34z" />
    <glyph glyph-name="numbersign.lf" horiz-adv-x="579" 
d="M40 299h99l22 151h-120v95h132l27 205h94l-27 -205h89l27 205h93l-27 -205h90v-95h-101l-22 -151h122v-97h-134l-26 -202h-92l26 202h-90l-27 -202h-93l26 202h-88v97zM255 450l-22 -151h91l21 151h-90z" />
    <glyph glyph-name="dollar.lf" horiz-adv-x="543" 
d="M256 -82l-66 6l7 66q-99 12 -153 46l16 116q70 -41 150 -54l26 231q-43 18 -71 33.5t-59 41.5t-46.5 62.5t-15.5 84.5q0 100 62 154t180 56l8 64l72 -6l-8 -62q71 -10 109 -28l-8 -112q-56 18 -115 25l-25 -204q40 -16 68 -32t57 -42t44 -64.5t15 -87.5
q0 -114 -58 -168.5t-181 -56.5zM405 195q0 37 -26.5 61.5t-75.5 45.5l-26 -208q128 3 128 101zM152 557q0 -33 25.5 -54t74.5 -40l21 183q-121 -4 -121 -89z" />
    <glyph glyph-name="zero.lf" horiz-adv-x="574" 
d="M536 373q0 -206 -59 -294.5t-191 -88.5q-133 0 -190.5 88t-57.5 295q0 214 57.5 299.5t192.5 85.5q133 0 190.5 -86t57.5 -299zM413 375q0 112 -14.5 171t-39.5 77.5t-71 18.5q-47 0 -73 -19.5t-40.5 -78t-14.5 -169.5q0 -114 14.5 -174t40 -79t73.5 -19q46 0 71.5 19.5
t39.5 79.5t14 173z" />
    <glyph glyph-name="one.lf" horiz-adv-x="430" 
d="M334 751v-751h-128v505l2 81l-2 1l-66 -45l-66 -42l-14 108l200 143h74z" />
    <glyph glyph-name="two.lf" horiz-adv-x="565" 
d="M509 550q0 -96 -71 -193.5t-217 -235.5l1 -3h289l-3 -118h-450v86q20 22 68.5 73.5t69 73.5t57.5 64.5t53.5 67.5t37 58t28.5 60.5t8 53.5q0 48 -30.5 75.5t-94.5 27.5q-86 0 -167 -67l-32 107q94 78 222 78q112 0 171.5 -55t59.5 -153z" />
    <glyph glyph-name="three.lf" horiz-adv-x="565" 
d="M520 225q0 -110 -65.5 -172t-197.5 -62q-116 0 -203 53l23 105q83 -47 175 -47q73 0 109 33.5t36 93.5t-44.5 88t-154.5 28v95q103 0 145 27.5t42 84.5q0 91 -125 91q-97 0 -175 -65l-30 103q87 77 214 77q110 0 171.5 -51.5t61.5 -145.5q0 -116 -104 -164v-2
q122 -41 122 -170z" />
    <glyph glyph-name="four.lf" horiz-adv-x="585" 
d="M549 153h-74v-153h-116v153h-308l-11 85l283 512h152v-486h77zM362 264l6 285l4 81l-2 1l-38 -72l-158 -295h188z" />
    <glyph glyph-name="five.lf" horiz-adv-x="546" 
d="M508 258q0 -267 -250 -267q-119 0 -202 53l22 106q81 -48 167 -48q74 0 106 35t32 110q0 64 -32 91.5t-102 27.5q-83 0 -144 -29l-44 50l27 363h383l5 -117h-288l-12 -173q57 15 111 15q221 0 221 -217z" />
    <glyph glyph-name="six.lf" horiz-adv-x="564" 
d="M527 262q0 -271 -237 -271q-84 0 -138 33t-84 114.5t-30 216.5q0 404 296 404q85 0 153 -27l-10 -113q-60 23 -129 23q-91 0 -136 -49.5t-52 -158.5l3 -2q65 52 150 52q214 0 214 -222zM404 264q0 62 -27.5 90.5t-88.5 28.5q-32 0 -68.5 -16.5t-54.5 -41.5
q1 -127 29.5 -175t94.5 -48q115 0 115 162z" />
    <glyph glyph-name="seven.lf" horiz-adv-x="563" 
d="M523 750v-109l-265 -641h-140l284 628h-360l6 122h475z" />
    <glyph glyph-name="eight.lf" horiz-adv-x="568" 
d="M38 213q0 56 28.5 103.5t79.5 78.5q-83 57 -83 169q0 195 222 195q221 0 221 -195q0 -108 -88 -169q112 -56 112 -183q0 -221 -245 -221q-247 0 -247 222zM410 202q0 29 -10.5 50t-35 37.5t-43.5 25t-57 22.5l-17 7q-89 -54 -89 -132q0 -63 30.5 -90.5t99.5 -27.5
q122 0 122 108zM178 559q0 -27 10 -47.5t33 -35t42 -22.5t54 -20q79 48 79 120q0 51 -27 75t-85 24q-106 0 -106 -94z" />
    <glyph glyph-name="nine.lf" horiz-adv-x="566" 
d="M527 408q0 -222 -69.5 -319.5t-213.5 -97.5q-95 0 -165 33l17 108q65 -28 135 -28q89 0 129.5 53t46.5 179l-2 1q-58 -45 -147 -45q-108 0 -164 59t-56 165q0 117 59.5 180t178.5 63q251 0 251 -351zM404 453q-1 106 -34 150t-96 44q-116 0 -116 -125q0 -126 122 -126
q86 0 124 57z" />
    <glyph glyph-name="cent.lf" horiz-adv-x="589" 
d="M466 586l-7 -107q-48 20 -99 20q-82 0 -115 -43.5t-33 -152.5q0 -111 36 -159.5t109 -48.5q59 0 105 26l9 -98q-42 -28 -109 -34l-7 -122h-92l7 127q-91 17 -136 92.5t-45 216.5q0 142 49.5 218t153.5 88l8 119h92l-9 -120q46 -6 83 -22z" />
    <glyph glyph-name="sterling.lf" horiz-adv-x="578" 
d="M58 322l-5 101h50q-25 79 -25 126q0 94 63 153.5t201 59.5q91 0 170 -33l-16 -115q-65 27 -140 27q-146 0 -146 -109q0 -39 19 -109h231v-101h-208q5 -33 5 -63q0 -102 -69 -146l2 -3q72 17 181 17q86 0 176 -11l-6 -123q-124 14 -229 14q-128 0 -265 -12l-6 119
q43 11 68 50t25 89q0 37 -6 69h-70z" />
    <glyph glyph-name="currency.lf" horiz-adv-x="546" 
d="M98 357q0 48 23 88l-64 67l64 70l67 -69q39 22 85 22q45 0 84 -22l68 69l64 -70l-65 -67q23 -40 23 -88q0 -45 -20 -82l62 -64l-65 -70l-62 63q-41 -25 -89 -25q-50 0 -91 25l-62 -63l-64 70l61 63q-19 40 -19 83zM177 359q0 -38 27.5 -64.5t67.5 -26.5t67.5 26.5
t27.5 64.5t-27.5 64.5t-67.5 26.5t-67.5 -26.5t-27.5 -64.5z" />
    <glyph glyph-name="yen.lf" horiz-adv-x="655" 
d="M136 349h94l-187 401h146l115 -331l25 -77h3l24 77l114 331h142l-181 -401h96v-72h-126v-48h127v-72h-127v-157h-140v157h-125v72h125v48h-125v72z" />
    <glyph glyph-name="franc.lf" horiz-adv-x="558" 
d="M15 189h70v561h431l3 -123h-306v-190h233v-117h-233v-131h75v-92h-75v-97h-128v97h-70v92z" />
    <glyph glyph-name="lira.lf" horiz-adv-x="595" 
d="M64 397l-5 72h31q-11 39 -11 80q0 94 63.5 153.5t201.5 59.5q91 0 170 -33l-16 -115q-65 27 -140 27t-110.5 -31.5t-35.5 -83.5q0 -30 6 -57h253v-72h-233q8 -24 12 -51h221v-71h-213q0 -3 0.5 -8t0.5 -8q0 -102 -69 -146l2 -3q72 17 181 17q86 0 176 -11l-6 -123
q-124 14 -229 14q-129 0 -265 -12l-6 119q43 11 68 50t25 89q0 15 -1 22h-67l-3 71h61q-7 33 -13 51h-49z" />
    <glyph glyph-name="peseta.lf" horiz-adv-x="762" 
d="M357 522q0 -124 -39 -175.5t-132 -51.5h-41v-295h-89v750h130q92 0 131.5 -49.5t39.5 -178.5zM530 382h-50v-273q0 -35 27 -35q4 0 16 4l2 -77q-12 -10 -40 -10q-85 0 -85 116v275h-25v75h28l14 102l63 8v-110h50v-75zM732 132q0 -144 -107 -144q-42 0 -67 22l2 84
q25 -19 59 -19q41 0 41 54q0 22 -11 37.5t-27 27.5t-32.5 26t-27.5 42t-11 67q0 57 27.5 95.5t77.5 38.5q37 0 64 -20l-6 -82q-27 15 -52 15q-36 0 -36 -45q0 -20 11 -34.5t26.5 -26t31 -26t26.5 -43t11 -69.5zM263 522q0 76 -16 102t-61 26h-41v-260h41q43 0 60 25.5
t17 106.5z" />
    <glyph glyph-name="Euro.lf" horiz-adv-x="587" 
d="M447 347l-14 -70h-209q14 -97 59.5 -138t126.5 -41q68 0 131 34l10 -98q-68 -42 -169 -42q-128 0 -196.5 69t-85.5 216h-77l1 70h71v52h-71l-1 74h77q18 136 92 209t195 73q93 0 157 -31l-23 -105q-46 21 -108 21q-82 0 -128 -40.5t-60 -126.5h254l-15 -74h-246v-52h229z
" />
    <glyph glyph-name="numbersign.tosf" horiz-adv-x="550" 
d="M36 263h85l19 125h-103v89h114l22 172h92l-23 -172h105l23 172h90l-23 -172h77v-89h-87l-18 -125h105v-89h-115l-23 -174h-90l23 174h-106l-23 -174h-92l22 174h-74v89zM232 388l-18 -125h105l18 125h-105z" />
    <glyph glyph-name="dollar.tosf" horiz-adv-x="550" 
d="M490 184q0 -81 -43.5 -131.5t-134.5 -61.5l-9 -128h-100l8 128q-87 8 -147 43l16 110q77 -49 182 -49q103 0 103 77q0 31 -31 49.5t-75.5 31t-89 29t-75.5 54.5t-31 97q0 75 45.5 121t135.5 56l9 124h100l-9 -125q61 -7 123 -31l-12 -109q-79 33 -163 33q-49 0 -75 -16.5
t-26 -46.5q0 -25 22 -42t55.5 -25t72 -21.5t72 -30t55.5 -51.5t22 -85z" />
    <glyph glyph-name="zero.tosf" horiz-adv-x="550" 
d="M517 317q0 -171 -58 -249t-185 -78q-128 0 -184.5 77.5t-56.5 249.5q0 178 56.5 254t185.5 76t185.5 -76t56.5 -254zM397 318q0 129 -28 173.5t-94 44.5t-94.5 -45t-28.5 -173q0 -90 14 -138.5t39 -64.5t70 -16q66 0 94 45t28 174z" />
    <glyph glyph-name="one.tosf" horiz-adv-x="550" 
d="M106 0v77h139v414l-158 -91l-13 102l221 137h72v-562h131v-77h-392z" />
    <glyph glyph-name="two.tosf" horiz-adv-x="550" 
d="M491 462q0 -85 -64 -162.5t-202 -189.5v-3h268l-3 -107h-426v81q23 22 66.5 62.5t65 61t54.5 53.5t49.5 54t34.5 47t25.5 48.5t7.5 43.5q0 85 -116 85q-83 0 -161 -58l-30 99q91 69 212 69q106 0 162.5 -49.5t56.5 -134.5z" />
    <glyph glyph-name="three.tosf" horiz-adv-x="550" 
d="M494 172q0 -131 -98 -203t-274 -77l-11 101q137 4 202.5 51.5t65.5 124.5q0 100 -125 101q-23 0 -59 -6l-7 87q99 12 136 36t37 70q0 81 -115 81q-92 0 -163 -54l-28 99q77 64 200 64q105 0 160.5 -47t55.5 -126q0 -100 -79 -145v-2q102 -37 102 -155z" />
    <glyph glyph-name="four.tosf" horiz-adv-x="550" 
d="M529 63h-70v-164l-110 -6v170h-318l-10 84l302 499l136 -9v-472h73zM352 165l7 293l4 81l-2 1l-40 -71l-136 -235l-41 -66l1 -3h207z" />
    <glyph glyph-name="five.tosf" horiz-adv-x="550" 
d="M495 183q0 -135 -97.5 -211.5t-277.5 -79.5l-12 106q132 3 200 48.5t68 123.5q0 98 -130 98q-73 0 -137 -31l-40 50l27 351h365l5 -117h-274l-12 -162q48 16 106 16q100 0 154.5 -49.5t54.5 -142.5z" />
    <glyph glyph-name="six.tosf" horiz-adv-x="550" 
d="M511 258q0 -267 -227 -267q-118 0 -179 78.5t-61 253.5q0 204 105.5 312.5t264.5 112.5l17 -107q-117 -4 -185 -61t-82 -157l2 -2q62 49 141 49q204 0 204 -212zM393 257q0 59 -26.5 86t-83.5 27q-32 0 -65.5 -15t-50.5 -39q1 -122 28.5 -167.5t88.5 -45.5q109 0 109 154
z" />
    <glyph glyph-name="seven.tosf" horiz-adv-x="550" 
d="M501 637v-103l-259 -631h-133l264 616h-323l8 118h443z" />
    <glyph glyph-name="eight.tosf" horiz-adv-x="550" 
d="M134 335v2q-72 49 -72 141q0 168 216 168q214 0 214 -169q0 -89 -78 -140v-2q102 -46 102 -153q0 -192 -238 -192q-241 0 -241 192q0 46 25.5 86.5t71.5 66.5zM396 174q0 19 -8.5 34t-19.5 25t-36 21.5t-42 17.5t-54 18q-81 -43 -81 -107q0 -50 29 -72.5t96 -22.5
q116 0 116 86zM175 472q0 -22 10 -38t34 -28.5t41.5 -18t54.5 -16.5q69 38 69 95q0 42 -25.5 62.5t-82.5 20.5q-101 0 -101 -77z" />
    <glyph glyph-name="nine.tosf" horiz-adv-x="550" 
d="M504 337q0 -114 -28 -200.5t-79.5 -138t-117 -77t-146.5 -27.5l-13 104q109 5 177.5 63.5t83.5 168.5l-2 2q-52 -44 -133 -44q-95 0 -149 56t-54 167q0 114 57.5 175t168.5 61q235 0 235 -310zM383 355q-1 99 -28 139t-88 40q-104 0 -104 -120q0 -61 26 -90t83 -29
q83 0 111 60z" />
    <glyph glyph-name="cent.tosf" horiz-adv-x="550" 
d="M492 583l-8 -111q-62 24 -121 24q-94 0 -133 -43.5t-39 -148.5q0 -110 43.5 -157.5t128.5 -47.5q68 0 125 30l9 -102q-48 -32 -130 -38l-8 -128h-97l8 131q-208 33 -208 311q0 141 56.5 217.5t176.5 88.5l10 125h97l-10 -127q54 -6 100 -24z" />
    <glyph glyph-name="sterling.tosf" horiz-adv-x="550" 
d="M53 277l-4 91h43q-19 61 -19 100q0 84 58 137t187 53q87 0 161 -28l-15 -103q-60 24 -134 24q-136 0 -136 -95q0 -34 15 -88h219v-91h-197q4 -34 4 -54q0 -84 -59 -123l2 -3q69 16 168 16q82 0 164 -11l-6 -108q-112 12 -214 12q-127 0 -246 -10l-5 105q39 9 60.5 41.5
t21.5 74.5q0 28 -5 60h-63z" />
    <glyph glyph-name="currency.tosf" horiz-adv-x="550" 
d="M105 326q0 47 23 87l-62 64l62 68l65 -68q38 22 82 22q42 0 81 -21l67 67l62 -68l-63 -65q22 -39 22 -86q0 -42 -19 -80l60 -61l-63 -68l-59 61q-41 -25 -88 -25q-49 0 -88 25l-60 -61l-62 68l59 60q-19 38 -19 81zM184 328q0 -37 26 -62.5t64 -25.5t64.5 25.5t26.5 62.5
q0 36 -26.5 61.5t-64.5 25.5q-37 0 -63.5 -25.5t-26.5 -61.5z" />
    <glyph glyph-name="yen.tosf" horiz-adv-x="550" 
d="M99 298h85l-167 351h130l100 -262l27 -76h3l26 76l99 262h128l-163 -351h87v-64h-115v-45h115v-63h-115v-126h-126v126h-114v63h114v45h-114v64z" />
    <glyph glyph-name="uni2007.tosf" horiz-adv-x="550" 
 />
    <glyph glyph-name="franc.tosf" horiz-adv-x="550" 
d="M31 166h65v483h411l2 -110h-294v-159h224v-105h-224v-109h71v-82h-71v-84h-119v84h-65v82z" />
    <glyph glyph-name="lira.tosf" horiz-adv-x="550" 
d="M58 343l-5 62h28q-8 32 -8 63q0 84 58 137t188 53q86 0 161 -28l-16 -103q-58 24 -133 24q-136 0 -136 -95q0 -27 6 -51h235v-62h-219q7 -26 11 -44h208v-62h-200v-14q0 -84 -59 -123l2 -3q69 16 168 16q83 0 163 -11l-6 -108q-111 12 -214 12q-128 0 -245 -10l-5 105
q38 9 59.5 41.5t21.5 74.5q0 3 -0.5 10t-0.5 10h-58l-4 62h54l-12 44h-42z" />
    <glyph glyph-name="peseta.tosf" horiz-adv-x="550" 
d="M538 406h-49q-7 -90 -59.5 -133t-161.5 -43h-90v-230h-113v406h-45v58h45v185h203q110 0 163 -44t58 -141h49v-58zM178 547v-83h194q-4 46 -28.5 64.5t-76.5 18.5h-89zM268 327q50 0 74 16.5t29 62.5h-193v-79h90z" />
    <glyph glyph-name="Euro.tosf" horiz-adv-x="550" 
d="M519 625l-30 -99q-50 21 -109 21q-77 0 -117.5 -29t-53.5 -95h252l-20 -67h-240v-56h223l-20 -64h-195q15 -74 56.5 -107t111.5 -33q71 0 127 33l6 -99q-64 -43 -164 -43q-241 0 -275 249h-43v64h37v56h-37v67h44q35 236 278 236q99 0 169 -34z" />
    <glyph glyph-name="exclam.sc" horiz-adv-x="267" 
d="M177 183h-87l-18 466h122zM201 50q0 -60 -65 -60q-34 0 -50 14t-16 46q0 61 66 61q65 0 65 -61z" />
    <glyph glyph-name="ampersand.sc" horiz-adv-x="614" 
d="M606 97l-41 -105q-62 30 -134 83q-89 -87 -202 -87q-94 0 -139.5 51.5t-45.5 127.5q0 104 113 193q-52 84 -52 145q0 70 41 112t129 42q74 0 121 -34.5t47 -91.5q0 -37 -24 -73.5t-50 -58t-76 -58.5q54 -63 127 -124q33 59 46 121h96q-9 -88 -65 -179q56 -39 109 -64z
M247 96q58 0 106 42q-78 67 -139 142q-53 -51 -53 -104q0 -38 22.5 -59t63.5 -21zM209 505q0 -36 30 -88q46 31 68.5 54.5t22.5 50.5q0 48 -58 48q-29 0 -46 -16.5t-17 -48.5z" />
    <glyph glyph-name="question.sc" horiz-adv-x="441" 
d="M405 498q0 -130 -147 -211l-5 -104h-86l-7 147q66 39 97.5 72.5t31.5 77.5q0 71 -90 71q-74 0 -131 -51l-41 92q71 66 189 66q93 0 141 -42t48 -118zM275 50q0 -60 -65 -60q-34 0 -49.5 14t-15.5 46q0 61 65 61t65 -61z" />
    <glyph glyph-name="grave.sc" 
d="M267 689h-89l-112 127h136z" />
    <glyph glyph-name="a.sc" horiz-adv-x="611" 
d="M464 0l-41 138h-243l-41 -138h-128l221 649h145l223 -649h-136zM302 552l-22 -79l-69 -231h182l-68 231l-20 79h-3z" />
    <glyph glyph-name="b.sc" horiz-adv-x="571" 
d="M537 188q0 -188 -218 -188h-250v649h245q99 0 149 -42.5t50 -122.5q0 -104 -86 -139v-2q110 -29 110 -155zM416 197q0 47 -23.5 68.5t-75.5 21.5h-132v-184h136q50 0 72.5 21t22.5 73zM398 462q0 44 -20.5 62.5t-67.5 18.5h-125v-164h129q44 0 64 20t20 63z" />
    <glyph glyph-name="c.sc" horiz-adv-x="501" 
d="M466 632l-14 -108q-55 24 -125 24q-91 0 -128.5 -47.5t-37.5 -171.5q0 -131 38 -181t131 -50q66 0 125 27l13 -102q-68 -34 -155 -34q-142 0 -210 82.5t-68 257.5q0 168 69 249.5t216 81.5q79 0 146 -28z" />
    <glyph glyph-name="d.sc" horiz-adv-x="609" 
d="M574 327q0 -173 -68 -250t-209 -77h-228v649h226q148 0 213.5 -76t65.5 -246zM448 328q0 123 -34 166t-119 43h-106v-426h106q85 0 119 43.5t34 173.5z" />
    <glyph glyph-name="e.sc" horiz-adv-x="520" 
d="M189 109h299l-3 -109h-416v649h403l3 -111h-286v-153h242v-100h-242v-176z" />
    <glyph glyph-name="f.sc" horiz-adv-x="502" 
d="M474 536h-284v-162h246l-1 -108h-245v-266h-121v649h402z" />
    <glyph glyph-name="g.sc" horiz-adv-x="563" 
d="M514 347v-323q-73 -35 -186 -35q-155 0 -224 80.5t-69 253.5q0 174 71 255.5t225 81.5q98 0 171 -31l-12 -107q-72 28 -152 28q-99 0 -137.5 -48t-38.5 -177t35.5 -177t126.5 -48q44 0 82 11v236h108z" />
    <glyph glyph-name="h.sc" horiz-adv-x="627" 
d="M558 0h-122v277h-246v-277h-121v649h121v-259h246v259h122v-649z" />
    <glyph glyph-name="i.sc" horiz-adv-x="281" 
d="M78 0v649h124v-649h-124z" />
    <glyph glyph-name="j.sc" horiz-adv-x="414" 
d="M353 649v-435q0 -225 -203 -225q-77 0 -123 29l8 105q37 -26 92 -26t79 27.5t24 89.5v435h123z" />
    <glyph glyph-name="k.sc" horiz-adv-x="598" 
d="M583 0h-147l-173 284h-74v-284h-120v649h120v-264h79l166 264h139l-199 -308z" />
    <glyph glyph-name="l.sc" horiz-adv-x="480" 
d="M190 112h271l-4 -112h-388v649h121v-537z" />
    <glyph glyph-name="m.sc" horiz-adv-x="772" 
d="M69 649h134l154 -396l28 -76h3l27 76l155 396h133v-649h-110v378l2 81l-3 1l-27 -77l-141 -383h-80l-140 373l-27 77l-2 -1l1 -81v-368h-107v649z" />
    <glyph glyph-name="n.sc" horiz-adv-x="631" 
d="M562 0h-96l-247 392l-42 70l-2 -1l1 -81v-380h-107v649h104l239 -376l43 -68l2 1l-2 80v363h107v-649z" />
    <glyph glyph-name="o.sc" horiz-adv-x="611" 
d="M575 324q0 -180 -62.5 -257.5t-206.5 -77.5q-143 0 -207 79.5t-64 255.5q0 178 63 256.5t208 78.5q144 0 206.5 -78.5t62.5 -256.5zM449 324q0 132 -31 178t-112 46q-82 0 -113.5 -46.5t-31.5 -177.5t32 -177.5t113 -46.5t112 46.5t31 177.5z" />
    <glyph glyph-name="p.sc" horiz-adv-x="557" 
d="M524 435q0 -106 -56 -158t-181 -52h-97v-225h-121v649h218q125 0 181 -51t56 -163zM399 435q0 62 -25 85.5t-87 23.5h-98v-219h98q62 0 87 22.5t25 87.5z" />
    <glyph glyph-name="q.sc" horiz-adv-x="620" 
d="M580 324q0 -142 -38.5 -219t-124.5 -103l121 -102l-135 -25l-111 115q-133 4 -192.5 83.5t-59.5 250.5q0 178 63 256.5t208 78.5q144 0 206.5 -78.5t62.5 -256.5zM454 324q0 132 -31 178t-112 46q-82 0 -113.5 -46.5t-31.5 -177.5t32 -177.5t113 -46.5t112 46.5t31 177.5
z" />
    <glyph glyph-name="r.sc" horiz-adv-x="574" 
d="M514 453q0 -70 -28.5 -115t-82.5 -60l152 -278h-142l-123 255h-100v-255h-121v649h221q114 0 169 -47.5t55 -148.5zM388 449q0 54 -21.5 75t-75.5 21h-101v-196h99q54 0 76.5 21.5t22.5 78.5z" />
    <glyph glyph-name="s.sc" horiz-adv-x="487" 
d="M456 190q0 -94 -59.5 -147.5t-166.5 -53.5q-112 0 -191 47l18 107q81 -47 171 -47q112 0 112 86q0 28 -22 48t-55 31.5t-71.5 28t-71.5 35t-55 55.5t-22 88q0 85 55 138t165 53q101 0 172 -33l-15 -105q-81 28 -151 28q-110 0 -110 -75q0 -23 16.5 -40.5t42.5 -28.5
t58 -22t63.5 -26t57.5 -34.5t42.5 -53.5t16.5 -79z" />
    <glyph glyph-name="t.sc" horiz-adv-x="497" 
d="M485 538h-175v-538h-123v538h-175l2 111h469z" />
    <glyph glyph-name="u.sc" horiz-adv-x="618" 
d="M557 649v-421q0 -239 -247 -239q-249 0 -249 239v421h121v-419q0 -67 31 -98t97 -31t96 30.5t30 98.5v419h121z" />
    <glyph glyph-name="v.sc" horiz-adv-x="596" 
d="M456 649h126l-215 -649h-138l-216 649h134l132 -457l21 -78h3l20 78z" />
    <glyph glyph-name="w.sc" horiz-adv-x="867" 
d="M370 649h131l98 -458l16 -79h3l12 80l84 457h120l-148 -649h-146l-91 450l-14 80h-3l-15 -80l-91 -450h-145l-149 649h127l82 -459l13 -80h3l15 79z" />
    <glyph glyph-name="x.sc" horiz-adv-x="598" 
d="M564 649l-178 -310l187 -339h-139l-99 191l-35 73h-3l-35 -73l-96 -191h-141l184 337l-178 312h144l88 -166l36 -72h3l35 72l88 166h139z" />
    <glyph glyph-name="y.sc" horiz-adv-x="582" 
d="M13 649h138l111 -259l31 -75h3l29 75l111 259h133l-214 -438v-211h-124v211z" />
    <glyph glyph-name="z.sc" horiz-adv-x="524" 
d="M482 0h-445v81l255 388l45 65l-1 2h-291l4 113h433v-91l-250 -379l-45 -64l1 -3h296z" />
    <glyph glyph-name="exclamdown.sc" horiz-adv-x="276" 
d="M92 448h94l15 -540h-125zM66 601q0 65 71 65t71 -65q0 -67 -71 -67t-71 67z" />
    <glyph glyph-name="dieresis.sc" 
d="M160 757q0 -49 -51 -49q-27 0 -39.5 11.5t-12.5 37.5q0 50 52 50q51 0 51 -50zM325 757q0 -49 -52 -49q-27 0 -39.5 11.5t-12.5 37.5q0 50 52 50t52 -50z" />
    <glyph glyph-name="macron.sc" 
d="M331 781v-70h-281v70h281z" />
    <glyph glyph-name="acute.sc" 
d="M210 816h145l-130 -127h-98z" />
    <glyph glyph-name="cedilla.sc" 
d="M109 -187l64 197l79 1l-33 -198h-110z" />
    <glyph glyph-name="questiondown.sc" horiz-adv-x="470" 
d="M36 79q0 80 40.5 138.5t118.5 107.5l5 123h92l7 -167q-72 -49 -106.5 -89t-34.5 -92q0 -84 99 -84q83 0 143 57l43 -99q-77 -74 -204 -74q-100 0 -151.5 47t-51.5 132zM175 601q0 65 71 65q37 0 54 -15.5t17 -49.5q0 -67 -71 -67t-71 67z" />
    <glyph glyph-name="germandbls.sc" horiz-adv-x="974" 
d="M456 190q0 -94 -59.5 -147.5t-166.5 -53.5q-112 0 -191 47l18 107q81 -47 171 -47q112 0 112 86q0 28 -22 48t-55 31.5t-71.5 28t-71.5 35t-55 55.5t-22 88q0 85 55 138t165 53q101 0 172 -33l-15 -105q-81 28 -151 28q-110 0 -110 -75q0 -23 16.5 -40.5t42.5 -28.5
t58 -22t63.5 -26t57.5 -34.5t42.5 -53.5t16.5 -79zM943 190q0 -94 -59.5 -147.5t-166.5 -53.5q-112 0 -191 47l18 107q81 -47 171 -47q112 0 112 86q0 28 -22 48t-55 31.5t-71.5 28t-71.5 35t-55 55.5t-22 88q0 85 55 138t165 53q102 0 172 -33l-15 -105q-81 28 -151 28
q-110 0 -110 -75q0 -31 30.5 -52t74 -35.5t87.5 -34t74.5 -60.5t30.5 -102z" />
    <glyph glyph-name="agrave.sc" horiz-adv-x="611" 
d="M464 0l-41 138h-243l-41 -138h-128l221 649h145l223 -649h-136zM302 552l-22 -79l-69 -231h182l-68 231l-20 79h-3zM375 689h-89l-112 127h136z" />
    <glyph glyph-name="aacute.sc" horiz-adv-x="611" 
d="M464 0l-41 138h-243l-41 -138h-128l221 649h145l223 -649h-136zM302 552l-22 -79l-69 -231h182l-68 231l-20 79h-3zM322 816h145l-130 -127h-98z" />
    <glyph glyph-name="acircumflex.sc" horiz-adv-x="611" 
d="M464 0l-41 138h-243l-41 -138h-128l221 649h145l223 -649h-136zM302 552l-22 -79l-69 -231h182l-68 231l-20 79h-3zM251 817h102l95 -128h-90l-55 82l-54 -82h-91z" />
    <glyph glyph-name="atilde.sc" horiz-adv-x="611" 
d="M464 0l-41 138h-243l-41 -138h-128l221 649h145l223 -649h-136zM302 552l-22 -79l-69 -231h182l-68 231l-20 79h-3zM213 717h-54q3 46 26.5 75t61.5 29q31 0 66.5 -24t52.5 -24q26 0 35 37l55 -1q-3 -46 -27 -74t-62 -28q-30 0 -66 23.5t-53 23.5q-25 0 -35 -37z" />
    <glyph glyph-name="adieresis.sc" horiz-adv-x="611" 
d="M464 0l-41 138h-243l-41 -138h-128l221 649h145l223 -649h-136zM302 552l-22 -79l-69 -231h182l-68 231l-20 79h-3zM273 757q0 -49 -51 -49q-27 0 -39.5 11.5t-12.5 37.5q0 50 52 50q51 0 51 -50zM438 757q0 -49 -52 -49q-27 0 -39.5 11.5t-12.5 37.5q0 50 52 50t52 -50z
" />
    <glyph glyph-name="aring.sc" horiz-adv-x="611" 
d="M191 710q0 41 28 64.5t85 23.5q55 0 84.5 -24t29.5 -64q0 -51 -37 -73l219 -637h-136l-41 138h-243l-41 -138h-128l217 637q-37 23 -37 73zM302 552l-22 -79l-69 -231h182l-68 231l-20 79h-3zM255 709q0 -36 51 -36q50 0 50 36q0 37 -50 37q-51 0 -51 -37z" />
    <glyph glyph-name="ae.sc" horiz-adv-x="870" 
d="M829 538h-290l11 -153h231v-100h-223l13 -176h266l-2 -109h-380l-10 138h-229l-65 -138h-143l338 649h479zM414 558l-33 -74l-116 -243h172l-16 235l-4 81z" />
    <glyph glyph-name="ccedilla.sc" horiz-adv-x="501" 
d="M196 -187l58 180q-111 16 -165 98t-54 238q0 168 69 249.5t216 81.5q79 0 146 -28l-14 -108q-55 24 -125 24q-91 0 -128.5 -47.5t-37.5 -171.5q0 -131 38 -181t131 -50q66 0 125 27l13 -102q-55 -28 -133 -33l-29 -177h-110z" />
    <glyph glyph-name="egrave.sc" horiz-adv-x="520" 
d="M189 109h299l-3 -109h-416v649h403l3 -111h-286v-153h242v-100h-242v-176zM353 689h-89l-112 127h136z" />
    <glyph glyph-name="eacute.sc" horiz-adv-x="520" 
d="M189 109h299l-3 -109h-416v649h403l3 -111h-286v-153h242v-100h-242v-176zM300 816h145l-130 -127h-98z" />
    <glyph glyph-name="ecircumflex.sc" horiz-adv-x="520" 
d="M189 109h299l-3 -109h-416v649h403l3 -111h-286v-153h242v-100h-242v-176zM229 817h102l95 -128h-90l-55 82l-54 -82h-91z" />
    <glyph glyph-name="edieresis.sc" horiz-adv-x="520" 
d="M189 109h299l-3 -109h-416v649h403l3 -111h-286v-153h242v-100h-242v-176zM251 757q0 -49 -51 -49q-27 0 -39.5 11.5t-12.5 37.5q0 50 52 50q51 0 51 -50zM416 757q0 -49 -52 -49q-27 0 -39.5 11.5t-12.5 37.5q0 50 52 50t52 -50z" />
    <glyph glyph-name="igrave.sc" horiz-adv-x="281" 
d="M78 0v649h124v-649h-124zM211 689h-89l-112 127h136z" />
    <glyph glyph-name="iacute.sc" horiz-adv-x="281" 
d="M78 0v649h124v-649h-124zM157 816h145l-130 -127h-98z" />
    <glyph glyph-name="icircumflex.sc" horiz-adv-x="281" 
d="M78 0v649h124v-649h-124zM86 817h102l95 -128h-90l-55 82l-54 -82h-91z" />
    <glyph glyph-name="idieresis.sc" horiz-adv-x="281" 
d="M78 0v649h124v-649h-124zM108 757q0 -49 -51 -49q-27 0 -39.5 11.5t-12.5 37.5q0 50 52 50q51 0 51 -50zM273 757q0 -49 -52 -49q-27 0 -39.5 11.5t-12.5 37.5q0 50 52 50t52 -50z" />
    <glyph glyph-name="eth.sc" horiz-adv-x="618" 
d="M583 327q0 -173 -68 -250t-209 -77h-228v296h-65v87h65v266h226q148 0 213.5 -76t65.5 -246zM457 328q0 123 -34 166t-119 43h-106v-154h103v-87h-103v-185h106q85 0 119 43.5t34 173.5z" />
    <glyph glyph-name="ntilde.sc" horiz-adv-x="631" 
d="M562 0h-96l-247 392l-42 70l-2 -1l1 -81v-380h-107v649h104l239 -376l43 -68l2 1l-2 80v363h107v-649zM223 717h-54q3 46 26.5 75t61.5 29q31 0 66.5 -24t52.5 -24q26 0 35 37l55 -1q-3 -46 -27 -74t-62 -28q-30 0 -66 23.5t-53 23.5q-25 0 -35 -37z" />
    <glyph glyph-name="ograve.sc" horiz-adv-x="611" 
d="M575 324q0 -180 -62.5 -257.5t-206.5 -77.5q-143 0 -207 79.5t-64 255.5q0 178 63 256.5t208 78.5q144 0 206.5 -78.5t62.5 -256.5zM449 324q0 132 -31 178t-112 46q-82 0 -113.5 -46.5t-31.5 -177.5t32 -177.5t113 -46.5t112 46.5t31 177.5zM378 689h-89l-112 127h136z
" />
    <glyph glyph-name="oacute.sc" horiz-adv-x="611" 
d="M575 324q0 -180 -62.5 -257.5t-206.5 -77.5q-143 0 -207 79.5t-64 255.5q0 178 63 256.5t208 78.5q144 0 206.5 -78.5t62.5 -256.5zM449 324q0 132 -31 178t-112 46q-82 0 -113.5 -46.5t-31.5 -177.5t32 -177.5t113 -46.5t112 46.5t31 177.5zM324 816h145l-130 -127h-98z
" />
    <glyph glyph-name="ocircumflex.sc" horiz-adv-x="611" 
d="M575 324q0 -180 -62.5 -257.5t-206.5 -77.5q-143 0 -207 79.5t-64 255.5q0 178 63 256.5t208 78.5q144 0 206.5 -78.5t62.5 -256.5zM449 324q0 132 -31 178t-112 46q-82 0 -113.5 -46.5t-31.5 -177.5t32 -177.5t113 -46.5t112 46.5t31 177.5zM253 817h102l95 -128h-90
l-55 82l-54 -82h-91z" />
    <glyph glyph-name="otilde.sc" horiz-adv-x="611" 
d="M575 324q0 -180 -62.5 -257.5t-206.5 -77.5q-143 0 -207 79.5t-64 255.5q0 178 63 256.5t208 78.5q144 0 206.5 -78.5t62.5 -256.5zM449 324q0 132 -31 178t-112 46q-82 0 -113.5 -46.5t-31.5 -177.5t32 -177.5t113 -46.5t112 46.5t31 177.5zM215 717h-54q3 46 26.5 75
t61.5 29q31 0 66.5 -24t52.5 -24q26 0 35 37l55 -1q-3 -46 -27 -74t-62 -28q-30 0 -66 23.5t-53 23.5q-25 0 -35 -37z" />
    <glyph glyph-name="odieresis.sc" horiz-adv-x="611" 
d="M575 324q0 -180 -62.5 -257.5t-206.5 -77.5q-143 0 -207 79.5t-64 255.5q0 178 63 256.5t208 78.5q144 0 206.5 -78.5t62.5 -256.5zM449 324q0 132 -31 178t-112 46q-82 0 -113.5 -46.5t-31.5 -177.5t32 -177.5t113 -46.5t112 46.5t31 177.5zM275 757q0 -49 -51 -49
q-27 0 -39.5 11.5t-12.5 37.5q0 50 52 50q51 0 51 -50zM440 757q0 -49 -52 -49q-27 0 -39.5 11.5t-12.5 37.5q0 50 52 50t52 -50z" />
    <glyph glyph-name="oslash.sc" horiz-adv-x="611" 
d="M90 -14l-55 48l45 63q-44 79 -44 227q0 178 63.5 256.5t207.5 78.5q115 0 178 -50l43 56l54 -49l-49 -65q44 -79 44 -227q0 -180 -63 -257.5t-207 -77.5q-115 0 -178 50zM450 324q0 78 -9 127l-244 -308q31 -43 110 -43q81 0 112 46.5t31 177.5zM162 324q0 -80 10 -127
l244 310q-31 41 -109 41q-82 0 -113.5 -46.5t-31.5 -177.5z" />
    <glyph glyph-name="ugrave.sc" horiz-adv-x="618" 
d="M557 649v-421q0 -239 -247 -239q-249 0 -249 239v421h121v-419q0 -67 31 -98t97 -31t96 30.5t30 98.5v419h121zM382 689h-89l-112 127h136z" />
    <glyph glyph-name="uacute.sc" horiz-adv-x="618" 
d="M557 649v-421q0 -239 -247 -239q-249 0 -249 239v421h121v-419q0 -67 31 -98t97 -31t96 30.5t30 98.5v419h121zM328 816h145l-130 -127h-98z" />
    <glyph glyph-name="ucircumflex.sc" horiz-adv-x="618" 
d="M557 649v-421q0 -239 -247 -239q-249 0 -249 239v421h121v-419q0 -67 31 -98t97 -31t96 30.5t30 98.5v419h121zM257 817h102l95 -128h-90l-55 82l-54 -82h-91z" />
    <glyph glyph-name="udieresis.sc" horiz-adv-x="618" 
d="M557 649v-421q0 -239 -247 -239q-249 0 -249 239v421h121v-419q0 -67 31 -98t97 -31t96 30.5t30 98.5v419h121zM279 757q0 -49 -51 -49q-27 0 -39.5 11.5t-12.5 37.5q0 50 52 50q51 0 51 -50zM444 757q0 -49 -52 -49q-27 0 -39.5 11.5t-12.5 37.5q0 50 52 50t52 -50z" />
    <glyph glyph-name="yacute.sc" horiz-adv-x="582" 
d="M13 649h138l111 -259l31 -75h3l29 75l111 259h133l-214 -438v-211h-124v211zM312 816h145l-130 -127h-98z" />
    <glyph glyph-name="thorn.sc" horiz-adv-x="562" 
d="M524 329q0 -106 -58 -158t-190 -52h-86v-119h-121v649h121v-106h86q132 0 190 -51t58 -163zM399 330q0 62 -27 85.5t-96 23.5h-87v-220h87q68 0 95.5 23t27.5 88z" />
    <glyph glyph-name="ydieresis.sc" horiz-adv-x="582" 
d="M13 649h138l111 -259l31 -75h3l29 75l111 259h133l-214 -438v-211h-124v211zM263 757q0 -49 -51 -49q-27 0 -39.5 11.5t-12.5 37.5q0 50 52 50q51 0 51 -50zM428 757q0 -49 -52 -49q-27 0 -39.5 11.5t-12.5 37.5q0 50 52 50t52 -50z" />
    <glyph glyph-name="amacron.sc" horiz-adv-x="611" 
d="M464 0l-41 138h-243l-41 -138h-128l221 649h145l223 -649h-136zM302 552l-22 -79l-69 -231h182l-68 231l-20 79h-3zM444 781v-70h-281v70h281z" />
    <glyph glyph-name="abreve.sc" horiz-adv-x="611" 
d="M464 0l-41 138h-243l-41 -138h-128l221 649h145l223 -649h-136zM302 552l-22 -79l-69 -231h182l-68 231l-20 79h-3zM361 817h81q0 -133 -139 -133q-138 0 -138 133h79q1 -74 60 -74q57 0 57 74z" />
    <glyph glyph-name="aogonek.sc" horiz-adv-x="611" 
d="M464 0l-41 138h-243l-41 -138h-128l221 649h145l223 -649h-21q-24 -2 -39.5 -20t-15.5 -41q0 -41 51 -42q27 0 49 12l10 -67q-39 -22 -92 -22t-81 23t-28 61q0 63 57 96h-26zM302 552l-22 -79l-69 -231h182l-68 231l-20 79h-3z" />
    <glyph glyph-name="cacute.sc" horiz-adv-x="501" 
d="M466 632l-14 -108q-55 24 -125 24q-91 0 -128.5 -47.5t-37.5 -171.5q0 -131 38 -181t131 -50q66 0 125 27l13 -102q-68 -34 -155 -34q-142 0 -210 82.5t-68 257.5q0 168 69 249.5t216 81.5q79 0 146 -28zM315 816h145l-130 -127h-98z" />
    <glyph glyph-name="ccircumflex.sc" horiz-adv-x="501" 
d="M466 632l-14 -108q-55 24 -125 24q-91 0 -128.5 -47.5t-37.5 -171.5q0 -131 38 -181t131 -50q66 0 125 27l13 -102q-68 -34 -155 -34q-142 0 -210 82.5t-68 257.5q0 168 69 249.5t216 81.5q79 0 146 -28zM244 817h102l95 -128h-90l-55 82l-54 -82h-91z" />
    <glyph glyph-name="cdotaccent.sc" horiz-adv-x="501" 
d="M466 632l-14 -108q-55 24 -125 24q-91 0 -128.5 -47.5t-37.5 -171.5q0 -131 38 -181t131 -50q66 0 125 27l13 -102q-68 -34 -155 -34q-142 0 -210 82.5t-68 257.5q0 168 69 249.5t216 81.5q79 0 146 -28zM363 754q0 -51 -65 -51t-65 51q0 52 65 52t65 -52z" />
    <glyph glyph-name="ccaron.sc" horiz-adv-x="501" 
d="M466 632l-14 -108q-55 24 -125 24q-91 0 -128.5 -47.5t-37.5 -171.5q0 -131 38 -181t131 -50q66 0 125 27l13 -102q-68 -34 -155 -34q-142 0 -210 82.5t-68 257.5q0 168 69 249.5t216 81.5q79 0 146 -28zM348 689h-102l-94 128h91l54 -85l54 85h92z" />
    <glyph glyph-name="dcaron.sc" horiz-adv-x="609" 
d="M574 327q0 -173 -68 -250t-209 -77h-228v649h226q148 0 213.5 -76t65.5 -246zM448 328q0 123 -34 166t-119 43h-106v-426h106q85 0 119 43.5t34 173.5zM326 689h-102l-94 128h91l54 -85l54 85h92z" />
    <glyph glyph-name="dcroat.sc" horiz-adv-x="618" 
d="M583 327q0 -173 -68 -250t-209 -77h-228v296h-65v87h65v266h226q148 0 213.5 -76t65.5 -246zM457 328q0 123 -34 166t-119 43h-106v-154h103v-87h-103v-185h106q85 0 119 43.5t34 173.5z" />
    <glyph glyph-name="emacron.sc" horiz-adv-x="520" 
d="M189 109h299l-3 -109h-416v649h403l3 -111h-286v-153h242v-100h-242v-176zM413 781v-70h-281v70h281z" />
    <glyph glyph-name="ebreve.sc" horiz-adv-x="520" 
d="M189 109h299l-3 -109h-416v649h403l3 -111h-286v-153h242v-100h-242v-176zM339 817h81q0 -133 -139 -133q-138 0 -138 133h79q1 -74 60 -74q57 0 57 74z" />
    <glyph glyph-name="edotaccent.sc" horiz-adv-x="520" 
d="M189 109h299l-3 -109h-416v649h403l3 -111h-286v-153h242v-100h-242v-176zM347 754q0 -51 -65 -51t-65 51q0 52 65 52t65 -52z" />
    <glyph glyph-name="eogonek.sc" horiz-adv-x="520" 
d="M189 109h299l-3 -109h-44q-24 -2 -39.5 -20t-15.5 -41q0 -41 51 -42q27 0 49 12l10 -67q-39 -22 -92 -22t-81 23t-28 61q0 63 57 96h-283v649h403l3 -111h-286v-153h242v-100h-242v-176z" />
    <glyph glyph-name="ecaron.sc" horiz-adv-x="520" 
d="M189 109h299l-3 -109h-416v649h403l3 -111h-286v-153h242v-100h-242v-176zM329 689h-102l-94 128h91l54 -85l54 85h92z" />
    <glyph glyph-name="gcircumflex.sc" horiz-adv-x="563" 
d="M514 347v-323q-73 -35 -186 -35q-155 0 -224 80.5t-69 253.5q0 174 71 255.5t225 81.5q98 0 171 -31l-12 -107q-72 28 -152 28q-99 0 -137.5 -48t-38.5 -177t35.5 -177t126.5 -48q44 0 82 11v236h108zM258 817h102l95 -128h-90l-55 82l-54 -82h-91z" />
    <glyph glyph-name="gbreve.sc" horiz-adv-x="563" 
d="M514 347v-323q-73 -35 -186 -35q-155 0 -224 80.5t-69 253.5q0 174 71 255.5t225 81.5q98 0 171 -31l-12 -107q-72 28 -152 28q-99 0 -137.5 -48t-38.5 -177t35.5 -177t126.5 -48q44 0 82 11v236h108zM368 817h81q0 -133 -139 -133q-138 0 -138 133h79q1 -74 60 -74
q57 0 57 74z" />
    <glyph glyph-name="gdotaccent.sc" horiz-adv-x="563" 
d="M514 347v-323q-73 -35 -186 -35q-155 0 -224 80.5t-69 253.5q0 174 71 255.5t225 81.5q98 0 171 -31l-12 -107q-72 28 -152 28q-99 0 -137.5 -48t-38.5 -177t35.5 -177t126.5 -48q44 0 82 11v236h108zM377 754q0 -51 -65 -51t-65 51q0 52 65 52t65 -52z" />
    <glyph glyph-name="gcommaaccent.sc" horiz-adv-x="563" 
d="M514 347v-323q-73 -35 -186 -35q-155 0 -224 80.5t-69 253.5q0 174 71 255.5t225 81.5q98 0 171 -31l-12 -107q-72 28 -152 28q-99 0 -137.5 -48t-38.5 -177t35.5 -177t126.5 -48q44 0 82 11v236h108zM318 -36q70 0 70 -52q0 -43 -87 -111l-37 13l25 63q-41 9 -41 43
q0 44 70 44z" />
    <glyph glyph-name="hcircumflex.sc" horiz-adv-x="627" 
d="M558 0h-122v277h-246v-277h-121v649h121v-259h246v259h122v-649zM258 817h102l95 -128h-90l-55 82l-54 -82h-91z" />
    <glyph glyph-name="hbar.sc" horiz-adv-x="641" 
d="M565 0h-122v277h-246v-277h-121v485h-40v74h40v90h121v-90h246v90h122v-90h41v-74h-41v-485zM197 390h246v95h-246v-95z" />
    <glyph glyph-name="itilde.sc" horiz-adv-x="281" 
d="M78 0v649h124v-649h-124zM48 717h-54q3 46 26.5 75t61.5 29q31 0 66.5 -24t52.5 -24q26 0 35 37l55 -1q-3 -46 -27 -74t-62 -28q-30 0 -66 23.5t-53 23.5q-25 0 -35 -37z" />
    <glyph glyph-name="imacron.sc" horiz-adv-x="281" 
d="M78 0v649h124v-649h-124zM279 781v-70h-281v70h281z" />
    <glyph glyph-name="ibreve.sc" horiz-adv-x="281" 
d="M78 0v649h124v-649h-124zM196 817h81q0 -133 -139 -133q-138 0 -138 133h79q1 -74 60 -74q57 0 57 74z" />
    <glyph glyph-name="iogonek.sc" horiz-adv-x="281" 
d="M78 0v649h124v-649h-12q-24 -2 -39.5 -20t-15.5 -41q0 -41 51 -42q26 0 49 12l10 -67q-39 -22 -92 -22t-81 23t-28 61q0 63 57 96h-23z" />
    <glyph glyph-name="Idotaccent.sc" horiz-adv-x="281" 
d="M78 0v649h124v-649h-124zM205 754q0 -51 -65 -51t-65 51q0 52 65 52t65 -52z" />
    <glyph glyph-name="dotlessi.sc" horiz-adv-x="281" 
d="M78 0v649h124v-649h-124z" />
    <glyph glyph-name="ij.sc" horiz-adv-x="694" 
d="M633 649v-435q0 -225 -203 -225q-77 0 -123 29l8 105q37 -26 92 -26t79 27.5t24 89.5v435h123zM78 0v649h124v-649h-124z" />
    <glyph glyph-name="jcircumflex.sc" horiz-adv-x="414" 
d="M353 649v-435q0 -225 -203 -225q-77 0 -123 29l8 105q37 -26 92 -26t79 27.5t24 89.5v435h123zM240 817h102l95 -128h-90l-55 82l-54 -82h-91z" />
    <glyph glyph-name="kcommaaccent.sc" horiz-adv-x="598" 
d="M583 0h-147l-173 284h-74v-284h-120v649h120v-264h79l166 264h139l-199 -308zM308 -36q70 0 70 -52q0 -43 -87 -111l-37 13l25 63q-41 9 -41 43q0 44 70 44z" />
    <glyph glyph-name="kgreenlandic.sc" horiz-adv-x="598" 
d="M583 0h-147l-173 284h-74v-284h-120v649h120v-264h79l166 264h139l-199 -308z" />
    <glyph glyph-name="lacute.sc" horiz-adv-x="480" 
d="M190 112h271l-4 -112h-388v649h121v-537zM206 816h145l-130 -127h-98z" />
    <glyph glyph-name="lcommaaccent.sc" horiz-adv-x="480" 
d="M190 112h271l-4 -112h-388v649h121v-537zM259 -36q70 0 70 -52q0 -43 -87 -111l-37 13l25 63q-41 9 -41 43q0 44 70 44z" />
    <glyph glyph-name="lcaron.sc" horiz-adv-x="480" 
d="M190 112h271l-4 -112h-388v649h121v-537zM327 655q57 0 57 -53q0 -44 -72 -114l-29 13l22 65q-34 9 -34 44q0 45 56 45z" />
    <glyph glyph-name="ldot.sc" horiz-adv-x="480" 
d="M369 401q0 -62 -64 -62q-33 0 -48 14.5t-15 47.5q0 61 63 61q64 0 64 -61zM190 112h271l-4 -112h-388v649h121v-537z" />
    <glyph glyph-name="lslash.sc" horiz-adv-x="500" 
d="M211 112h271l-4 -112h-388v262l-64 -28l-6 102l70 31v282h121v-232l168 77l8 -105l-176 -79v-198z" />
    <glyph glyph-name="nacute.sc" horiz-adv-x="631" 
d="M562 0h-96l-247 392l-42 70l-2 -1l1 -81v-380h-107v649h104l239 -376l43 -68l2 1l-2 80v363h107v-649zM332 816h145l-130 -127h-98z" />
    <glyph glyph-name="ncommaaccent.sc" horiz-adv-x="631" 
d="M562 0h-96l-247 392l-42 70l-2 -1l1 -81v-380h-107v649h104l239 -376l43 -68l2 1l-2 80v363h107v-649zM313 -36q70 0 70 -52q0 -43 -87 -111l-37 13l25 63q-41 9 -41 43q0 44 70 44z" />
    <glyph glyph-name="ncaron.sc" horiz-adv-x="631" 
d="M562 0h-96l-247 392l-42 70l-2 -1l1 -81v-380h-107v649h104l239 -376l43 -68l2 1l-2 80v363h107v-649zM365 689h-102l-94 128h91l54 -85l54 85h92z" />
    <glyph glyph-name="napostrophe.sc" horiz-adv-x="664" 
d="M45 792q57 0 57 -53q0 -44 -72 -114l-29 13l22 65q-34 9 -34 44q0 45 56 45zM595 0h-96l-247 392l-42 70l-2 -1l1 -81v-380h-107v649h104l239 -376l43 -68l2 1l-2 80v363h107v-649z" />
    <glyph glyph-name="eng.sc" horiz-adv-x="631" 
d="M562 60q0 -182 -147 -182q-53 0 -88 23l6 77q24 -19 58 -19q56 0 64 56l-236 376l-42 70l-2 -1l1 -81v-379h-107v649h104l282 -444l2 1l-2 80v363h107v-589z" />
    <glyph glyph-name="omacron.sc" horiz-adv-x="611" 
d="M575 324q0 -180 -62.5 -257.5t-206.5 -77.5q-143 0 -207 79.5t-64 255.5q0 178 63 256.5t208 78.5q144 0 206.5 -78.5t62.5 -256.5zM449 324q0 132 -31 178t-112 46q-82 0 -113.5 -46.5t-31.5 -177.5t32 -177.5t113 -46.5t112 46.5t31 177.5zM446 781v-70h-281v70h281z
" />
    <glyph glyph-name="obreve.sc" horiz-adv-x="611" 
d="M575 324q0 -180 -62.5 -257.5t-206.5 -77.5q-143 0 -207 79.5t-64 255.5q0 178 63 256.5t208 78.5q144 0 206.5 -78.5t62.5 -256.5zM449 324q0 132 -31 178t-112 46q-82 0 -113.5 -46.5t-31.5 -177.5t32 -177.5t113 -46.5t112 46.5t31 177.5zM363 817h81
q0 -133 -139 -133q-138 0 -138 133h79q1 -74 60 -74q57 0 57 74z" />
    <glyph glyph-name="ohungarumlaut.sc" horiz-adv-x="611" 
d="M575 324q0 -180 -62.5 -257.5t-206.5 -77.5q-143 0 -207 79.5t-64 255.5q0 178 63 256.5t208 78.5q144 0 206.5 -78.5t62.5 -256.5zM449 324q0 132 -31 178t-112 46q-82 0 -113.5 -46.5t-31.5 -177.5t32 -177.5t113 -46.5t112 46.5t31 177.5zM247 816h120l-103 -127h-76z
M413 816h122l-113 -127h-85z" />
    <glyph glyph-name="oe.sc" horiz-adv-x="882" 
d="M848 0h-398v62l-3 1q-53 -74 -169 -74q-124 0 -183.5 79.5t-59.5 255.5q0 177 59 256t186 79q113 0 168 -64h2v54h385l2 -112h-278v-151h235v-102h-235v-174h291zM441 324q0 132 -30 177t-110 45q-79 0 -110 -45.5t-31 -176.5t31 -177t111 -46q79 0 109 46t30 177z" />
    <glyph glyph-name="racute.sc" horiz-adv-x="574" 
d="M514 453q0 -70 -28.5 -115t-82.5 -60l152 -278h-142l-123 255h-100v-255h-121v649h221q114 0 169 -47.5t55 -148.5zM388 449q0 54 -21.5 75t-75.5 21h-101v-196h99q54 0 76.5 21.5t22.5 78.5zM287 816h145l-130 -127h-98z" />
    <glyph glyph-name="rcommaaccent.sc" horiz-adv-x="574" 
d="M514 453q0 -70 -28.5 -115t-82.5 -60l152 -278h-142l-123 255h-100v-255h-121v649h221q114 0 169 -47.5t55 -148.5zM388 449q0 54 -21.5 75t-75.5 21h-101v-196h99q54 0 76.5 21.5t22.5 78.5zM297 -36q70 0 70 -52q0 -43 -87 -111l-37 13l25 63q-41 9 -41 43q0 44 70 44z
" />
    <glyph glyph-name="rcaron.sc" horiz-adv-x="574" 
d="M514 453q0 -70 -28.5 -115t-82.5 -60l152 -278h-142l-123 255h-100v-255h-121v649h221q114 0 169 -47.5t55 -148.5zM388 449q0 54 -21.5 75t-75.5 21h-101v-196h99q54 0 76.5 21.5t22.5 78.5zM319 689h-102l-94 128h91l54 -85l54 85h92z" />
    <glyph glyph-name="sacute.sc" horiz-adv-x="487" 
d="M456 190q0 -94 -59.5 -147.5t-166.5 -53.5q-112 0 -191 47l18 107q81 -47 171 -47q112 0 112 86q0 28 -22 48t-55 31.5t-71.5 28t-71.5 35t-55 55.5t-22 88q0 85 55 138t165 53q101 0 172 -33l-15 -105q-81 28 -151 28q-110 0 -110 -75q0 -23 16.5 -40.5t42.5 -28.5
t58 -22t63.5 -26t57.5 -34.5t42.5 -53.5t16.5 -79zM275 816h145l-130 -127h-98z" />
    <glyph glyph-name="scircumflex.sc" horiz-adv-x="487" 
d="M456 190q0 -94 -59.5 -147.5t-166.5 -53.5q-112 0 -191 47l18 107q81 -47 171 -47q112 0 112 86q0 28 -22 48t-55 31.5t-71.5 28t-71.5 35t-55 55.5t-22 88q0 85 55 138t165 53q101 0 172 -33l-15 -105q-81 28 -151 28q-110 0 -110 -75q0 -23 16.5 -40.5t42.5 -28.5
t58 -22t63.5 -26t57.5 -34.5t42.5 -53.5t16.5 -79zM203 817h102l95 -128h-90l-55 82l-54 -82h-91z" />
    <glyph glyph-name="scedilla.sc" horiz-adv-x="487" 
d="M150 -187l57 177q-100 5 -168 46l18 107q81 -47 171 -47q112 0 112 86q0 28 -22 48t-55 31.5t-71.5 28t-71.5 35t-55 55.5t-22 88q0 85 55 138t165 53q101 0 172 -33l-15 -105q-81 28 -151 28q-110 0 -110 -75q0 -23 16.5 -40.5t42.5 -28.5t58 -22t63.5 -26t57.5 -34.5
t42.5 -53.5t16.5 -79q0 -80 -43 -131t-123 -65l-30 -181h-110z" />
    <glyph glyph-name="scaron.sc" horiz-adv-x="487" 
d="M456 190q0 -94 -59.5 -147.5t-166.5 -53.5q-112 0 -191 47l18 107q81 -47 171 -47q112 0 112 86q0 28 -22 48t-55 31.5t-71.5 28t-71.5 35t-55 55.5t-22 88q0 85 55 138t165 53q101 0 172 -33l-15 -105q-81 28 -151 28q-110 0 -110 -75q0 -23 16.5 -40.5t42.5 -28.5
t58 -22t63.5 -26t57.5 -34.5t42.5 -53.5t16.5 -79zM307 689h-102l-94 128h91l54 -85l54 85h92z" />
    <glyph glyph-name="tcommaaccent.sc" horiz-adv-x="497" 
d="M147 -187l61 187h-21v538h-175l2 111h469l2 -111h-175v-538h-22l-31 -187h-110z" />
    <glyph glyph-name="tcaron.sc" horiz-adv-x="497" 
d="M485 538h-175v-538h-123v538h-175l2 111h469zM300 689h-102l-94 128h91l54 -85l54 85h92z" />
    <glyph glyph-name="tbar.sc" horiz-adv-x="497" 
d="M485 538h-175v-129h90v-87h-90v-322h-123v322h-85v87h85v129h-175l2 111h469z" />
    <glyph glyph-name="utilde.sc" horiz-adv-x="618" 
d="M557 649v-421q0 -239 -247 -239q-249 0 -249 239v421h121v-419q0 -67 31 -98t97 -31t96 30.5t30 98.5v419h121zM219 717h-54q3 46 26.5 75t61.5 29q31 0 66.5 -24t52.5 -24q26 0 35 37l55 -1q-3 -46 -27 -74t-62 -28q-30 0 -66 23.5t-53 23.5q-25 0 -35 -37z" />
    <glyph glyph-name="umacron.sc" horiz-adv-x="618" 
d="M557 649v-421q0 -239 -247 -239q-249 0 -249 239v421h121v-419q0 -67 31 -98t97 -31t96 30.5t30 98.5v419h121zM450 781v-70h-281v70h281z" />
    <glyph glyph-name="ubreve.sc" horiz-adv-x="618" 
d="M557 649v-421q0 -239 -247 -239q-249 0 -249 239v421h121v-419q0 -67 31 -98t97 -31t96 30.5t30 98.5v419h121zM367 817h81q0 -133 -139 -133q-138 0 -138 133h79q1 -74 60 -74q57 0 57 74z" />
    <glyph glyph-name="uring.sc" horiz-adv-x="618" 
d="M557 649v-421q0 -239 -247 -239q-249 0 -249 239v421h121v-419q0 -67 31 -98t97 -31t96 30.5t30 98.5v419h121zM196 740q0 41 28 64.5t85 23.5q55 0 84.5 -24t29.5 -64q0 -89 -114 -89q-113 0 -113 89zM260 739q0 -36 51 -36q50 0 50 36q0 37 -50 37q-51 0 -51 -37z" />
    <glyph glyph-name="uhungarumlaut.sc" horiz-adv-x="618" 
d="M557 649v-421q0 -239 -247 -239q-249 0 -249 239v421h121v-419q0 -67 31 -98t97 -31t96 30.5t30 98.5v419h121zM240 816h120l-103 -127h-76zM406 816h122l-113 -127h-85z" />
    <glyph glyph-name="uogonek.sc" horiz-adv-x="618" 
d="M367 -179q-55 0 -81.5 23t-26.5 61q0 50 42 86q-240 2 -240 237v421h121v-419q0 -67 31 -98t97 -31t96 30.5t30 98.5v419h121v-421q0 -191 -158 -229q-50 -19 -50 -64q0 -37 50 -38q27 0 49 12l10 -66q-39 -22 -91 -22z" />
    <glyph glyph-name="wcircumflex.sc" horiz-adv-x="867" 
d="M370 649h131l98 -458l16 -79h3l12 80l84 457h120l-148 -649h-146l-91 450l-14 80h-3l-15 -80l-91 -450h-145l-149 649h127l82 -459l13 -80h3l15 79zM381 817h102l95 -128h-90l-55 82l-54 -82h-91z" />
    <glyph glyph-name="ycircumflex.sc" horiz-adv-x="582" 
d="M13 649h138l111 -259l31 -75h3l29 75l111 259h133l-214 -438v-211h-124v211zM241 817h102l95 -128h-90l-55 82l-54 -82h-91z" />
    <glyph glyph-name="zacute.sc" horiz-adv-x="524" 
d="M482 0h-445v81l255 388l45 65l-1 2h-291l4 113h433v-91l-250 -379l-45 -64l1 -3h296zM282 816h145l-130 -127h-98z" />
    <glyph glyph-name="zdotaccent.sc" horiz-adv-x="524" 
d="M482 0h-445v81l255 388l45 65l-1 2h-291l4 113h433v-91l-250 -379l-45 -64l1 -3h296zM330 754q0 -51 -65 -51t-65 51q0 52 65 52t65 -52z" />
    <glyph glyph-name="zcaron.sc" horiz-adv-x="524" 
d="M482 0h-445v81l255 388l45 65l-1 2h-291l4 113h433v-91l-250 -379l-45 -64l1 -3h296zM316 689h-102l-94 128h91l54 -85l54 85h92z" />
    <glyph glyph-name="longs.sc" horiz-adv-x="487" 
d="M456 190q0 -94 -59.5 -147.5t-166.5 -53.5q-112 0 -191 47l18 107q81 -47 171 -47q112 0 112 86q0 28 -22 48t-55 31.5t-71.5 28t-71.5 35t-55 55.5t-22 88q0 85 55 138t165 53q101 0 172 -33l-15 -105q-81 28 -151 28q-110 0 -110 -75q0 -23 16.5 -40.5t42.5 -28.5
t58 -22t63.5 -26t57.5 -34.5t42.5 -53.5t16.5 -79z" />
    <glyph glyph-name="uni01B6.sc" horiz-adv-x="524" 
d="M482 0h-445v81l144 219h-117l4 75h162l62 94l45 65l-1 2h-291l4 113h433v-91l-121 -183h105l-4 -75h-150l-80 -121l-45 -64l1 -3h296z" />
    <glyph glyph-name="aringacute.sc" horiz-adv-x="611" 
d="M191 710q0 77 89 87l43 65h145l-86 -84q36 -24 36 -68q0 -51 -37 -73l219 -637h-136l-41 138h-243l-41 -138h-128l217 637q-37 23 -37 73zM302 552l-22 -79l-69 -231h182l-68 231l-20 79h-3zM255 709q0 -36 51 -36q50 0 50 36q0 37 -50 37q-51 0 -51 -37z" />
    <glyph glyph-name="aeacute.sc" horiz-adv-x="870" 
d="M829 538h-290l11 -153h231v-100h-223l13 -176h266l-2 -109h-380l-10 138h-229l-65 -138h-143l338 649h479zM414 558l-33 -74l-116 -243h172l-16 235l-4 81zM555 816h145l-130 -127h-98z" />
    <glyph glyph-name="oslashacute.sc" horiz-adv-x="611" 
d="M90 -14l-55 48l45 63q-44 79 -44 227q0 178 63.5 256.5t207.5 78.5q115 0 178 -50l43 56l54 -49l-49 -65q44 -79 44 -227q0 -180 -63 -257.5t-207 -77.5q-115 0 -178 50zM450 324q0 78 -9 127l-244 -308q31 -43 110 -43q81 0 112 46.5t31 177.5zM162 324q0 -80 10 -127
l244 310q-31 41 -109 41q-82 0 -113.5 -46.5t-31.5 -177.5zM324 816h145l-130 -127h-98z" />
    <glyph glyph-name="scommaaccent.sc" horiz-adv-x="487" 
d="M456 190q0 -94 -59.5 -147.5t-166.5 -53.5q-112 0 -191 47l18 107q81 -47 171 -47q112 0 112 86q0 28 -22 48t-55 31.5t-71.5 28t-71.5 35t-55 55.5t-22 88q0 85 55 138t165 53q101 0 172 -33l-15 -105q-81 28 -151 28q-110 0 -110 -75q0 -23 16.5 -40.5t42.5 -28.5
t58 -22t63.5 -26t57.5 -34.5t42.5 -53.5t16.5 -79zM251 -36q70 0 70 -52q0 -43 -87 -111l-37 13l25 63q-41 9 -41 43q0 44 70 44z" />
    <glyph glyph-name="uni021B.sc" horiz-adv-x="497" 
d="M485 538h-175v-538h-123v538h-175l2 111h469zM249 -36q70 0 70 -52q0 -43 -87 -111l-37 13l25 63q-41 9 -41 43q0 44 70 44z" />
    <glyph glyph-name="dotlessj.sc" horiz-adv-x="414" 
d="M353 649v-435q0 -225 -203 -225q-77 0 -123 29l8 105q37 -26 92 -26t79 27.5t24 89.5v435h123z" />
    <glyph glyph-name="uni0259.sc" horiz-adv-x="611" 
d="M37 366h412q-1 20 -5 49q-12 87 -54.5 119.5t-125.5 32.5q-99 0 -178 -28l-12 86q86 34 206 34q127 0 198.5 -57t89.5 -186q6 -42 6 -93q0 -180 -62 -257.5t-209 -77.5q-121 0 -183 51.5t-78 168.5q-7 48 -7 103q0 37 2 55zM303 79q78 0 110 43t36 167h-290
q2 -43 4.5 -68t11 -56t23 -47t41 -27.5t64.5 -11.5z" />
    <glyph glyph-name="circumflex.sc" 
d="M137 817h102l95 -128h-90l-55 82l-54 -82h-91z" />
    <glyph glyph-name="caron.sc" 
d="M241 689h-102l-94 128h91l54 -85l54 85h92z" />
    <glyph glyph-name="breve.sc" 
d="M246 817h81q0 -133 -139 -133q-138 0 -138 133h79q1 -74 60 -74q57 0 57 74z" />
    <glyph glyph-name="dotaccent.sc" 
d="M255 754q0 -51 -65 -51t-65 51q0 52 65 52t65 -52z" />
    <glyph glyph-name="ring.sc" 
d="M77 740q0 41 28 64.5t85 23.5q55 0 84.5 -24t29.5 -64q0 -89 -114 -89q-113 0 -113 89zM141 739q0 -36 51 -36q50 0 50 36q0 37 -50 37q-51 0 -51 -37z" />
    <glyph glyph-name="ogonek.sc" 
d="M238 19l45 -19q-25 0 -42.5 -19t-17.5 -42q0 -41 51 -42q26 0 49 12l10 -67q-39 -22 -92 -22t-81 23t-28 61q0 45 29.5 74.5t76.5 40.5z" />
    <glyph glyph-name="tilde.sc" 
d="M99 717h-54q3 46 26.5 75t61.5 29q31 0 66.5 -24t52.5 -24q26 0 35 37l55 -1q-3 -46 -27 -74t-62 -28q-30 0 -66 23.5t-53 23.5q-25 0 -35 -37z" />
    <glyph glyph-name="hungarumlaut.sc" 
d="M138 816h120l-103 -127h-76zM304 816h122l-113 -127h-85z" />
    <glyph glyph-name="wgrave.sc" horiz-adv-x="867" 
d="M370 649h131l98 -458l16 -79h3l12 80l84 457h120l-148 -649h-146l-91 450l-14 80h-3l-15 -80l-91 -450h-145l-149 649h127l82 -459l13 -80h3l15 79zM499 689h-89l-112 127h136z" />
    <glyph glyph-name="wacute.sc" horiz-adv-x="867" 
d="M370 649h131l98 -458l16 -79h3l12 80l84 457h120l-148 -649h-146l-91 450l-14 80h-3l-15 -80l-91 -450h-145l-149 649h127l82 -459l13 -80h3l15 79zM457 816h145l-130 -127h-98z" />
    <glyph glyph-name="wdieresis.sc" horiz-adv-x="867" 
d="M370 649h131l98 -458l16 -79h3l12 80l84 457h120l-148 -649h-146l-91 450l-14 80h-3l-15 -80l-91 -450h-145l-149 649h127l82 -459l13 -80h3l15 79zM403 757q0 -49 -51 -49q-27 0 -39.5 11.5t-12.5 37.5q0 50 52 50q51 0 51 -50zM568 757q0 -49 -52 -49q-27 0 -39.5 11.5
t-12.5 37.5q0 50 52 50t52 -50z" />
    <glyph glyph-name="uni1E8B.sc" horiz-adv-x="598" 
d="M564 649l-178 -310l187 -339h-139l-99 191l-35 73h-3l-35 -73l-96 -191h-141l184 337l-178 312h144l88 -166l36 -72h3l35 72l88 166h139zM365 754q0 -51 -65 -51t-65 51q0 52 65 52t65 -52z" />
    <glyph glyph-name="ygrave.sc" horiz-adv-x="582" 
d="M13 649h138l111 -259l31 -75h3l29 75l111 259h133l-214 -438v-211h-124v211zM366 689h-89l-112 127h136z" />
    <glyph glyph-name="fi.sc" horiz-adv-x="783" 
d="M474 536h-284v-162h246l-1 -108h-245v-266h-121v649h402zM580 0v649h124v-649h-124z" />
    <glyph glyph-name="fl.sc" horiz-adv-x="982" 
d="M474 536h-284v-162h246l-1 -108h-245v-266h-121v649h402zM692 112h271l-4 -112h-388v649h121v-537z" />
    <glyph glyph-name="i.latn_TRK.sc" horiz-adv-x="281" 
d="M78 0v649h124v-649h-124zM205 754q0 -51 -65 -51t-65 51q0 52 65 52t65 -52z" />
    <glyph glyph-name="parenleft.case" horiz-adv-x="324" 
d="M226 838l94 -7q-125 -198 -125 -456q0 -255 124 -456l-93 -8q-70 87 -108 208.5t-38 255.5q0 274 146 463z" />
    <glyph glyph-name="parenright.case" horiz-adv-x="323" 
d="M4 831l94 7q146 -191 146 -463q0 -134 -38 -255.5t-108 -208.5l-93 8q123 201 123 456q0 257 -124 456z" />
    <glyph glyph-name="hyphen.case" horiz-adv-x="364" 
d="M55 421h254v-92h-254v92z" />
    <glyph glyph-name="bracketleft.case" horiz-adv-x="316" 
d="M80 -85v920h232v-90h-124v-742h124v-88h-232z" />
    <glyph glyph-name="bracketright.case" horiz-adv-x="316" 
d="M237 835v-920h-233v88h124v742h-124v90h233z" />
    <glyph glyph-name="grave.case" 
d="M275 795h-97l-117 115h144z" />
    <glyph glyph-name="braceleft.case" horiz-adv-x="356" 
d="M250 478q0 -71 -53 -104q53 -33 53 -103q0 -36 -6 -94t-6 -90q0 -37 21 -59t65 -22h28v-94h-22q-108 0 -154.5 41t-46.5 119q0 34 7.5 100t7.5 100q0 30 -17.5 51t-46.5 27v49q29 7 46.5 28t17.5 51q0 33 -7.5 99t-7.5 100q0 78 46.5 119t154.5 41h22v-94h-28
q-44 0 -65 -21.5t-21 -58.5q0 -32 6 -90.5t6 -94.5z" />
    <glyph glyph-name="braceright.case" horiz-adv-x="356" 
d="M106 271q0 71 54 103q-54 33 -54 104q0 36 6.5 94.5t6.5 90.5q0 36 -21.5 58t-65.5 22h-28v94h22q108 0 154.5 -41t46.5 -119q0 -34 -7.5 -100t-7.5 -99q0 -30 17.5 -51t47.5 -28v-49q-29 -6 -47 -27t-18 -51q0 -34 7.5 -100t7.5 -100q0 -78 -46.5 -119t-154.5 -41h-22
v94h28q44 0 65.5 22t21.5 59q0 32 -6.5 90t-6.5 94z" />
    <glyph glyph-name="dieresis.case" 
d="M153 849q0 -53 -53 -53t-53 53q0 54 53 54t53 -54zM334 849q0 -53 -54 -53q-53 0 -53 53q0 54 53 54q54 0 54 -54z" />
    <glyph glyph-name="guillemotleft.case" horiz-adv-x="595" 
d="M527 480l-166 -106l166 -105v-97l-285 198v9l285 198v-97zM308 480l-166 -106l166 -105v-97l-285 198v9l285 198v-97z" />
    <glyph glyph-name="uni00AD.case" horiz-adv-x="364" 
d="M55 421h254v-92h-254v92z" />
    <glyph glyph-name="macron.case" 
d="M330 872v-64h-282v64h282z" />
    <glyph glyph-name="acute.case" 
d="M178 909h155l-124 -115h-97z" />
    <glyph glyph-name="guillemotright.case" horiz-adv-x="595" 
d="M278 172v97l165 105l-165 106v97l285 -198v-9zM58 172v97l165 105l-165 106v97l285 -198v-9z" />
    <glyph glyph-name="circumflex.case" 
d="M124 909h126l103 -115h-108l-57 63l-57 -63h-106z" />
    <glyph glyph-name="caron.case" 
d="M251 794h-126l-101 115h108l57 -65l57 65h107z" />
    <glyph glyph-name="breve.case" 
d="M253 909h89q0 -121 -152 -121t-152 121h89q0 -55 63 -55t63 55z" />
    <glyph glyph-name="dotaccent.case" 
d="M263 846q0 -53 -74 -53q-40 0 -57 12.5t-17 40.5q0 53 74 53t74 -53z" />
    <glyph glyph-name="ring.case" 
d="M76 811q0 89 110 89q112 0 112 -89q0 -46 -26.5 -67.5t-85.5 -21.5q-57 0 -83.5 21t-26.5 68zM141 807q0 -34 48 -34q46 0 46 34q0 36 -46 36q-48 0 -48 -36z" />
    <glyph glyph-name="ogonek.case" 
d="M231 21l52 -21q-25 0 -42.5 -19t-17.5 -42q0 -41 51 -42q26 0 49 12l10 -67q-39 -22 -92 -22t-81 23.5t-28 63.5q0 44 26.5 73.5t72.5 40.5z" />
    <glyph glyph-name="tilde.case" 
d="M96 799h-57q3 50 26.5 80.5t63.5 30.5q33 0 73.5 -24.5t53.5 -24.5q26 0 33 37l54 -1q-3 -50 -27.5 -80t-63.5 -30q-32 0 -71 24.5t-52 24.5q-26 0 -33 -37z" />
    <glyph glyph-name="hungarumlaut.case" 
d="M87 909h123l-87 -116h-77zM255 909h126l-109 -116h-87z" />
    <glyph glyph-name="endash.case" horiz-adv-x="483" 
d="M55 421h372v-92h-372v92z" />
    <glyph glyph-name="emdash.case" horiz-adv-x="654" 
d="M55 421h544v-92h-544v92z" />
    <glyph glyph-name="guilsinglleft.case" horiz-adv-x="374" 
d="M320 480l-166 -106l166 -105v-97l-285 198v9l285 198v-97z" />
    <glyph glyph-name="guilsinglright.case" horiz-adv-x="374" 
d="M54 172v97l165 105l-165 106v97l285 -198v-9z" />
    <glyph glyph-name="zero.zero" horiz-adv-x="568" 
d="M526 317q0 -171 -58 -249t-184 -78q-129 0 -185.5 77.5t-56.5 249.5q0 178 56.5 254t186.5 76q127 0 184 -76t57 -254zM410 319q0 86 -14.5 133t-40 63t-71.5 16q-68 0 -97.5 -44t-29.5 -169q0 -86 14.5 -133.5t40.5 -64t72 -16.5q68 0 97 44.5t29 170.5zM330 319
q0 -55 -46 -55q-24 0 -35 12t-11 43q0 56 46 56t46 -56z" />
    <glyph glyph-name="Lcaron.ss01" horiz-adv-x="515" 
d="M205 122h292l-4 -122h-418v750h130v-628zM252 794h-126l-101 115h108l57 -65l57 65h107z" />
    <glyph glyph-name="lcaron.sc.ss01" horiz-adv-x="480" 
d="M190 112h271l-4 -112h-388v649h121v-537zM223 689h-102l-94 128h91l54 -85l54 85h92z" />
    <glyph glyph-name="orn001" horiz-adv-x="653" 
d="M327 -13q-24 0 -51.5 20.5t-45.5 43.5t-40.5 55t-29.5 40q-45 53 -79.5 150t-34.5 195q0 124 67 199.5t214 75.5q76 0 131.5 -21.5t87 -60t46.5 -86.5t15 -107q0 -98 -34.5 -195t-79.5 -150q-3 -4 -38 -53.5t-66.5 -77.5t-61.5 -28zM327 45q21 0 45.5 23.5t50 60.5
t30.5 43q35 38 64.5 117t29.5 157q0 63 -46 86.5t-173 23.5q-130 0 -175.5 -23t-45.5 -87q0 -78 30 -157t65 -117q5 -6 30.5 -43t49.5 -60.5t45 -23.5zM418 199q-45 10 -88 10q-44 0 -91 -10q-36 41 -45 102q66 -23 133 -23q70 0 134 23q-10 -66 -43 -102zM368 339l-24 40
q81 41 121 91q26 -23 28 -95q-50 -25 -125 -36zM312 379l-24 -40q-74 11 -124 36q0 70 28 95q41 -51 120 -91z" />
    <glyph glyph-name="commaaccent" 
d="M192 792q57 0 57 -53q0 -44 -72 -114l-29 13l22 65q-34 9 -34 44q0 45 56 45z" />
    <glyph glyph-name="commaccentturn" 
d="M192 667q-57 0 -57 54q0 41 72 113l30 -13l-23 -64q34 -9 34 -44q0 -46 -56 -46z" />
    <glyph glyph-name="f_j" horiz-adv-x="644" 
d="M217 0h-119v509h-74v94h74v30q0 74 46.5 119t138.5 45q46 0 78 -9l-4 -85q-26 6 -48 6q-92 0 -92 -80v-26h340v-604q0 -156 -150 -156q-39 0 -72 13l6 87q21 -7 37 -7q60 0 60 66v507h-221v-509zM569 742q0 -59 -71 -59q-36 0 -53.5 13.5t-17.5 45.5q0 59 71 59t71 -59z
" />
    <glyph glyph-name="undercommaaccent" 
d="M191 -36q70 0 70 -52q0 -43 -87 -111l-37 13l25 63q-41 9 -41 43q0 44 70 44z" />
    </font>
</defs>
</svg>
